{
copyright = "Modified Version Copyright (c) 2015, Christopher Simpkins with Reserved Font Name Hack. Original Version Copyright (c) 2003 by Bitstream, Inc. All Rights Reserved.";
customParameters = (
{
name = license;

glyphs = (
{
glyphname = A;
layers = (
{
layerId = "40F0FF51-D1E9-4DBD-A50F-345F6327BC10";
name = Bold;
paths = (
{
closed = 1;
nodes = (
"616 1223 LINE",
"756 612 LINE",
"477 612 LINE"
);
},
{
closed = 1;
nodes = (
"436 1493 LINE",
"33 0 LINE",
"328 0 LINE",
"418 369 LINE",
"813 369 LINE",
"905 0 LINE",
"1200 0 LINE",
"797 1493 LINE"
);
}
);
width = 1233;
}
);
note = "\012\011A\012  ";
unicode = 0041;
},
{
glyphname = Aacute;
layers = (
{
layerId = "40F0FF51-D1E9-4DBD-A50F-345F6327BC10";
name = Bold;
paths = (
{
closed = 1;
nodes = (
"616 1223 LINE",
"756 612 LINE",
"477 612 LINE"
);
},
{
closed = 1;
nodes = (
"436 1493 LINE",
"33 0 LINE",
"328 0 LINE",
"418 369 LINE",
"813 369 LINE",
"905 0 LINE",
"1200 0 LINE",
"797 1493 LINE"
);
},
{
closed = 1;
nodes = (
"668 1899 LINE",
"469 1635 LINE",
"666 1635 LINE",
"952 1899 LINE"
);
}
);
width = 1233;
}
);
note = "\012\011Aacute\012  ";
unicode = 00C1;
},
{
glyphname = Abreve;
lastChange = "2015-07-18 21:08:01 +0000";
layers = (
{
layerId = "40F0FF51-D1E9-4DBD-A50F-345F6327BC10";
name = Bold;
paths = (
{
closed = 1;
nodes = (
"616 1223 LINE",
"477 612 LINE",
"756 612 LINE"
);
},
{
closed = 1;
nodes = (
"436 1493 LINE",
"797 1493 LINE",
"1200 0 LINE",
"905 0 LINE",
"813 369 LINE",
"418 369 LINE",
"328 0 LINE",
"33 0 LINE"
);
},
{
closed = 1;
nodes = (
"422 1899 LINE",
"449 1819 OFFCURVE",
"515 1778 OFFCURVE",
"616 1778 CURVE SMOOTH",
"719 1778 OFFCURVE",
"782 1818 OFFCURVE",
"809 1899 CURVE",
"952 1899 LINE",
"932 1727 OFFCURVE",
"813 1635 OFFCURVE",
"616 1635 CURVE SMOOTH",
"420 1635 OFFCURVE",
"301 1727 OFFCURVE",
"281 1899 CURVE"
);
}
);
width = 1233;
}
);
note = Abreve;
unicode = 0102;
},
{
glyphname = Acircumflex;
layers = (
{
layerId = "40F0FF51-D1E9-4DBD-A50F-345F6327BC10";
name = Bold;
paths = (
{
closed = 1;
nodes = (
"616 1223 LINE",
"756 612 LINE",
"477 612 LINE"
);
},
{
closed = 1;
nodes = (
"436 1493 LINE",
"33 0 LINE",
"328 0 LINE",
"418 369 LINE",
"813 369 LINE",
"905 0 LINE",
"1200 0 LINE",
"797 1493 LINE"
);
},
{
closed = 1;
nodes = (
"461 1899 LINE",
"240 1635 LINE",
"418 1635 LINE",
"616 1796 LINE",
"815 1635 LINE",
"993 1635 LINE",
"770 1899 LINE"
);
}
);
width = 1233;
}
);
note = "\012\011Acircumflex\012  ";
unicode = 00C2;
},
{
glyphname = Adieresis;
layers = (
{
layerId = "40F0FF51-D1E9-4DBD-A50F-345F6327BC10";
name = Bold;
paths = (
{
closed = 1;
nodes = (
"616 1223 LINE",
"756 612 LINE",
"477 612 LINE"
);
},
{
closed = 1;
nodes = (
"436 1493 LINE",
"33 0 LINE",
"328 0 LINE",
"418 369 LINE",
"813 369 LINE",
"905 0 LINE",
"1200 0 LINE",
"797 1493 LINE"
);
},
{
closed = 1;
nodes = (
"726 1899 LINE SMOOTH",
"707 1899 OFFCURVE",
"696 1888 OFFCURVE",
"696 1869 CURVE SMOOTH",
"696 1683 LINE SMOOTH",
"696 1664 OFFCURVE",
"707 1653 OFFCURVE",
"726 1653 CURVE SMOOTH",
"902 1653 LINE SMOOTH",
"921 1653 OFFCURVE",
"932 1664 OFFCURVE",
"932 1683 CURVE SMOOTH",
"932 1869 LINE SMOOTH",
"932 1888 OFFCURVE",
"921 1899 OFFCURVE",
"902 1899 CURVE SMOOTH"
);
},
{
closed = 1;
nodes = (
"331 1899 LINE SMOOTH",
"312 1899 OFFCURVE",
"301 1888 OFFCURVE",
"301 1869 CURVE SMOOTH",
"301 1683 LINE SMOOTH",
"301 1664 OFFCURVE",
"312 1653 OFFCURVE",
"331 1653 CURVE SMOOTH",
"507 1653 LINE SMOOTH",
"526 1653 OFFCURVE",
"537 1664 OFFCURVE",
"537 1683 CURVE SMOOTH",
"537 1869 LINE SMOOTH",
"537 1888 OFFCURVE",
"526 1899 OFFCURVE",
"507 1899 CURVE SMOOTH"
);
}
);
width = 1233;
}
);
note = "\012\011Adieresis\012  ";
unicode = 00C4;
},
{
glyphname = Agrave;
layers = (
{
layerId = "40F0FF51-D1E9-4DBD-A50F-345F6327BC10";
name = Bold;
paths = (
{
closed = 1;
nodes = (
"616 1223 LINE",
"756 612 LINE",
"477 612 LINE"
);
},
{
closed = 1;
nodes = (
"436 1493 LINE",
"33 0 LINE",
"328 0 LINE",
"418 369 LINE",
"813 369 LINE",
"905 0 LINE",
"1200 0 LINE",
"797 1493 LINE"
);
},
{
closed = 1;
nodes = (
"567 1899 LINE",
"283 1899 LINE",
"569 1635 LINE",
"766 1635 LINE"
);
}
);
width = 1233;
}
);
note = "\012\011Agrave\012  ";
unicode = 00C0;
},
{
glyphname = Amacron;
lastChange = "2015-07-18 21:08:01 +0000";
layers = (
{
layerId = "40F0FF51-D1E9-4DBD-A50F-345F6327BC10";
name = Bold;
paths = (
{
closed = 1;
nodes = (
"301 1870 LINE",
"932 1870 LINE",
"932 1682 LINE",
"301 1682 LINE"
);
},
{
closed = 1;
nodes = (
"616 1223 LINE",
"477 612 LINE",
"756 612 LINE"
);
},
{
closed = 1;
nodes = (
"436 1493 LINE",
"797 1493 LINE",
"1200 0 LINE",
"905 0 LINE",
"813 369 LINE",
"418 369 LINE",
"328 0 LINE",
"33 0 LINE"
);
}
);
width = 1233;
}
);
note = Amacron;
unicode = 0100;
},
{
glyphname = Aogonek;
lastChange = "2015-07-18 21:08:01 +0000";
layers = (
{
layerId = "40F0FF51-D1E9-4DBD-A50F-345F6327BC10";
name = Bold;
paths = (
{
closed = 1;
nodes = (
"1053 0 LINE",
"1018 -47 OFFCURVE",
"994 -83 OFFCURVE",
"982 -106 CURVE SMOOTH",
"969 -129 OFFCURVE",
"963 -149 OFFCURVE",
"963 -166 CURVE SMOOTH",
"963 -218 OFFCURVE",
"1007 -254 OFFCURVE",
"1074 -254 CURVE SMOOTH",
"1125 -254 OFFCURVE",
"1176 -244 OFFCURVE",
"1229 -223 CURVE",
"1229 -379 LINE",
"1157 -394 OFFCURVE",
"1094 -401 OFFCURVE",
"1039 -401 CURVE SMOOTH",
"887 -401 OFFCURVE",
"801 -338 OFFCURVE",
"801 -223 CURVE SMOOTH",
"801 -152 OFFCURVE",
"837 -81 OFFCURVE",
"912 0 CURVE"
);
},
{
closed = 1;
nodes = (
"616 1223 LINE",
"477 612 LINE",
"756 612 LINE"
);
},
{
closed = 1;
nodes = (
"436 1493 LINE",
"797 1493 LINE",
"1200 0 LINE",
"905 0 LINE",
"813 369 LINE",
"418 369 LINE",
"328 0 LINE",
"33 0 LINE"
);
}
);
width = 1233;
}
);
note = Aogonek;
unicode = 0104;
},
{
glyphname = Aring;
layers = (
{
layerId = "40F0FF51-D1E9-4DBD-A50F-345F6327BC10";
name = Bold;
paths = (
{
closed = 1;
nodes = (
"815 1421 LINE",
"844 1446 OFFCURVE",
"866 1475 OFFCURVE",
"880 1507 CURVE SMOOTH",
"894 1538 OFFCURVE",
"901 1577 OFFCURVE",
"901 1615 CURVE SMOOTH",
"901 1699 OFFCURVE",
"867 1769 OFFCURVE",
"819 1817 CURVE SMOOTH",
"763 1873 OFFCURVE",
"691 1901 OFFCURVE",
"617 1901 CURVE SMOOTH",
"533 1901 OFFCURVE",
"462 1865 OFFCURVE",
"415 1818 CURVE SMOOTH",
"366 1769 OFFCURVE",
"332 1697 OFFCURVE",
"332 1614 CURVE SMOOTH",
"332 1577 OFFCURVE",
"339 1539 OFFCURVE",
"353 1507 CURVE SMOOTH",
"367 1474 OFFCURVE",
"389 1446 OFFCURVE",
"418 1421 CURVE",
"33 0 LINE",
"328 0 LINE",
"418 369 LINE",
"813 369 LINE",
"905 0 LINE",
"1200 0 LINE"
);
},
{
closed = 1;
nodes = (
"485 1651 OFFCURVE",
"498 1683 OFFCURVE",
"524 1709 CURVE SMOOTH",
"550 1734 OFFCURVE",
"581 1747 OFFCURVE",
"616 1747 CURVE SMOOTH",
"652 1747 OFFCURVE",
"683 1734 OFFCURVE",
"709 1709 CURVE SMOOTH",
"735 1683 OFFCURVE",
"748 1652 OFFCURVE",
"748 1616 CURVE SMOOTH",
"748 1580 OFFCURVE",
"735 1549 OFFCURVE",
"710 1524 CURVE SMOOTH",
"684 1498 OFFCURVE",
"652 1485 OFFCURVE",
"618 1485 CURVE SMOOTH",
"584 1485 OFFCURVE",
"549 1498 OFFCURVE",
"523 1524 CURVE SMOOTH",
"501 1546 OFFCURVE",
"485 1578 OFFCURVE",
"485 1616 CURVE SMOOTH"
);
},
{
closed = 1;
nodes = (
"616 1223 LINE",
"756 612 LINE",
"477 612 LINE"
);
}
);
width = 1233;
}
);
note = "\012\011Aring\012  ";
unicode = 00C5;
},
{
glyphname = Atilde;
layers = (
{
layerId = "40F0FF51-D1E9-4DBD-A50F-345F6327BC10";
name = Bold;
paths = (
{
closed = 1;
nodes = (
"616 1223 LINE",
"756 612 LINE",
"477 612 LINE"
);
},
{
closed = 1;
nodes = (
"436 1493 LINE",
"33 0 LINE",
"328 0 LINE",
"418 369 LINE",
"813 369 LINE",
"905 0 LINE",
"1200 0 LINE",
"797 1493 LINE"
);
},
{
closed = 1;
nodes = (
"618 1684 LINE SMOOTH",
"646 1666 OFFCURVE",
"672 1653 OFFCURVE",
"696 1646 CURVE SMOOTH",
"719 1639 OFFCURVE",
"743 1635 OFFCURVE",
"768 1635 CURVE SMOOTH",
"827 1635 OFFCURVE",
"874 1657 OFFCURVE",
"910 1700 CURVE SMOOTH",
"945 1743 OFFCURVE",
"963 1799 OFFCURVE",
"963 1870 CURVE SMOOTH",
"963 1874 OFFCURVE",
"963 1879 OFFCURVE",
"964 1886 CURVE SMOOTH",
"965 1893 OFFCURVE",
"965 1898 OFFCURVE",
"965 1901 CURVE",
"825 1901 LINE",
"825 1863 OFFCURVE",
"819 1834 OFFCURVE",
"806 1814 CURVE SMOOTH",
"793 1794 OFFCURVE",
"774 1784 OFFCURVE",
"750 1784 CURVE SMOOTH",
"739 1784 OFFCURVE",
"728 1787 OFFCURVE",
"715 1792 CURVE SMOOTH",
"702 1797 OFFCURVE",
"688 1804 OFFCURVE",
"674 1813 CURVE SMOOTH",
"614 1852 LINE SMOOTH",
"589 1868 OFFCURVE",
"564 1880 OFFCURVE",
"539 1889 CURVE SMOOTH",
"514 1897 OFFCURVE",
"489 1901 OFFCURVE",
"465 1901 CURVE SMOOTH",
"406 1901 OFFCURVE",
"359 1879 OFFCURVE",
"323 1836 CURVE SMOOTH",
"286 1793 OFFCURVE",
"268 1736 OFFCURVE",
"268 1665 CURVE SMOOTH",
"268 1635 LINE",
"408 1635 LINE",
"408 1641 LINE SMOOTH",
"408 1674 OFFCURVE",
"415 1701 OFFCURVE",
"428 1721 CURVE SMOOTH",
"441 1741 OFFCURVE",
"458 1751 OFFCURVE",
"479 1751 CURVE SMOOTH",
"498 1751 OFFCURVE",
"522 1742 OFFCURVE",
"552 1725 CURVE SMOOTH",
"557 1722 OFFCURVE",
"561 1720 OFFCURVE",
"564 1718 CURVE SMOOTH"
);
}
);
width = 1233;
}
);
note = "\012\011Atilde\012  ";
unicode = 00C3;
},
{
glyphname = AE;
layers = (
{
layerId = "40F0FF51-D1E9-4DBD-A50F-345F6327BC10";
name = Bold;
paths = (
{
closed = 1;
nodes = (
"1161 1493 LINE",
"358 1493 LINE",
"0 0 LINE",
"248 0 LINE",
"334 362 LINE",
"616 362 LINE",
"616 0 LINE",
"1180 0 LINE",
"1180 260 LINE",
"870 260 LINE",
"870 662 LINE",
"1130 662 LINE",
"1130 922 LINE",
"870 922 LINE",
"870 1233 LINE",
"1161 1233 LINE"
);
},
{
closed = 1;
nodes = (
"537 1233 LINE",
"616 1233 LINE",
"616 598 LINE",
"389 598 LINE"
);
}
);
width = 1233;
}
);
note = "\012\011AE\012  ";
unicode = 00C6;
},
{
glyphname = B;
layers = (
{
layerId = "40F0FF51-D1E9-4DBD-A50F-345F6327BC10";
name = Bold;
paths = (
{
closed = 1;
nodes = (
"410 678 LINE",
"606 678 LINE SMOOTH",
"697 678 OFFCURVE",
"762 660 OFFCURVE",
"801 625 CURVE SMOOTH",
"840 590 OFFCURVE",
"860 532 OFFCURVE",
"860 451 CURVE SMOOTH",
"860 372 OFFCURVE",
"841 316 OFFCURVE",
"804 284 CURVE SMOOTH",
"766 252 OFFCURVE",
"700 236 OFFCURVE",
"606 236 CURVE SMOOTH",
"410 236 LINE"
);
},
{
closed = 1;
nodes = (
"410 1260 LINE",
"606 1260 LINE SMOOTH",
"692 1260 OFFCURVE",
"737 1242 OFFCURVE",
"765 1218 CURVE SMOOTH",
"800 1188 OFFCURVE",
"813 1143 OFFCURVE",
"813 1085 CURVE SMOOTH",
"813 1019 OFFCURVE",
"796 980 OFFCURVE",
"766 954 CURVE SMOOTH",
"734 926 OFFCURVE",
"685 913 OFFCURVE",
"606 913 CURVE SMOOTH",
"410 913 LINE"
);
},
{
closed = 1;
nodes = (
"125 1495 LINE",
"125 0 LINE",
"606 0 LINE SMOOTH",
"801 0 OFFCURVE",
"942 32 OFFCURVE",
"1029 97 CURVE SMOOTH",
"1116 162 OFFCURVE",
"1159 266 OFFCURVE",
"1159 409 CURVE SMOOTH",
"1159 527 OFFCURVE",
"1130 619 OFFCURVE",
"1073 684 CURVE SMOOTH",
"1017 747 OFFCURVE",
"931 788 OFFCURVE",
"815 799 CURVE",
"910 808 OFFCURVE",
"983 839 OFFCURVE",
"1032 893 CURVE SMOOTH",
"1081 947 OFFCURVE",
"1106 1022 OFFCURVE",
"1106 1118 CURVE SMOOTH",
"1106 1243 OFFCURVE",
"1064 1338 OFFCURVE",
"981 1401 CURVE SMOOTH",
"897 1464 OFFCURVE",
"772 1495 OFFCURVE",
"606 1495 CURVE SMOOTH"
);
}
);
width = 1233;
}
);
note = "\012\011B\012  ";
unicode = 0042;
},
{
glyphname = C;
layers = (
{
layerId = "40F0FF51-D1E9-4DBD-A50F-345F6327BC10";
name = Bold;
paths = (
{
closed = 1;
nodes = (
"1081 371 LINE",
"1024 319 OFFCURVE",
"980 290 OFFCURVE",
"934 269 CURVE SMOOTH",
"886 247 OFFCURVE",
"838 236 OFFCURVE",
"785 236 CURVE SMOOTH",
"679 236 OFFCURVE",
"597 279 OFFCURVE",
"542 365 CURVE SMOOTH",
"487 450 OFFCURVE",
"459 577 OFFCURVE",
"459 745 CURVE SMOOTH",
"459 914 OFFCURVE",
"487 1041 OFFCURVE",
"542 1127 CURVE SMOOTH",
"597 1212 OFFCURVE",
"678 1255 OFFCURVE",
"785 1255 CURVE SMOOTH",
"834 1255 OFFCURVE",
"882 1246 OFFCURVE",
"933 1223 CURVE SMOOTH",
"975 1204 OFFCURVE",
"1021 1175 OFFCURVE",
"1081 1120 CURVE",
"1081 1448 LINE",
"1036 1472 OFFCURVE",
"987 1490 OFFCURVE",
"935 1502 CURVE SMOOTH",
"883 1514 OFFCURVE",
"830 1520 OFFCURVE",
"770 1520 CURVE SMOOTH",
"572 1520 OFFCURVE",
"417 1454 OFFCURVE",
"311 1321 CURVE SMOOTH",
"205 1188 OFFCURVE",
"152 996 OFFCURVE",
"152 745 CURVE SMOOTH",
"152 494 OFFCURVE",
"205 303 OFFCURVE",
"311 170 CURVE SMOOTH",
"417 37 OFFCURVE",
"572 -29 OFFCURVE",
"770 -29 CURVE SMOOTH",
"830 -29 OFFCURVE",
"883 -23 OFFCURVE",
"934 -11 CURVE SMOOTH",
"985 1 OFFCURVE",
"1034 19 OFFCURVE",
"1081 43 CURVE"
);
}
);
width = 1233;
}
);
note = "\012\011C\012  ";
unicode = 0043;
},
{
glyphname = Cacute;
layers = (
{
layerId = "40F0FF51-D1E9-4DBD-A50F-345F6327BC10";
name = Bold;
paths = (
{
closed = 1;
nodes = (
"1081 371 LINE",
"1024 319 OFFCURVE",
"980 290 OFFCURVE",
"934 269 CURVE SMOOTH",
"886 247 OFFCURVE",
"838 236 OFFCURVE",
"785 236 CURVE SMOOTH",
"679 236 OFFCURVE",
"597 279 OFFCURVE",
"542 365 CURVE SMOOTH",
"487 450 OFFCURVE",
"459 577 OFFCURVE",
"459 745 CURVE SMOOTH",
"459 914 OFFCURVE",
"487 1041 OFFCURVE",
"542 1127 CURVE SMOOTH",
"597 1212 OFFCURVE",
"678 1255 OFFCURVE",
"785 1255 CURVE SMOOTH",
"834 1255 OFFCURVE",
"882 1246 OFFCURVE",
"933 1223 CURVE SMOOTH",
"975 1204 OFFCURVE",
"1021 1175 OFFCURVE",
"1081 1120 CURVE",
"1081 1448 LINE",
"1036 1472 OFFCURVE",
"987 1490 OFFCURVE",
"935 1502 CURVE SMOOTH",
"883 1514 OFFCURVE",
"830 1520 OFFCURVE",
"770 1520 CURVE SMOOTH",
"572 1520 OFFCURVE",
"417 1454 OFFCURVE",
"311 1321 CURVE SMOOTH",
"205 1188 OFFCURVE",
"152 996 OFFCURVE",
"152 745 CURVE SMOOTH",
"152 494 OFFCURVE",
"205 303 OFFCURVE",
"311 170 CURVE SMOOTH",
"417 37 OFFCURVE",
"572 -29 OFFCURVE",
"770 -29 CURVE SMOOTH",
"830 -29 OFFCURVE",
"883 -23 OFFCURVE",
"934 -11 CURVE SMOOTH",
"985 1 OFFCURVE",
"1034 19 OFFCURVE",
"1081 43 CURVE"
);
},
{
closed = 1;
nodes = (
"805 1899 LINE",
"606 1635 LINE",
"803 1635 LINE",
"1089 1899 LINE"
);
}
);
width = 1233;
}
);
note = "\012\011Cacute\012  ";
unicode = 0106;
},
{
glyphname = Ccaron;
layers = (
{
layerId = "40F0FF51-D1E9-4DBD-A50F-345F6327BC10";
name = Bold;
paths = (
{
closed = 1;
nodes = (
"1081 371 LINE",
"1024 319 OFFCURVE",
"980 290 OFFCURVE",
"934 269 CURVE SMOOTH",
"886 247 OFFCURVE",
"838 236 OFFCURVE",
"785 236 CURVE SMOOTH",
"679 236 OFFCURVE",
"597 279 OFFCURVE",
"542 365 CURVE SMOOTH",
"487 450 OFFCURVE",
"459 577 OFFCURVE",
"459 745 CURVE SMOOTH",
"459 914 OFFCURVE",
"487 1041 OFFCURVE",
"542 1127 CURVE SMOOTH",
"597 1212 OFFCURVE",
"678 1255 OFFCURVE",
"785 1255 CURVE SMOOTH",
"834 1255 OFFCURVE",
"882 1246 OFFCURVE",
"933 1223 CURVE SMOOTH",
"975 1204 OFFCURVE",
"1021 1175 OFFCURVE",
"1081 1120 CURVE",
"1081 1448 LINE",
"1036 1472 OFFCURVE",
"987 1490 OFFCURVE",
"935 1502 CURVE SMOOTH",
"883 1514 OFFCURVE",
"830 1520 OFFCURVE",
"770 1520 CURVE SMOOTH",
"572 1520 OFFCURVE",
"417 1454 OFFCURVE",
"311 1321 CURVE SMOOTH",
"205 1188 OFFCURVE",
"152 996 OFFCURVE",
"152 745 CURVE SMOOTH",
"152 494 OFFCURVE",
"205 303 OFFCURVE",
"311 170 CURVE SMOOTH",
"417 37 OFFCURVE",
"572 -29 OFFCURVE",
"770 -29 CURVE SMOOTH",
"830 -29 OFFCURVE",
"883 -23 OFFCURVE",
"934 -11 CURVE SMOOTH",
"985 1 OFFCURVE",
"1034 19 OFFCURVE",
"1081 43 CURVE"
);
},
{
closed = 1;
nodes = (
"598 1635 LINE",
"907 1635 LINE",
"1130 1899 LINE",
"952 1899 LINE",
"753 1737 LINE",
"555 1899 LINE",
"377 1899 LINE"
);
}
);
width = 1233;
}
);
note = "\012\011Ccaron\012  ";
unicode = 010C;
},
{
glyphname = Ccedilla;
layers = (
{
layerId = "40F0FF51-D1E9-4DBD-A50F-345F6327BC10";
name = Bold;
paths = (
{
closed = 1;
nodes = (
"1081 371 LINE",
"1024 319 OFFCURVE",
"980 290 OFFCURVE",
"934 269 CURVE SMOOTH",
"886 247 OFFCURVE",
"838 236 OFFCURVE",
"785 236 CURVE SMOOTH",
"679 236 OFFCURVE",
"597 279 OFFCURVE",
"542 365 CURVE SMOOTH",
"487 450 OFFCURVE",
"459 577 OFFCURVE",
"459 745 CURVE SMOOTH",
"459 914 OFFCURVE",
"487 1041 OFFCURVE",
"542 1127 CURVE SMOOTH",
"597 1212 OFFCURVE",
"678 1255 OFFCURVE",
"785 1255 CURVE SMOOTH",
"834 1255 OFFCURVE",
"882 1246 OFFCURVE",
"933 1223 CURVE SMOOTH",
"975 1204 OFFCURVE",
"1021 1175 OFFCURVE",
"1081 1120 CURVE",
"1081 1448 LINE",
"1036 1472 OFFCURVE",
"987 1490 OFFCURVE",
"935 1502 CURVE SMOOTH",
"883 1514 OFFCURVE",
"830 1520 OFFCURVE",
"770 1520 CURVE SMOOTH",
"572 1520 OFFCURVE",
"417 1454 OFFCURVE",
"311 1321 CURVE SMOOTH",
"205 1188 OFFCURVE",
"152 996 OFFCURVE",
"152 745 CURVE SMOOTH",
"152 494 OFFCURVE",
"205 303 OFFCURVE",
"311 170 CURVE SMOOTH",
"417 37 OFFCURVE",
"572 -29 OFFCURVE",
"770 -29 CURVE SMOOTH",
"830 -29 OFFCURVE",
"883 -23 OFFCURVE",
"934 -11 CURVE SMOOTH",
"985 1 OFFCURVE",
"1034 19 OFFCURVE",
"1081 43 CURVE"
);
},
{
closed = 1;
nodes = (
"684 0 LINE",
"715 -40 OFFCURVE",
"737 -74 OFFCURVE",
"751 -101 CURVE SMOOTH",
"765 -128 OFFCURVE",
"772 -150 OFFCURVE",
"772 -170 CURVE SMOOTH",
"772 -194 OFFCURVE",
"761 -216 OFFCURVE",
"740 -231 CURVE SMOOTH",
"718 -246 OFFCURVE",
"688 -254 OFFCURVE",
"649 -254 CURVE SMOOTH",
"625 -254 OFFCURVE",
"599 -251 OFFCURVE",
"571 -245 CURVE SMOOTH",
"543 -239 OFFCURVE",
"514 -230 OFFCURVE",
"484 -219 CURVE",
"484 -375 LINE",
"518 -382 OFFCURVE",
"539 -389 OFFCURVE",
"588 -395 CURVE SMOOTH",
"618 -399 OFFCURVE",
"659 -401 OFFCURVE",
"690 -401 CURVE SMOOTH",
"784 -401 OFFCURVE",
"839 -382 OFFCURVE",
"874 -356 CURVE SMOOTH",
"913 -327 OFFCURVE",
"936 -282 OFFCURVE",
"936 -221 CURVE SMOOTH",
"936 -183 OFFCURVE",
"927 -149 OFFCURVE",
"909 -115 CURVE SMOOTH",
"893 -85 OFFCURVE",
"864 -43 OFFCURVE",
"824 0 CURVE"
);
}
);
width = 1233;
}
);
note = "\012\011Ccedilla\012  ";
unicode = 00C7;
},
{
glyphname = Cdotaccent;
lastChange = "2015-07-18 22:05:41 +0000";
layers = (
{
layerId = "40F0FF51-D1E9-4DBD-A50F-345F6327BC10";
name = Bold;
paths = (
{
closed = 1;
nodes = (
"1081 43 LINE",
"988 -5 OFFCURVE",
"885 -29 OFFCURVE",
"772 -29 CURVE SMOOTH",
"369 -29 OFFCURVE",
"152 244 OFFCURVE",
"152 745 CURVE SMOOTH",
"152 1248 OFFCURVE",
"369 1520 OFFCURVE",
"772 1520 CURVE SMOOTH",
"885 1520 OFFCURVE",
"990 1496 OFFCURVE",
"1081 1448 CURVE",
"1081 1120 LINE",
"980 1213 OFFCURVE",
"887 1255 OFFCURVE",
"786 1255 CURVE SMOOTH",
"570 1255 OFFCURVE",
"459 1082 OFFCURVE",
"459 745 CURVE SMOOTH",
"459 409 OFFCURVE",
"570 236 OFFCURVE",
"786 236 CURVE SMOOTH",
"887 236 OFFCURVE",
"980 278 OFFCURVE",
"1081 371 CURVE"
);
},
{
closed = 1;
nodes = (
"579 1868 LINE SMOOTH",
"579 1885 OFFCURVE",
"593 1899 OFFCURVE",
"610 1899 CURVE SMOOTH",
"823 1899 LINE SMOOTH",
"840 1899 OFFCURVE",
"854 1885 OFFCURVE",
"854 1868 CURVE SMOOTH",
"854 1684 LINE SMOOTH",
"854 1667 OFFCURVE",
"840 1653 OFFCURVE",
"823 1653 CURVE SMOOTH",
"610 1653 LINE SMOOTH",
"593 1653 OFFCURVE",
"579 1667 OFFCURVE",
"579 1684 CURVE SMOOTH"
);
}
);
width = 1233;
}
);
note = Cdotaccent;
unicode = 010A;
},
{
glyphname = D;
layers = (
{
layerId = "40F0FF51-D1E9-4DBD-A50F-345F6327BC10";
name = Bold;
paths = (
{
closed = 1;
nodes = (
"432 1227 LINE",
"512 1227 LINE SMOOTH",
"628 1227 OFFCURVE",
"711 1191 OFFCURVE",
"760 1118 CURVE SMOOTH",
"809 1045 OFFCURVE",
"834 922 OFFCURVE",
"834 748 CURVE SMOOTH",
"834 573 OFFCURVE",
"809 449 OFFCURVE",
"760 376 CURVE SMOOTH",
"711 303 OFFCURVE",
"628 266 OFFCURVE",
"512 266 CURVE SMOOTH",
"432 266 LINE"
);
},
{
closed = 1;
nodes = (
"137 1493 LINE",
"137 0 LINE",
"453 0 LINE SMOOTH",
"697 0 OFFCURVE",
"873 59 OFFCURVE",
"980 176 CURVE SMOOTH",
"1087 293 OFFCURVE",
"1141 483 OFFCURVE",
"1141 747 CURVE SMOOTH",
"1141 1016 OFFCURVE",
"1085 1205 OFFCURVE",
"980 1319 CURVE SMOOTH",
"873 1435 OFFCURVE",
"697 1493 OFFCURVE",
"453 1493 CURVE SMOOTH"
);
}
);
width = 1233;
}
);
note = "\012\011D\012  ";
unicode = 0044;
},
{
glyphname = Eth;
layers = (
{
layerId = "40F0FF51-D1E9-4DBD-A50F-345F6327BC10";
name = Bold;
paths = (
{
closed = 1;
nodes = (
"432 1227 LINE",
"512 1227 LINE SMOOTH",
"628 1227 OFFCURVE",
"711 1191 OFFCURVE",
"760 1118 CURVE SMOOTH",
"809 1045 OFFCURVE",
"834 922 OFFCURVE",
"834 748 CURVE SMOOTH",
"834 573 OFFCURVE",
"809 449 OFFCURVE",
"760 376 CURVE SMOOTH",
"711 303 OFFCURVE",
"628 266 OFFCURVE",
"512 266 CURVE SMOOTH",
"432 266 LINE",
"432 664 LINE",
"643 664 LINE",
"643 901 LINE",
"432 901 LINE"
);
},
{
closed = 1;
nodes = (
"137 1493 LINE",
"137 901 LINE",
"0 901 LINE",
"0 664 LINE",
"137 664 LINE",
"137 0 LINE",
"453 0 LINE SMOOTH",
"697 0 OFFCURVE",
"873 59 OFFCURVE",
"980 176 CURVE SMOOTH",
"1087 293 OFFCURVE",
"1141 483 OFFCURVE",
"1141 747 CURVE SMOOTH",
"1141 1016 OFFCURVE",
"1085 1205 OFFCURVE",
"980 1319 CURVE SMOOTH",
"873 1435 OFFCURVE",
"697 1493 OFFCURVE",
"453 1493 CURVE SMOOTH"
);
}
);
width = 1233;
}
);
note = "\012\011Eth\012  ";
unicode = 00D0;
},
{
glyphname = Dcaron;
lastChange = "2015-07-18 21:08:01 +0000";
layers = (
{
layerId = "40F0FF51-D1E9-4DBD-A50F-345F6327BC10";
name = Bold;
paths = (
{
closed = 1;
nodes = (
"432 1227 LINE",
"432 266 LINE",
"512 266 LINE SMOOTH",
"744 266 OFFCURVE",
"834 397 OFFCURVE",
"834 748 CURVE SMOOTH",
"834 1096 OFFCURVE",
"744 1227 OFFCURVE",
"512 1227 CURVE SMOOTH"
);
},
{
closed = 1;
nodes = (
"137 1493 LINE",
"453 1493 LINE SMOOTH",
"941 1493 OFFCURVE",
"1141 1276 OFFCURVE",
"1141 748 CURVE SMOOTH",
"1141 219 OFFCURVE",
"941 0 OFFCURVE",
"453 0 CURVE SMOOTH",
"137 0 LINE"
);
},
{
closed = 1;
nodes = (
"448 1653 LINE",
"227 1917 LINE",
"405 1917 LINE",
"603 1755 LINE",
"802 1917 LINE",
"980 1917 LINE",
"757 1653 LINE"
);
}
);
width = 1233;
}
);
note = Dcaron;
unicode = 010E;
},
{
glyphname = Dcroat;
lastChange = "2015-07-18 21:08:01 +0000";
layers = (
{
layerId = "40F0FF51-D1E9-4DBD-A50F-345F6327BC10";
name = Bold;
paths = (
{
closed = 1;
nodes = (
"432 1227 LINE",
"432 901 LINE",
"643 901 LINE",
"643 664 LINE",
"432 664 LINE",
"432 266 LINE",
"512 266 LINE SMOOTH",
"744 266 OFFCURVE",
"834 397 OFFCURVE",
"834 748 CURVE SMOOTH",
"834 1096 OFFCURVE",
"744 1227 OFFCURVE",
"512 1227 CURVE SMOOTH"
);
},
{
closed = 1;
nodes = (
"137 1493 LINE",
"453 1493 LINE SMOOTH",
"941 1493 OFFCURVE",
"1141 1276 OFFCURVE",
"1141 748 CURVE SMOOTH",
"1141 219 OFFCURVE",
"941 0 OFFCURVE",
"453 0 CURVE SMOOTH",
"137 0 LINE",
"137 664 LINE",
"0 664 LINE",
"0 901 LINE",
"137 901 LINE"
);
}
);
width = 1233;
}
);
note = Dcroat;
unicode = 0110;
},
{
glyphname = E;
layers = (
{
layerId = "40F0FF51-D1E9-4DBD-A50F-345F6327BC10";
name = Bold;
paths = (
{
closed = 1;
nodes = (
"1098 0 LINE",
"1098 260 LINE",
"463 260 LINE",
"463 651 LINE",
"1038 651 LINE",
"1038 911 LINE",
"463 911 LINE",
"463 1233 LINE",
"1098 1233 LINE",
"1098 1493 LINE",
"168 1493 LINE",
"168 0 LINE"
);
}
);
width = 1233;
}
);
note = "\012\011E\012  ";
unicode = 0045;
},
{
glyphname = Eacute;
layers = (
{
layerId = "40F0FF51-D1E9-4DBD-A50F-345F6327BC10";
name = Bold;
paths = (
{
closed = 1;
nodes = (
"1098 0 LINE",
"1098 260 LINE",
"463 260 LINE",
"463 651 LINE",
"1038 651 LINE",
"1038 911 LINE",
"463 911 LINE",
"463 1233 LINE",
"1098 1233 LINE",
"1098 1493 LINE",
"168 1493 LINE",
"168 0 LINE"
);
},
{
closed = 1;
nodes = (
"699 1899 LINE",
"500 1635 LINE",
"697 1635 LINE",
"983 1899 LINE"
);
}
);
width = 1233;
}
);
note = "\012\011Eacute\012  ";
unicode = 00C9;
},
{
glyphname = Ecaron;
lastChange = "2015-07-18 21:08:01 +0000";
layers = (
{
layerId = "40F0FF51-D1E9-4DBD-A50F-345F6327BC10";
name = Bold;
paths = (
{
closed = 1;
nodes = (
"1098 0 LINE",
"168 0 LINE",
"168 1493 LINE",
"1098 1493 LINE",
"1098 1233 LINE",
"463 1233 LINE",
"463 911 LINE",
"1038 911 LINE",
"1038 651 LINE",
"463 651 LINE",
"463 260 LINE",
"1098 260 LINE"
);
},
{
closed = 1;
nodes = (
"514 1635 LINE",
"293 1899 LINE",
"471 1899 LINE",
"669 1737 LINE",
"868 1899 LINE",
"1046 1899 LINE",
"823 1635 LINE"
);
}
);
width = 1233;
}
);
note = Ecaron;
unicode = 011A;
},
{
glyphname = Ecircumflex;
layers = (
{
layerId = "40F0FF51-D1E9-4DBD-A50F-345F6327BC10";
name = Bold;
paths = (
{
closed = 1;
nodes = (
"1098 0 LINE",
"1098 260 LINE",
"463 260 LINE",
"463 651 LINE",
"1038 651 LINE",
"1038 911 LINE",
"463 911 LINE",
"463 1233 LINE",
"1098 1233 LINE",
"1098 1493 LINE",
"168 1493 LINE",
"168 0 LINE"
);
},
{
closed = 1;
nodes = (
"492 1899 LINE",
"271 1635 LINE",
"449 1635 LINE",
"647 1796 LINE",
"846 1635 LINE",
"1024 1635 LINE",
"801 1899 LINE"
);
}
);
width = 1233;
}
);
note = "\012\011Ecircumflex\012  ";
unicode = 00CA;
},
{
glyphname = Edieresis;
layers = (
{
layerId = "40F0FF51-D1E9-4DBD-A50F-345F6327BC10";
name = Bold;
paths = (
{
closed = 1;
nodes = (
"1098 0 LINE",
"1098 260 LINE",
"463 260 LINE",
"463 651 LINE",
"1038 651 LINE",
"1038 911 LINE",
"463 911 LINE",
"463 1233 LINE",
"1098 1233 LINE",
"1098 1493 LINE",
"168 1493 LINE",
"168 0 LINE"
);
},
{
closed = 1;
nodes = (
"757 1899 LINE SMOOTH",
"738 1899 OFFCURVE",
"727 1888 OFFCURVE",
"727 1869 CURVE SMOOTH",
"727 1683 LINE SMOOTH",
"727 1664 OFFCURVE",
"738 1653 OFFCURVE",
"757 1653 CURVE SMOOTH",
"933 1653 LINE SMOOTH",
"952 1653 OFFCURVE",
"963 1664 OFFCURVE",
"963 1683 CURVE SMOOTH",
"963 1869 LINE SMOOTH",
"963 1888 OFFCURVE",
"952 1899 OFFCURVE",
"933 1899 CURVE SMOOTH"
);
},
{
closed = 1;
nodes = (
"362 1899 LINE SMOOTH",
"343 1899 OFFCURVE",
"332 1888 OFFCURVE",
"332 1869 CURVE SMOOTH",
"332 1683 LINE SMOOTH",
"332 1664 OFFCURVE",
"343 1653 OFFCURVE",
"362 1653 CURVE SMOOTH",
"538 1653 LINE SMOOTH",
"557 1653 OFFCURVE",
"568 1664 OFFCURVE",
"568 1683 CURVE SMOOTH",
"568 1869 LINE SMOOTH",
"568 1888 OFFCURVE",
"557 1899 OFFCURVE",
"538 1899 CURVE SMOOTH"
);
}
);
width = 1233;
}
);
note = "\012\011Edieresis\012  ";
unicode = 00CB;
},
{
glyphname = Edotaccent;
lastChange = "2015-07-18 22:05:50 +0000";
layers = (
{
layerId = "40F0FF51-D1E9-4DBD-A50F-345F6327BC10";
name = Bold;
paths = (
{
closed = 1;
nodes = (
"1098 0 LINE",
"168 0 LINE",
"168 1493 LINE",
"1098 1493 LINE",
"1098 1233 LINE",
"463 1233 LINE",
"463 911 LINE",
"1038 911 LINE",
"1038 651 LINE",
"463 651 LINE",
"463 260 LINE",
"1098 260 LINE"
);
},
{
closed = 1;
nodes = (
"510 1868 LINE SMOOTH",
"510 1885 OFFCURVE",
"524 1899 OFFCURVE",
"541 1899 CURVE SMOOTH",
"754 1899 LINE SMOOTH",
"771 1899 OFFCURVE",
"785 1885 OFFCURVE",
"785 1868 CURVE SMOOTH",
"785 1684 LINE SMOOTH",
"785 1667 OFFCURVE",
"771 1653 OFFCURVE",
"754 1653 CURVE SMOOTH",
"541 1653 LINE SMOOTH",
"524 1653 OFFCURVE",
"510 1667 OFFCURVE",
"510 1684 CURVE SMOOTH"
);
}
);
width = 1233;
}
);
note = Edotaccent;
unicode = 0116;
},
{
glyphname = Egrave;
layers = (
{
layerId = "40F0FF51-D1E9-4DBD-A50F-345F6327BC10";
name = Bold;
paths = (
{
closed = 1;
nodes = (
"1098 0 LINE",
"1098 260 LINE",
"463 260 LINE",
"463 651 LINE",
"1038 651 LINE",
"1038 911 LINE",
"463 911 LINE",
"463 1233 LINE",
"1098 1233 LINE",
"1098 1493 LINE",
"168 1493 LINE",
"168 0 LINE"
);
},
{
closed = 1;
nodes = (
"598 1899 LINE",
"314 1899 LINE",
"600 1635 LINE",
"797 1635 LINE"
);
}
);
width = 1233;
}
);
note = "\012\011Egrave\012  ";
unicode = 00C8;
},
{
glyphname = Emacron;
lastChange = "2015-07-18 21:08:01 +0000";
layers = (
{
layerId = "40F0FF51-D1E9-4DBD-A50F-345F6327BC10";
name = Bold;
paths = (
{
closed = 1;
nodes = (
"332 1870 LINE",
"963 1870 LINE",
"963 1682 LINE",
"332 1682 LINE"
);
},
{
closed = 1;
nodes = (
"1098 0 LINE",
"168 0 LINE",
"168 1493 LINE",
"1098 1493 LINE",
"1098 1233 LINE",
"463 1233 LINE",
"463 911 LINE",
"1038 911 LINE",
"1038 651 LINE",
"463 651 LINE",
"463 260 LINE",
"1098 260 LINE"
);
}
);
width = 1233;
}
);
note = Emacron;
unicode = 0112;
},
{
glyphname = Eogonek;
lastChange = "2015-07-18 21:08:01 +0000";
layers = (
{
layerId = "40F0FF51-D1E9-4DBD-A50F-345F6327BC10";
name = Bold;
paths = (
{
closed = 1;
nodes = (
"923 0 LINE",
"888 -47 OFFCURVE",
"864 -83 OFFCURVE",
"852 -106 CURVE SMOOTH",
"839 -129 OFFCURVE",
"833 -149 OFFCURVE",
"833 -166 CURVE SMOOTH",
"833 -218 OFFCURVE",
"877 -254 OFFCURVE",
"944 -254 CURVE SMOOTH",
"995 -254 OFFCURVE",
"1046 -244 OFFCURVE",
"1099 -223 CURVE",
"1099 -379 LINE",
"1027 -394 OFFCURVE",
"964 -401 OFFCURVE",
"909 -401 CURVE SMOOTH",
"757 -401 OFFCURVE",
"671 -338 OFFCURVE",
"671 -223 CURVE SMOOTH",
"671 -152 OFFCURVE",
"707 -81 OFFCURVE",
"782 0 CURVE"
);
},
{
closed = 1;
nodes = (
"1098 0 LINE",
"168 0 LINE",
"168 1493 LINE",
"1098 1493 LINE",
"1098 1233 LINE",
"463 1233 LINE",
"463 911 LINE",
"1038 911 LINE",
"1038 651 LINE",
"463 651 LINE",
"463 260 LINE",
"1098 260 LINE"
);
}
);
width = 1233;
}
);
note = Eogonek;
unicode = 0118;
},
{
glyphname = F;
layers = (
{
layerId = "40F0FF51-D1E9-4DBD-A50F-345F6327BC10";
name = Bold;
paths = (
{
closed = 1;
nodes = (
"1112 1233 LINE",
"1112 1493 LINE",
"182 1493 LINE",
"182 0 LINE",
"477 0 LINE",
"477 641 LINE",
"1055 641 LINE",
"1055 901 LINE",
"477 901 LINE",
"477 1233 LINE"
);
}
);
width = 1233;
}
);
note = "\012\011F\012  ";
unicode = 0046;
},
{
glyphname = G;
layers = (
{
layerId = "40F0FF51-D1E9-4DBD-A50F-345F6327BC10";
name = Bold;
paths = (
{
closed = 1;
nodes = (
"872 270 LINE",
"857 259 OFFCURVE",
"846 252 OFFCURVE",
"817 245 CURVE SMOOTH",
"794 239 OFFCURVE",
"765 236 OFFCURVE",
"738 236 CURVE SMOOTH",
"630 236 OFFCURVE",
"554 283 OFFCURVE",
"504 365 CURVE SMOOTH",
"451 452 OFFCURVE",
"424 582 OFFCURVE",
"424 747 CURVE SMOOTH",
"424 916 OFFCURVE",
"452 1044 OFFCURVE",
"507 1129 CURVE SMOOTH",
"562 1213 OFFCURVE",
"646 1255 OFFCURVE",
"759 1255 CURVE SMOOTH",
"822 1255 OFFCURVE",
"881 1242 OFFCURVE",
"935 1215 CURVE SMOOTH",
"988 1188 OFFCURVE",
"1036 1147 OFFCURVE",
"1077 1094 CURVE",
"1077 1421 LINE",
"1026 1453 OFFCURVE",
"972 1478 OFFCURVE",
"914 1495 CURVE SMOOTH",
"856 1512 OFFCURVE",
"800 1520 OFFCURVE",
"732 1520 CURVE SMOOTH",
"536 1520 OFFCURVE",
"383 1453 OFFCURVE",
"277 1321 CURVE SMOOTH",
"170 1188 OFFCURVE",
"117 994 OFFCURVE",
"117 747 CURVE SMOOTH",
"117 489 OFFCURVE",
"175 299 OFFCURVE",
"275 172 CURVE SMOOTH",
"379 40 OFFCURVE",
"530 -29 OFFCURVE",
"720 -29 CURVE SMOOTH",
"803 -29 OFFCURVE",
"874 -16 OFFCURVE",
"943 9 CURVE SMOOTH",
"1011 34 OFFCURVE",
"1073 70 OFFCURVE",
"1130 119 CURVE",
"1130 803 LINE",
"670 803 LINE",
"670 555 LINE",
"872 555 LINE"
);
}
);
width = 1233;
}
);
note = "\012\011G\012  ";
unicode = 0047;
},
{
glyphname = Gbreve;
layers = (
{
layerId = "40F0FF51-D1E9-4DBD-A50F-345F6327BC10";
name = Bold;
paths = (
{
closed = 1;
nodes = (
"872 270 LINE",
"857 259 OFFCURVE",
"846 252 OFFCURVE",
"817 245 CURVE SMOOTH",
"794 239 OFFCURVE",
"765 236 OFFCURVE",
"738 236 CURVE SMOOTH",
"630 236 OFFCURVE",
"554 283 OFFCURVE",
"504 365 CURVE SMOOTH",
"451 452 OFFCURVE",
"424 582 OFFCURVE",
"424 747 CURVE SMOOTH",
"424 916 OFFCURVE",
"452 1044 OFFCURVE",
"507 1129 CURVE SMOOTH",
"562 1213 OFFCURVE",
"646 1255 OFFCURVE",
"759 1255 CURVE SMOOTH",
"822 1255 OFFCURVE",
"881 1242 OFFCURVE",
"935 1215 CURVE SMOOTH",
"988 1188 OFFCURVE",
"1036 1147 OFFCURVE",
"1077 1094 CURVE",
"1077 1421 LINE",
"1026 1453 OFFCURVE",
"972 1478 OFFCURVE",
"914 1495 CURVE SMOOTH",
"856 1512 OFFCURVE",
"800 1520 OFFCURVE",
"732 1520 CURVE SMOOTH",
"536 1520 OFFCURVE",
"383 1453 OFFCURVE",
"277 1321 CURVE SMOOTH",
"170 1188 OFFCURVE",
"117 994 OFFCURVE",
"117 747 CURVE SMOOTH",
"117 489 OFFCURVE",
"175 299 OFFCURVE",
"275 172 CURVE SMOOTH",
"379 40 OFFCURVE",
"530 -29 OFFCURVE",
"720 -29 CURVE SMOOTH",
"803 -29 OFFCURVE",
"874 -16 OFFCURVE",
"943 9 CURVE SMOOTH",
"1011 34 OFFCURVE",
"1073 70 OFFCURVE",
"1130 119 CURVE",
"1130 803 LINE",
"670 803 LINE",
"670 555 LINE",
"872 555 LINE"
);
},
{
closed = 1;
nodes = (
"281 1899 LINE",
"292 1807 OFFCURVE",
"328 1746 OFFCURVE",
"383 1703 CURVE SMOOTH",
"440 1658 OFFCURVE",
"518 1635 OFFCURVE",
"616 1635 CURVE SMOOTH",
"710 1635 OFFCURVE",
"791 1656 OFFCURVE",
"851 1703 CURVE SMOOTH",
"908 1748 OFFCURVE",
"942 1813 OFFCURVE",
"952 1899 CURVE",
"809 1899 LINE",
"796 1858 OFFCURVE",
"773 1828 OFFCURVE",
"741 1808 CURVE SMOOTH",
"709 1788 OFFCURVE",
"667 1778 OFFCURVE",
"616 1778 CURVE SMOOTH",
"565 1778 OFFCURVE",
"524 1788 OFFCURVE",
"491 1809 CURVE SMOOTH",
"457 1830 OFFCURVE",
"435 1859 OFFCURVE",
"422 1899 CURVE"
);
}
);
width = 1233;
}
);
note = "\012\011Gbreve\012  ";
unicode = 011E;
},
{
glyphname = Gcaron;
lastChange = "2015-07-18 21:26:21 +0000";
layers = (
{
layerId = "40F0FF51-D1E9-4DBD-A50F-345F6327BC10";
name = Bold;
paths = (
{
closed = 1;
nodes = (
"582 1635 LINE",
"361 1899 LINE",
"539 1899 LINE",
"737 1737 LINE",
"936 1899 LINE",
"1114 1899 LINE",
"891 1635 LINE"
);
},
{
closed = 1;
nodes = (
"872 555 LINE",
"670 555 LINE",
"670 803 LINE",
"1130 803 LINE",
"1130 119 LINE",
"1017 22 OFFCURVE",
"879 -29 OFFCURVE",
"723 -29 CURVE SMOOTH",
"336 -29 OFFCURVE",
"117 250 OFFCURVE",
"117 745 CURVE SMOOTH",
"117 1248 OFFCURVE",
"336 1520 OFFCURVE",
"737 1520 CURVE SMOOTH",
"857 1520 OFFCURVE",
"976 1485 OFFCURVE",
"1077 1421 CURVE",
"1077 1094 LINE",
"994 1201 OFFCURVE",
"886 1255 OFFCURVE",
"758 1255 CURVE SMOOTH",
"534 1255 OFFCURVE",
"424 1088 OFFCURVE",
"424 745 CURVE SMOOTH",
"424 413 OFFCURVE",
"533 236 OFFCURVE",
"737 236 CURVE SMOOTH",
"798 236 OFFCURVE",
"844 247 OFFCURVE",
"872 270 CURVE"
);
}
);
width = 1233;
}
);
note = Gcaron;
unicode = 01E6;
},
{
glyphname = Gcommaaccent;
lastChange = "2015-07-18 21:08:01 +0000";
layers = (
{
layerId = "40F0FF51-D1E9-4DBD-A50F-345F6327BC10";
name = Bold;
paths = (
{
closed = 1;
nodes = (
"627 -187 LINE",
"909 -187 LINE",
"732 -493 LINE",
"538 -493 LINE"
);
},
{
closed = 1;
nodes = (
"872 555 LINE",
"670 555 LINE",
"670 803 LINE",
"1130 803 LINE",
"1130 119 LINE",
"1017 22 OFFCURVE",
"879 -29 OFFCURVE",
"723 -29 CURVE SMOOTH",
"336 -29 OFFCURVE",
"117 250 OFFCURVE",
"117 745 CURVE SMOOTH",
"117 1248 OFFCURVE",
"336 1520 OFFCURVE",
"737 1520 CURVE SMOOTH",
"857 1520 OFFCURVE",
"976 1485 OFFCURVE",
"1077 1421 CURVE",
"1077 1094 LINE",
"994 1201 OFFCURVE",
"886 1255 OFFCURVE",
"758 1255 CURVE SMOOTH",
"534 1255 OFFCURVE",
"424 1088 OFFCURVE",
"424 745 CURVE SMOOTH",
"424 413 OFFCURVE",
"533 236 OFFCURVE",
"737 236 CURVE SMOOTH",
"798 236 OFFCURVE",
"844 247 OFFCURVE",
"872 270 CURVE"
);
}
);
width = 1233;
}
);
note = Gcommaaccent;
unicode = 0122;
},
{
glyphname = Gdotaccent;
lastChange = "2015-07-18 22:06:03 +0000";
layers = (
{
layerId = "40F0FF51-D1E9-4DBD-A50F-345F6327BC10";
name = Bold;
paths = (
{
closed = 1;
nodes = (
"872 525 LINE SMOOTH",
"872 544 OFFCURVE",
"861 555 OFFCURVE",
"842 555 CURVE SMOOTH",
"670 555 LINE",
"670 803 LINE",
"1130 803 LINE",
"1130 119 LINE",
"1017 22 OFFCURVE",
"879 -29 OFFCURVE",
"723 -29 CURVE SMOOTH",
"336 -29 OFFCURVE",
"117 250 OFFCURVE",
"117 745 CURVE SMOOTH",
"117 1248 OFFCURVE",
"336 1520 OFFCURVE",
"737 1520 CURVE SMOOTH",
"857 1520 OFFCURVE",
"976 1485 OFFCURVE",
"1077 1421 CURVE",
"1077 1094 LINE",
"994 1201 OFFCURVE",
"886 1255 OFFCURVE",
"758 1255 CURVE SMOOTH",
"534 1255 OFFCURVE",
"424 1088 OFFCURVE",
"424 745 CURVE SMOOTH",
"424 413 OFFCURVE",
"533 236 OFFCURVE",
"737 236 CURVE SMOOTH",
"786 236 OFFCURVE",
"825 243 OFFCURVE",
"853 258 CURVE SMOOTH",
"867 265 OFFCURVE",
"872 277 OFFCURVE",
"872 293 CURVE SMOOTH"
);
},
{
closed = 1;
nodes = (
"529 1868 LINE SMOOTH",
"529 1885 OFFCURVE",
"543 1899 OFFCURVE",
"560 1899 CURVE SMOOTH",
"773 1899 LINE SMOOTH",
"790 1899 OFFCURVE",
"804 1885 OFFCURVE",
"804 1868 CURVE SMOOTH",
"804 1684 LINE SMOOTH",
"804 1667 OFFCURVE",
"790 1653 OFFCURVE",
"773 1653 CURVE SMOOTH",
"560 1653 LINE SMOOTH",
"543 1653 OFFCURVE",
"529 1667 OFFCURVE",
"529 1684 CURVE SMOOTH"
);
}
);
width = 1233;
}
);
note = Gdotaccent;
unicode = 0120;
},
{
glyphname = H;
layers = (
{
layerId = "40F0FF51-D1E9-4DBD-A50F-345F6327BC10";
name = Bold;
paths = (
{
closed = 1;
nodes = (
"137 1493 LINE",
"137 0 LINE",
"432 0 LINE",
"432 664 LINE",
"801 664 LINE",
"801 0 LINE",
"1096 0 LINE",
"1096 1493 LINE",
"801 1493 LINE",
"801 924 LINE",
"432 924 LINE",
"432 1493 LINE"
);
}
);
width = 1233;
}
);
note = "\012\011H\012  ";
unicode = 0048;
},
{
glyphname = Hbar;
lastChange = "2015-07-18 21:18:34 +0000";
layers = (
{
layerId = "40F0FF51-D1E9-4DBD-A50F-345F6327BC10";
name = Bold;
paths = (
{
closed = 1;
nodes = (
"137 1493 LINE",
"432 1493 LINE",
"432 1269 LINE",
"801 1269 LINE",
"801 1493 LINE",
"1095 1493 LINE",
"1095 1269 LINE",
"1230 1269 LINE",
"1230 1105 LINE",
"1095 1105 LINE",
"1095 0 LINE",
"801 0 LINE",
"801 664 LINE",
"432 664 LINE",
"432 0 LINE",
"137 0 LINE",
"137 1105 LINE",
"3 1105 LINE",
"3 1269 LINE",
"137 1269 LINE"
);
},
{
closed = 1;
nodes = (
"432 1105 LINE",
"432 924 LINE",
"801 924 LINE",
"801 1105 LINE"
);
}
);
width = 1233;
}
);
note = Hbar;
unicode = 0126;
},
{
glyphname = I;
layers = (
{
layerId = "40F0FF51-D1E9-4DBD-A50F-345F6327BC10";
name = Bold;
paths = (
{
closed = 1;
nodes = (
"172 1233 LINE",
"469 1233 LINE",
"469 260 LINE",
"172 260 LINE",
"172 0 LINE",
"1061 0 LINE",
"1061 260 LINE",
"764 260 LINE",
"764 1233 LINE",
"1061 1233 LINE",
"1061 1493 LINE",
"172 1493 LINE"
);
}
);
width = 1233;
}
);
note = "\012\011I\012  ";
unicode = 0049;
},
{
glyphname = Iacute;
layers = (
{
layerId = "40F0FF51-D1E9-4DBD-A50F-345F6327BC10";
name = Bold;
paths = (
{
closed = 1;
nodes = (
"172 1233 LINE",
"469 1233 LINE",
"469 260 LINE",
"172 260 LINE",
"172 0 LINE",
"1061 0 LINE",
"1061 260 LINE",
"764 260 LINE",
"764 1233 LINE",
"1061 1233 LINE",
"1061 1493 LINE",
"172 1493 LINE"
);
},
{
closed = 1;
nodes = (
"668 1899 LINE",
"469 1635 LINE",
"666 1635 LINE",
"952 1899 LINE"
);
}
);
width = 1233;
}
);
note = "\012\011Iacute\012  ";
unicode = 00CD;
},
{
glyphname = Icircumflex;
layers = (
{
layerId = "40F0FF51-D1E9-4DBD-A50F-345F6327BC10";
name = Bold;
paths = (
{
closed = 1;
nodes = (
"172 1233 LINE",
"469 1233 LINE",
"469 260 LINE",
"172 260 LINE",
"172 0 LINE",
"1061 0 LINE",
"1061 260 LINE",
"764 260 LINE",
"764 1233 LINE",
"1061 1233 LINE",
"1061 1493 LINE",
"172 1493 LINE"
);
},
{
closed = 1;
nodes = (
"461 1899 LINE",
"240 1635 LINE",
"418 1635 LINE",
"616 1796 LINE",
"815 1635 LINE",
"993 1635 LINE",
"770 1899 LINE"
);
}
);
width = 1233;
}
);
note = "\012\011Icircumflex\012  ";
unicode = 00CE;
},
{
glyphname = Idieresis;
layers = (
{
layerId = "40F0FF51-D1E9-4DBD-A50F-345F6327BC10";
name = Bold;
paths = (
{
closed = 1;
nodes = (
"172 1233 LINE",
"469 1233 LINE",
"469 260 LINE",
"172 260 LINE",
"172 0 LINE",
"1061 0 LINE",
"1061 260 LINE",
"764 260 LINE",
"764 1233 LINE",
"1061 1233 LINE",
"1061 1493 LINE",
"172 1493 LINE"
);
},
{
closed = 1;
nodes = (
"726 1899 LINE SMOOTH",
"707 1899 OFFCURVE",
"696 1888 OFFCURVE",
"696 1869 CURVE SMOOTH",
"696 1683 LINE SMOOTH",
"696 1664 OFFCURVE",
"707 1653 OFFCURVE",
"726 1653 CURVE SMOOTH",
"902 1653 LINE SMOOTH",
"921 1653 OFFCURVE",
"932 1664 OFFCURVE",
"932 1683 CURVE SMOOTH",
"932 1869 LINE SMOOTH",
"932 1888 OFFCURVE",
"921 1899 OFFCURVE",
"902 1899 CURVE SMOOTH"
);
},
{
closed = 1;
nodes = (
"331 1899 LINE SMOOTH",
"312 1899 OFFCURVE",
"301 1888 OFFCURVE",
"301 1869 CURVE SMOOTH",
"301 1683 LINE SMOOTH",
"301 1664 OFFCURVE",
"312 1653 OFFCURVE",
"331 1653 CURVE SMOOTH",
"507 1653 LINE SMOOTH",
"526 1653 OFFCURVE",
"537 1664 OFFCURVE",
"537 1683 CURVE SMOOTH",
"537 1869 LINE SMOOTH",
"537 1888 OFFCURVE",
"526 1899 OFFCURVE",
"507 1899 CURVE SMOOTH"
);
}
);
width = 1233;
}
);
note = "\012\011Idieresis\012  ";
unicode = 00CF;
},
{
glyphname = Idotaccent;
layers = (
{
layerId = "40F0FF51-D1E9-4DBD-A50F-345F6327BC10";
name = Bold;
paths = (
{
closed = 1;
nodes = (
"172 1233 LINE",
"469 1233 LINE",
"469 260 LINE",
"172 260 LINE",
"172 0 LINE",
"1061 0 LINE",
"1061 260 LINE",
"764 260 LINE",
"764 1233 LINE",
"1061 1233 LINE",
"1061 1493 LINE",
"172 1493 LINE"
);
},
{
closed = 1;
nodes = (
"509 1899 LINE SMOOTH",
"490 1899 OFFCURVE",
"479 1888 OFFCURVE",
"479 1869 CURVE SMOOTH",
"479 1683 LINE SMOOTH",
"479 1664 OFFCURVE",
"490 1653 OFFCURVE",
"509 1653 CURVE SMOOTH",
"724 1653 LINE SMOOTH",
"743 1653 OFFCURVE",
"754 1664 OFFCURVE",
"754 1683 CURVE SMOOTH",
"754 1869 LINE SMOOTH",
"754 1888 OFFCURVE",
"743 1899 OFFCURVE",
"724 1899 CURVE SMOOTH"
);
}
);
width = 1233;
}
);
note = "\012\011Idotaccent\012  ";
unicode = 0130;
},
{
glyphname = Igrave;
layers = (
{
layerId = "40F0FF51-D1E9-4DBD-A50F-345F6327BC10";
name = Bold;
paths = (
{
closed = 1;
nodes = (
"172 1233 LINE",
"469 1233 LINE",
"469 260 LINE",
"172 260 LINE",
"172 0 LINE",
"1061 0 LINE",
"1061 260 LINE",
"764 260 LINE",
"764 1233 LINE",
"1061 1233 LINE",
"1061 1493 LINE",
"172 1493 LINE"
);
},
{
closed = 1;
nodes = (
"567 1899 LINE",
"283 1899 LINE",
"569 1635 LINE",
"766 1635 LINE"
);
}
);
width = 1233;
}
);
note = "\012\011Igrave\012  ";
unicode = 00CC;
},
{
glyphname = Imacron;
lastChange = "2015-07-18 21:08:01 +0000";
layers = (
{
layerId = "40F0FF51-D1E9-4DBD-A50F-345F6327BC10";
name = Bold;
paths = (
{
closed = 1;
nodes = (
"301 1870 LINE",
"932 1870 LINE",
"932 1682 LINE",
"301 1682 LINE"
);
},
{
closed = 1;
nodes = (
"172 1233 LINE",
"172 1493 LINE",
"1061 1493 LINE",
"1061 1233 LINE",
"764 1233 LINE",
"764 260 LINE",
"1061 260 LINE",
"1061 0 LINE",
"172 0 LINE",
"172 260 LINE",
"469 260 LINE",
"469 1233 LINE"
);
}
);
width = 1233;
}
);
note = Imacron;
unicode = 012A;
},
{
glyphname = Iogonek;
lastChange = "2015-07-18 21:08:01 +0000";
layers = (
{
layerId = "40F0FF51-D1E9-4DBD-A50F-345F6327BC10";
name = Bold;
paths = (
{
closed = 1;
nodes = (
"172 1233 LINE",
"172 1493 LINE",
"1061 1493 LINE",
"1061 1233 LINE",
"764 1233 LINE",
"764 260 LINE",
"1061 260 LINE",
"1061 0 LINE",
"172 0 LINE",
"172 260 LINE",
"469 260 LINE",
"469 1233 LINE"
);
},
{
closed = 1;
nodes = (
"764 0 LINE",
"729 -47 OFFCURVE",
"705 -83 OFFCURVE",
"693 -106 CURVE SMOOTH",
"680 -129 OFFCURVE",
"674 -149 OFFCURVE",
"674 -166 CURVE SMOOTH",
"674 -218 OFFCURVE",
"718 -254 OFFCURVE",
"785 -254 CURVE SMOOTH",
"836 -254 OFFCURVE",
"887 -244 OFFCURVE",
"940 -223 CURVE",
"940 -379 LINE",
"868 -394 OFFCURVE",
"805 -401 OFFCURVE",
"750 -401 CURVE SMOOTH",
"598 -401 OFFCURVE",
"512 -338 OFFCURVE",
"512 -223 CURVE SMOOTH",
"512 -152 OFFCURVE",
"548 -81 OFFCURVE",
"623 0 CURVE"
);
}
);
width = 1233;
}
);
note = Iogonek;
unicode = 012E;
},
{
glyphname = Itilde;
lastChange = "2015-07-18 21:20:30 +0000";
layers = (
{
layerId = "40F0FF51-D1E9-4DBD-A50F-345F6327BC10";
name = Bold;
paths = (
{
closed = 1;
nodes = (
"564 1718 LINE SMOOTH",
"561 1720 OFFCURVE",
"557 1722 OFFCURVE",
"552 1725 CURVE SMOOTH",
"522 1742 OFFCURVE",
"498 1751 OFFCURVE",
"479 1751 CURVE SMOOTH",
"438 1751 OFFCURVE",
"408 1708 OFFCURVE",
"408 1641 CURVE SMOOTH",
"408 1635 LINE",
"268 1635 LINE",
"268 1665 LINE SMOOTH",
"268 1806 OFFCURVE",
"348 1901 OFFCURVE",
"465 1901 CURVE SMOOTH",
"513 1901 OFFCURVE",
"563 1884 OFFCURVE",
"614 1852 CURVE SMOOTH",
"674 1813 LINE SMOOTH",
"702 1794 OFFCURVE",
"729 1784 OFFCURVE",
"750 1784 CURVE SMOOTH",
"798 1784 OFFCURVE",
"825 1825 OFFCURVE",
"825 1901 CURVE",
"965 1901 LINE",
"965 1898 OFFCURVE",
"965 1893 OFFCURVE",
"964 1886 CURVE SMOOTH",
"963 1879 OFFCURVE",
"963 1874 OFFCURVE",
"963 1870 CURVE SMOOTH",
"963 1729 OFFCURVE",
"885 1635 OFFCURVE",
"768 1635 CURVE SMOOTH",
"719 1635 OFFCURVE",
"674 1648 OFFCURVE",
"618 1684 CURVE SMOOTH"
);
},
{
closed = 1;
nodes = (
"172 1233 LINE",
"172 1493 LINE",
"1061 1493 LINE",
"1061 1233 LINE",
"764 1233 LINE",
"764 260 LINE",
"1061 260 LINE",
"1061 0 LINE",
"172 0 LINE",
"172 260 LINE",
"469 260 LINE",
"469 1233 LINE"
);
}
);
width = 1233;
}
);
note = Itilde;
unicode = 0128;
},
{
glyphname = J;
layers = (
{
layerId = "40F0FF51-D1E9-4DBD-A50F-345F6327BC10";
name = Bold;
paths = (
{
closed = 1;
nodes = (
"109 74 LINE",
"183 38 OFFCURVE",
"250 14 OFFCURVE",
"318 -3 CURVE SMOOTH",
"387 -20 OFFCURVE",
"447 -29 OFFCURVE",
"524 -29 CURVE SMOOTH",
"685 -29 OFFCURVE",
"817 10 OFFCURVE",
"894 89 CURVE SMOOTH",
"970 167 OFFCURVE",
"1008 297 OFFCURVE",
"1008 479 CURVE SMOOTH",
"1008 1493 LINE",
"352 1493 LINE",
"352 1233 LINE",
"713 1233 LINE",
"713 479 LINE SMOOTH",
"713 394 OFFCURVE",
"695 333 OFFCURVE",
"659 294 CURVE SMOOTH",
"623 255 OFFCURVE",
"566 236 OFFCURVE",
"490 236 CURVE SMOOTH",
"423 236 OFFCURVE",
"358 251 OFFCURVE",
"293 282 CURVE SMOOTH",
"228 313 OFFCURVE",
"166 357 OFFCURVE",
"109 416 CURVE"
);
}
);
width = 1233;
}
);
note = "\012\011J\012  ";
unicode = 004A;
},
{
glyphname = K;
layers = (
{
layerId = "40F0FF51-D1E9-4DBD-A50F-345F6327BC10";
name = Bold;
paths = (
{
closed = 1;
nodes = (
"117 1493 LINE",
"117 0 LINE",
"412 0 LINE",
"412 506 LINE",
"543 672 LINE",
"897 0 LINE",
"1225 0 LINE",
"737 905 LINE",
"1208 1493 LINE",
"874 1493 LINE",
"412 903 LINE",
"412 1493 LINE"
);
}
);
width = 1233;
}
);
note = "\012\011K\012  ";
unicode = 004B;
},
{
glyphname = Kcommaaccent;
lastChange = "2015-07-18 21:08:01 +0000";
layers = (
{
layerId = "40F0FF51-D1E9-4DBD-A50F-345F6327BC10";
name = Bold;
paths = (
{
closed = 1;
nodes = (
"575 -158 LINE",
"857 -158 LINE",
"680 -464 LINE",
"486 -464 LINE"
);
},
{
closed = 1;
nodes = (
"117 1493 LINE",
"412 1493 LINE",
"412 903 LINE",
"874 1493 LINE",
"1208 1493 LINE",
"737 905 LINE",
"1225 0 LINE",
"897 0 LINE",
"543 672 LINE",
"412 506 LINE",
"412 0 LINE",
"117 0 LINE"
);
}
);
width = 1233;
}
);
note = Kcommaaccent;
unicode = 0136;
},
{
glyphname = L;
layers = (
{
layerId = "40F0FF51-D1E9-4DBD-A50F-345F6327BC10";
name = Bold;
paths = (
{
closed = 1;
nodes = (
"225 0 LINE",
"1151 0 LINE",
"1151 260 LINE",
"520 260 LINE",
"520 1493 LINE",
"225 1493 LINE"
);
}
);
width = 1233;
}
);
note = "\012\011L\012  ";
unicode = 004C;
},
{
glyphname = Lacute;
lastChange = "2015-07-18 21:08:01 +0000";
layers = (
{
layerId = "40F0FF51-D1E9-4DBD-A50F-345F6327BC10";
name = Bold;
paths = (
{
closed = 1;
nodes = (
"669 1900 LINE",
"953 1900 LINE",
"667 1636 LINE",
"470 1636 LINE"
);
},
{
closed = 1;
nodes = (
"225 0 LINE",
"225 1493 LINE",
"520 1493 LINE",
"520 260 LINE",
"1151 260 LINE",
"1151 0 LINE"
);
}
);
width = 1233;
}
);
note = Lacute;
unicode = 0139;
},
{
glyphname = Lcaron;
lastChange = "2015-07-18 21:08:01 +0000";
layers = (
{
layerId = "40F0FF51-D1E9-4DBD-A50F-345F6327BC10";
name = Bold;
paths = (
{
closed = 1;
nodes = (
"869 1493 LINE",
"1151 1493 LINE",
"990 1117 LINE",
"793 1117 LINE"
);
},
{
closed = 1;
nodes = (
"225 0 LINE",
"225 1493 LINE",
"520 1493 LINE",
"520 260 LINE",
"1151 260 LINE",
"1151 0 LINE"
);
}
);
width = 1233;
}
);
note = Lcaron;
unicode = 013D;
},
{
glyphname = Lcommaaccent;
lastChange = "2015-07-18 21:08:01 +0000";
layers = (
{
layerId = "40F0FF51-D1E9-4DBD-A50F-345F6327BC10";
name = Bold;
paths = (
{
closed = 1;
nodes = (
"591 -158 LINE",
"873 -158 LINE",
"696 -464 LINE",
"502 -464 LINE"
);
},
{
closed = 1;
nodes = (
"225 0 LINE",
"225 1493 LINE",
"520 1493 LINE",
"520 260 LINE",
"1151 260 LINE",
"1151 0 LINE"
);
}
);
width = 1233;
}
);
note = Lcommaaccent;
unicode = 013B;
},
{
glyphname = Lslash;
layers = (
{
layerId = "40F0FF51-D1E9-4DBD-A50F-345F6327BC10";
name = Bold;
paths = (
{
closed = 1;
nodes = (
"225 0 LINE",
"1151 0 LINE",
"1151 260 LINE",
"520 260 LINE",
"520 741 LINE",
"907 1014 LINE",
"795 1167 LINE",
"520 973 LINE",
"520 1493 LINE",
"225 1493 LINE",
"225 768 LINE",
"-39 580 LINE",
"74 426 LINE",
"225 537 LINE"
);
}
);
width = 1233;
}
);
note = "\012\011Lslash\012  ";
unicode = 0141;
},
{
glyphname = M;
layers = (
{
layerId = "40F0FF51-D1E9-4DBD-A50F-345F6327BC10";
name = Bold;
paths = (
{
closed = 1;
nodes = (
"86 1493 LINE",
"86 0 LINE",
"340 0 LINE",
"340 1196 LINE",
"500 543 LINE",
"735 543 LINE",
"893 1196 LINE",
"893 0 LINE",
"1147 0 LINE",
"1147 1493 LINE",
"793 1493 LINE",
"616 838 LINE",
"438 1493 LINE"
);
}
);
width = 1233;
}
);
note = "\012\011M\012  ";
unicode = 004D;
},
{
glyphname = N;
layers = (
{
layerId = "40F0FF51-D1E9-4DBD-A50F-345F6327BC10";
name = Bold;
paths = (
{
closed = 1;
nodes = (
"119 1493 LINE",
"119 0 LINE",
"379 0 LINE",
"379 1085 LINE",
"797 0 LINE",
"1112 0 LINE",
"1112 1493 LINE",
"852 1493 LINE",
"852 408 LINE",
"436 1493 LINE"
);
}
);
width = 1233;
}
);
note = "\012\011N\012  ";
unicode = 004E;
},
{
glyphname = Nacute;
lastChange = "2015-07-18 21:08:01 +0000";
layers = (
{
layerId = "40F0FF51-D1E9-4DBD-A50F-345F6327BC10";
name = Bold;
paths = (
{
closed = 1;
nodes = (
"699 1900 LINE",
"983 1900 LINE",
"697 1636 LINE",
"500 1636 LINE"
);
},
{
closed = 1;
nodes = (
"119 1493 LINE",
"436 1493 LINE",
"852 408 LINE",
"852 1493 LINE",
"1112 1493 LINE",
"1112 0 LINE",
"797 0 LINE",
"379 1085 LINE",
"379 0 LINE",
"119 0 LINE"
);
}
);
width = 1233;
}
);
note = Nacute;
unicode = 0143;
},
{
glyphname = Ncaron;
lastChange = "2015-07-18 21:08:01 +0000";
layers = (
{
layerId = "40F0FF51-D1E9-4DBD-A50F-345F6327BC10";
name = Bold;
paths = (
{
closed = 1;
nodes = (
"119 1493 LINE",
"436 1493 LINE",
"852 408 LINE",
"852 1493 LINE",
"1112 1493 LINE",
"1112 0 LINE",
"797 0 LINE",
"379 1085 LINE",
"379 0 LINE",
"119 0 LINE"
);
},
{
closed = 1;
nodes = (
"502 1635 LINE",
"281 1899 LINE",
"459 1899 LINE",
"657 1737 LINE",
"856 1899 LINE",
"1034 1899 LINE",
"811 1635 LINE"
);
}
);
width = 1233;
}
);
note = Ncaron;
unicode = 0147;
},
{
glyphname = Ncommaaccent;
lastChange = "2015-07-18 21:08:01 +0000";
layers = (
{
layerId = "40F0FF51-D1E9-4DBD-A50F-345F6327BC10";
name = Bold;
paths = (
{
closed = 1;
nodes = (
"519 -158 LINE",
"801 -158 LINE",
"624 -464 LINE",
"430 -464 LINE"
);
},
{
closed = 1;
nodes = (
"119 1493 LINE",
"436 1493 LINE",
"852 408 LINE",
"852 1493 LINE",
"1112 1493 LINE",
"1112 0 LINE",
"797 0 LINE",
"379 1085 LINE",
"379 0 LINE",
"119 0 LINE"
);
}
);
width = 1233;
}
);
note = Ncommaaccent;
unicode = 0145;
},
{
glyphname = Eng;
lastChange = "2015-07-18 21:08:01 +0000";
layers = (
{
layerId = "40F0FF51-D1E9-4DBD-A50F-345F6327BC10";
name = Bold;
paths = (
{
closed = 1;
nodes = (
"1125 58 LINE SMOOTH",
"1125 -297 OFFCURVE",
"1010 -426 OFFCURVE",
"733 -426 CURVE SMOOTH",
"612 -426 LINE",
"612 -199 LINE",
"649 -199 LINE SMOOTH",
"782 -199 OFFCURVE",
"831 -133 OFFCURVE",
"831 44 CURVE SMOOTH",
"831 1015 LINE SMOOTH",
"831 1187 OFFCURVE",
"772 1255 OFFCURVE",
"631 1255 CURVE SMOOTH",
"486 1255 OFFCURVE",
"401 1145 OFFCURVE",
"401 972 CURVE SMOOTH",
"401 0 LINE",
"106 0 LINE",
"106 1493 LINE",
"401 1493 LINE",
"401 1253 LINE",
"450 1424 OFFCURVE",
"575 1522 OFFCURVE",
"743 1522 CURVE SMOOTH",
"995 1522 OFFCURVE",
"1125 1327 OFFCURVE",
"1125 942 CURVE SMOOTH"
);
}
);
width = 1233;
}
);
note = Eng;
unicode = 014A;
},
{
glyphname = Ntilde;
layers = (
{
layerId = "40F0FF51-D1E9-4DBD-A50F-345F6327BC10";
name = Bold;
paths = (
{
closed = 1;
nodes = (
"119 1493 LINE",
"119 0 LINE",
"379 0 LINE",
"379 1085 LINE",
"797 0 LINE",
"1112 0 LINE",
"1112 1493 LINE",
"852 1493 LINE",
"852 408 LINE",
"436 1493 LINE"
);
},
{
closed = 1;
nodes = (
"618 1684 LINE SMOOTH",
"646 1666 OFFCURVE",
"670 1654 OFFCURVE",
"696 1646 CURVE SMOOTH",
"719 1639 OFFCURVE",
"743 1635 OFFCURVE",
"768 1635 CURVE SMOOTH",
"822 1635 OFFCURVE",
"872 1654 OFFCURVE",
"910 1700 CURVE SMOOTH",
"945 1743 OFFCURVE",
"963 1799 OFFCURVE",
"963 1873 CURVE SMOOTH",
"963 1875 OFFCURVE",
"963 1879 OFFCURVE",
"964 1886 CURVE SMOOTH",
"965 1893 OFFCURVE",
"965 1898 OFFCURVE",
"965 1901 CURVE",
"825 1901 LINE",
"825 1863 OFFCURVE",
"819 1834 OFFCURVE",
"806 1814 CURVE SMOOTH",
"793 1794 OFFCURVE",
"773 1784 OFFCURVE",
"750 1784 CURVE SMOOTH",
"738 1784 OFFCURVE",
"728 1787 OFFCURVE",
"715 1792 CURVE SMOOTH",
"698 1799 OFFCURVE",
"688 1804 OFFCURVE",
"674 1813 CURVE SMOOTH",
"614 1852 LINE SMOOTH",
"591 1867 OFFCURVE",
"560 1882 OFFCURVE",
"539 1889 CURVE SMOOTH",
"514 1897 OFFCURVE",
"490 1901 OFFCURVE",
"466 1901 CURVE SMOOTH",
"412 1901 OFFCURVE",
"359 1880 OFFCURVE",
"322 1836 CURVE SMOOTH",
"289 1797 OFFCURVE",
"268 1738 OFFCURVE",
"268 1665 CURVE SMOOTH",
"268 1635 LINE",
"408 1635 LINE",
"408 1641 LINE SMOOTH",
"408 1674 OFFCURVE",
"415 1701 OFFCURVE",
"428 1721 CURVE SMOOTH",
"441 1741 OFFCURVE",
"458 1751 OFFCURVE",
"479 1751 CURVE SMOOTH",
"502 1751 OFFCURVE",
"524 1740 OFFCURVE",
"552 1725 CURVE SMOOTH",
"560 1720 OFFCURVE",
"554 1724 OFFCURVE",
"564 1718 CURVE SMOOTH"
);
}
);
width = 1233;
}
);
note = "\012\011Ntilde\012  ";
unicode = 00D1;
},
{
glyphname = O;
layers = (
{
layerId = "40F0FF51-D1E9-4DBD-A50F-345F6327BC10";
name = Bold;
paths = (
{
closed = 1;
nodes = (
"693 1255 OFFCURVE",
"747 1215 OFFCURVE",
"782 1134 CURVE SMOOTH",
"817 1054 OFFCURVE",
"834 926 OFFCURVE",
"834 746 CURVE SMOOTH",
"834 566 OFFCURVE",
"817 437 OFFCURVE",
"782 357 CURVE SMOOTH",
"747 276 OFFCURVE",
"692 236 OFFCURVE",
"616 236 CURVE SMOOTH",
"541 236 OFFCURVE",
"486 276 OFFCURVE",
"451 357 CURVE SMOOTH",
"416 437 OFFCURVE",
"399 566 OFFCURVE",
"399 746 CURVE SMOOTH",
"399 926 OFFCURVE",
"416 1054 OFFCURVE",
"451 1134 CURVE SMOOTH",
"485 1213 OFFCURVE",
"538 1255 OFFCURVE",
"616 1255 CURVE SMOOTH"
);
},
{
closed = 1;
nodes = (
"92 492 OFFCURVE",
"136 298 OFFCURVE",
"225 166 CURVE SMOOTH",
"309 42 OFFCURVE",
"437 -29 OFFCURVE",
"616 -29 CURVE SMOOTH",
"794 -29 OFFCURVE",
"924 41 OFFCURVE",
"1009 167 CURVE SMOOTH",
"1097 298 OFFCURVE",
"1141 490 OFFCURVE",
"1141 745 CURVE SMOOTH",
"1141 1000 OFFCURVE",
"1097 1193 OFFCURVE",
"1009 1324 CURVE SMOOTH",
"922 1453 OFFCURVE",
"790 1520 OFFCURVE",
"616 1520 CURVE SMOOTH",
"453 1520 OFFCURVE",
"317 1461 OFFCURVE",
"225 1325 CURVE SMOOTH",
"136 1193 OFFCURVE",
"92 998 OFFCURVE",
"92 745 CURVE SMOOTH"
);
}
);
width = 1233;
}
);
note = "\012\011O\012  ";
unicode = 004F;
},
{
glyphname = Oacute;
layers = (
{
layerId = "40F0FF51-D1E9-4DBD-A50F-345F6327BC10";
name = Bold;
paths = (
{
closed = 1;
nodes = (
"693 1255 OFFCURVE",
"747 1215 OFFCURVE",
"782 1134 CURVE SMOOTH",
"817 1054 OFFCURVE",
"834 926 OFFCURVE",
"834 746 CURVE SMOOTH",
"834 566 OFFCURVE",
"817 437 OFFCURVE",
"782 357 CURVE SMOOTH",
"747 276 OFFCURVE",
"692 236 OFFCURVE",
"616 236 CURVE SMOOTH",
"541 236 OFFCURVE",
"486 276 OFFCURVE",
"451 357 CURVE SMOOTH",
"416 437 OFFCURVE",
"399 566 OFFCURVE",
"399 746 CURVE SMOOTH",
"399 926 OFFCURVE",
"416 1054 OFFCURVE",
"451 1134 CURVE SMOOTH",
"485 1213 OFFCURVE",
"538 1255 OFFCURVE",
"616 1255 CURVE SMOOTH"
);
},
{
closed = 1;
nodes = (
"92 492 OFFCURVE",
"136 298 OFFCURVE",
"225 166 CURVE SMOOTH",
"309 42 OFFCURVE",
"437 -29 OFFCURVE",
"616 -29 CURVE SMOOTH",
"794 -29 OFFCURVE",
"924 41 OFFCURVE",
"1009 167 CURVE SMOOTH",
"1097 298 OFFCURVE",
"1141 490 OFFCURVE",
"1141 745 CURVE SMOOTH",
"1141 1000 OFFCURVE",
"1097 1193 OFFCURVE",
"1009 1324 CURVE SMOOTH",
"922 1453 OFFCURVE",
"790 1520 OFFCURVE",
"616 1520 CURVE SMOOTH",
"453 1520 OFFCURVE",
"317 1461 OFFCURVE",
"225 1325 CURVE SMOOTH",
"136 1193 OFFCURVE",
"92 998 OFFCURVE",
"92 745 CURVE SMOOTH"
);
},
{
closed = 1;
nodes = (
"668 1899 LINE",
"469 1635 LINE",
"666 1635 LINE",
"952 1899 LINE"
);
}
);
width = 1233;
}
);
note = "\012\011Oacute\012  ";
unicode = 00D3;
},
{
glyphname = Ocircumflex;
layers = (
{
layerId = "40F0FF51-D1E9-4DBD-A50F-345F6327BC10";
name = Bold;
paths = (
{
closed = 1;
nodes = (
"693 1255 OFFCURVE",
"747 1215 OFFCURVE",
"782 1134 CURVE SMOOTH",
"817 1054 OFFCURVE",
"834 926 OFFCURVE",
"834 746 CURVE SMOOTH",
"834 566 OFFCURVE",
"817 437 OFFCURVE",
"782 357 CURVE SMOOTH",
"747 276 OFFCURVE",
"692 236 OFFCURVE",
"616 236 CURVE SMOOTH",
"541 236 OFFCURVE",
"486 276 OFFCURVE",
"451 357 CURVE SMOOTH",
"416 437 OFFCURVE",
"399 566 OFFCURVE",
"399 746 CURVE SMOOTH",
"399 926 OFFCURVE",
"416 1054 OFFCURVE",
"451 1134 CURVE SMOOTH",
"485 1213 OFFCURVE",
"538 1255 OFFCURVE",
"616 1255 CURVE SMOOTH"
);
},
{
closed = 1;
nodes = (
"92 492 OFFCURVE",
"136 298 OFFCURVE",
"225 166 CURVE SMOOTH",
"309 42 OFFCURVE",
"437 -29 OFFCURVE",
"616 -29 CURVE SMOOTH",
"794 -29 OFFCURVE",
"924 41 OFFCURVE",
"1009 167 CURVE SMOOTH",
"1097 298 OFFCURVE",
"1141 490 OFFCURVE",
"1141 745 CURVE SMOOTH",
"1141 1000 OFFCURVE",
"1097 1193 OFFCURVE",
"1009 1324 CURVE SMOOTH",
"922 1453 OFFCURVE",
"790 1520 OFFCURVE",
"616 1520 CURVE SMOOTH",
"453 1520 OFFCURVE",
"317 1461 OFFCURVE",
"225 1325 CURVE SMOOTH",
"136 1193 OFFCURVE",
"92 998 OFFCURVE",
"92 745 CURVE SMOOTH"
);
},
{
closed = 1;
nodes = (
"461 1899 LINE",
"240 1635 LINE",
"418 1635 LINE",
"616 1796 LINE",
"815 1635 LINE",
"993 1635 LINE",
"770 1899 LINE"
);
}
);
width = 1233;
}
);
note = "\012\011Ocircumflex\012  ";
unicode = 00D4;
},
{
glyphname = Odieresis;
layers = (
{
layerId = "40F0FF51-D1E9-4DBD-A50F-345F6327BC10";
name = Bold;
paths = (
{
closed = 1;
nodes = (
"693 1255 OFFCURVE",
"747 1215 OFFCURVE",
"782 1134 CURVE SMOOTH",
"817 1054 OFFCURVE",
"834 926 OFFCURVE",
"834 746 CURVE SMOOTH",
"834 566 OFFCURVE",
"817 437 OFFCURVE",
"782 357 CURVE SMOOTH",
"747 276 OFFCURVE",
"692 236 OFFCURVE",
"616 236 CURVE SMOOTH",
"541 236 OFFCURVE",
"486 276 OFFCURVE",
"451 357 CURVE SMOOTH",
"416 437 OFFCURVE",
"399 566 OFFCURVE",
"399 746 CURVE SMOOTH",
"399 926 OFFCURVE",
"416 1054 OFFCURVE",
"451 1134 CURVE SMOOTH",
"485 1213 OFFCURVE",
"538 1255 OFFCURVE",
"616 1255 CURVE SMOOTH"
);
},
{
closed = 1;
nodes = (
"92 492 OFFCURVE",
"136 298 OFFCURVE",
"225 166 CURVE SMOOTH",
"309 42 OFFCURVE",
"437 -29 OFFCURVE",
"616 -29 CURVE SMOOTH",
"794 -29 OFFCURVE",
"924 41 OFFCURVE",
"1009 167 CURVE SMOOTH",
"1097 298 OFFCURVE",
"1141 490 OFFCURVE",
"1141 745 CURVE SMOOTH",
"1141 1000 OFFCURVE",
"1097 1193 OFFCURVE",
"1009 1324 CURVE SMOOTH",
"922 1453 OFFCURVE",
"790 1520 OFFCURVE",
"616 1520 CURVE SMOOTH",
"453 1520 OFFCURVE",
"317 1461 OFFCURVE",
"225 1325 CURVE SMOOTH",
"136 1193 OFFCURVE",
"92 998 OFFCURVE",
"92 745 CURVE SMOOTH"
);
},
{
closed = 1;
nodes = (
"726 1899 LINE SMOOTH",
"707 1899 OFFCURVE",
"696 1888 OFFCURVE",
"696 1869 CURVE SMOOTH",
"696 1683 LINE SMOOTH",
"696 1664 OFFCURVE",
"707 1653 OFFCURVE",
"726 1653 CURVE SMOOTH",
"902 1653 LINE SMOOTH",
"921 1653 OFFCURVE",
"932 1664 OFFCURVE",
"932 1683 CURVE SMOOTH",
"932 1869 LINE SMOOTH",
"932 1888 OFFCURVE",
"921 1899 OFFCURVE",
"902 1899 CURVE SMOOTH"
);
},
{
closed = 1;
nodes = (
"331 1899 LINE SMOOTH",
"312 1899 OFFCURVE",
"301 1888 OFFCURVE",
"301 1869 CURVE SMOOTH",
"301 1683 LINE SMOOTH",
"301 1664 OFFCURVE",
"312 1653 OFFCURVE",
"331 1653 CURVE SMOOTH",
"507 1653 LINE SMOOTH",
"526 1653 OFFCURVE",
"537 1664 OFFCURVE",
"537 1683 CURVE SMOOTH",
"537 1869 LINE SMOOTH",
"537 1888 OFFCURVE",
"526 1899 OFFCURVE",
"507 1899 CURVE SMOOTH"
);
}
);
width = 1233;
}
);
note = "\012\011Odieresis\012  ";
unicode = 00D6;
},
{
glyphname = Ograve;
layers = (
{
layerId = "40F0FF51-D1E9-4DBD-A50F-345F6327BC10";
name = Bold;
paths = (
{
closed = 1;
nodes = (
"693 1255 OFFCURVE",
"747 1215 OFFCURVE",
"782 1134 CURVE SMOOTH",
"817 1054 OFFCURVE",
"834 926 OFFCURVE",
"834 746 CURVE SMOOTH",
"834 566 OFFCURVE",
"817 437 OFFCURVE",
"782 357 CURVE SMOOTH",
"747 276 OFFCURVE",
"692 236 OFFCURVE",
"616 236 CURVE SMOOTH",
"541 236 OFFCURVE",
"486 276 OFFCURVE",
"451 357 CURVE SMOOTH",
"416 437 OFFCURVE",
"399 566 OFFCURVE",
"399 746 CURVE SMOOTH",
"399 926 OFFCURVE",
"416 1054 OFFCURVE",
"451 1134 CURVE SMOOTH",
"485 1213 OFFCURVE",
"538 1255 OFFCURVE",
"616 1255 CURVE SMOOTH"
);
},
{
closed = 1;
nodes = (
"92 492 OFFCURVE",
"136 298 OFFCURVE",
"225 166 CURVE SMOOTH",
"309 42 OFFCURVE",
"437 -29 OFFCURVE",
"616 -29 CURVE SMOOTH",
"794 -29 OFFCURVE",
"924 41 OFFCURVE",
"1009 167 CURVE SMOOTH",
"1097 298 OFFCURVE",
"1141 490 OFFCURVE",
"1141 745 CURVE SMOOTH",
"1141 1000 OFFCURVE",
"1097 1193 OFFCURVE",
"1009 1324 CURVE SMOOTH",
"922 1453 OFFCURVE",
"790 1520 OFFCURVE",
"616 1520 CURVE SMOOTH",
"453 1520 OFFCURVE",
"317 1461 OFFCURVE",
"225 1325 CURVE SMOOTH",
"136 1193 OFFCURVE",
"92 998 OFFCURVE",
"92 745 CURVE SMOOTH"
);
},
{
closed = 1;
nodes = (
"567 1899 LINE",
"283 1899 LINE",
"569 1635 LINE",
"766 1635 LINE"
);
}
);
width = 1233;
}
);
note = "\012\011Ograve\012  ";
unicode = 00D2;
},
{
glyphname = Ohorn;
lastChange = "2015-07-18 21:20:30 +0000";
layers = (
{
layerId = "40F0FF51-D1E9-4DBD-A50F-345F6327BC10";
name = Bold;
paths = (
{
closed = 1;
nodes = (
"828 1379 LINE",
"873 1346 OFFCURVE",
"907 1323 OFFCURVE",
"932 1310 CURVE SMOOTH",
"956 1297 OFFCURVE",
"977 1291 OFFCURVE",
"994 1291 CURVE SMOOTH",
"1046 1291 OFFCURVE",
"1082 1334 OFFCURVE",
"1082 1399 CURVE SMOOTH",
"1082 1451 OFFCURVE",
"1072 1502 OFFCURVE",
"1051 1555 CURVE",
"1207 1555 LINE",
"1222 1482 OFFCURVE",
"1229 1420 OFFCURVE",
"1229 1365 CURVE SMOOTH",
"1229 1212 OFFCURVE",
"1166 1127 OFFCURVE",
"1051 1127 CURVE SMOOTH",
"980 1127 OFFCURVE",
"909 1162 OFFCURVE",
"828 1238 CURVE"
);
},
{
closed = 1;
nodes = (
"453 1255 OFFCURVE",
"398 1215 OFFCURVE",
"363 1135 CURVE SMOOTH",
"328 1054 OFFCURVE",
"311 924 OFFCURVE",
"311 745 CURVE SMOOTH",
"311 566 OFFCURVE",
"328 437 OFFCURVE",
"363 357 CURVE SMOOTH",
"398 276 OFFCURVE",
"453 236 OFFCURVE",
"528 236 CURVE SMOOTH",
"604 236 OFFCURVE",
"659 276 OFFCURVE",
"694 357 CURVE SMOOTH",
"729 437 OFFCURVE",
"746 566 OFFCURVE",
"746 745 CURVE SMOOTH",
"746 924 OFFCURVE",
"729 1054 OFFCURVE",
"694 1135 CURVE SMOOTH",
"659 1215 OFFCURVE",
"604 1255 OFFCURVE",
"528 1255 CURVE SMOOTH"
);
},
{
closed = 1;
nodes = (
"4 1256 OFFCURVE",
"183 1520 OFFCURVE",
"528 1520 CURVE SMOOTH",
"875 1520 OFFCURVE",
"1053 1256 OFFCURVE",
"1053 745 CURVE SMOOTH",
"1053 236 OFFCURVE",
"875 -29 OFFCURVE",
"528 -29 CURVE SMOOTH",
"183 -29 OFFCURVE",
"4 236 OFFCURVE",
"4 745 CURVE SMOOTH"
);
}
);
width = 1233;
}
);
note = Ohorn;
unicode = 01A0;
},
{
glyphname = Ohungarumlaut;
lastChange = "2015-07-18 21:08:01 +0000";
layers = (
{
layerId = "40F0FF51-D1E9-4DBD-A50F-345F6327BC10";
name = Bold;
paths = (
{
closed = 1;
nodes = (
"541 1255 OFFCURVE",
"486 1215 OFFCURVE",
"451 1135 CURVE SMOOTH",
"416 1054 OFFCURVE",
"399 924 OFFCURVE",
"399 745 CURVE SMOOTH",
"399 566 OFFCURVE",
"416 437 OFFCURVE",
"451 357 CURVE SMOOTH",
"486 276 OFFCURVE",
"541 236 OFFCURVE",
"616 236 CURVE SMOOTH",
"692 236 OFFCURVE",
"747 276 OFFCURVE",
"782 357 CURVE SMOOTH",
"817 437 OFFCURVE",
"834 566 OFFCURVE",
"834 745 CURVE SMOOTH",
"834 924 OFFCURVE",
"817 1054 OFFCURVE",
"782 1135 CURVE SMOOTH",
"747 1215 OFFCURVE",
"692 1255 OFFCURVE",
"616 1255 CURVE SMOOTH"
);
},
{
closed = 1;
nodes = (
"92 1256 OFFCURVE",
"271 1520 OFFCURVE",
"616 1520 CURVE SMOOTH",
"963 1520 OFFCURVE",
"1141 1256 OFFCURVE",
"1141 745 CURVE SMOOTH",
"1141 236 OFFCURVE",
"963 -29 OFFCURVE",
"616 -29 CURVE SMOOTH",
"271 -29 OFFCURVE",
"92 236 OFFCURVE",
"92 745 CURVE SMOOTH"
);
},
{
closed = 1;
nodes = (
"838 1899 LINE",
"1122 1899 LINE",
"836 1635 LINE",
"639 1635 LINE"
);
},
{
closed = 1;
nodes = (
"463 1899 LINE",
"747 1899 LINE",
"461 1635 LINE",
"264 1635 LINE"
);
}
);
width = 1233;
}
);
note = Ohungarumlaut;
unicode = 0150;
},
{
glyphname = Omacron;
lastChange = "2015-07-18 21:08:01 +0000";
layers = (
{
layerId = "40F0FF51-D1E9-4DBD-A50F-345F6327BC10";
name = Bold;
paths = (
{
closed = 1;
nodes = (
"301 1870 LINE",
"932 1870 LINE",
"932 1682 LINE",
"301 1682 LINE"
);
},
{
closed = 1;
nodes = (
"541 1255 OFFCURVE",
"486 1215 OFFCURVE",
"451 1135 CURVE SMOOTH",
"416 1054 OFFCURVE",
"399 924 OFFCURVE",
"399 745 CURVE SMOOTH",
"399 566 OFFCURVE",
"416 437 OFFCURVE",
"451 357 CURVE SMOOTH",
"486 276 OFFCURVE",
"541 236 OFFCURVE",
"616 236 CURVE SMOOTH",
"692 236 OFFCURVE",
"747 276 OFFCURVE",
"782 357 CURVE SMOOTH",
"817 437 OFFCURVE",
"834 566 OFFCURVE",
"834 745 CURVE SMOOTH",
"834 924 OFFCURVE",
"817 1054 OFFCURVE",
"782 1135 CURVE SMOOTH",
"747 1215 OFFCURVE",
"692 1255 OFFCURVE",
"616 1255 CURVE SMOOTH"
);
},
{
closed = 1;
nodes = (
"92 1256 OFFCURVE",
"271 1520 OFFCURVE",
"616 1520 CURVE SMOOTH",
"963 1520 OFFCURVE",
"1141 1256 OFFCURVE",
"1141 745 CURVE SMOOTH",
"1141 236 OFFCURVE",
"963 -29 OFFCURVE",
"616 -29 CURVE SMOOTH",
"271 -29 OFFCURVE",
"92 236 OFFCURVE",
"92 745 CURVE SMOOTH"
);
}
);
width = 1233;
}
);
note = Omacron;
unicode = 014C;
},
{
glyphname = Oslash;
layers = (
{
layerId = "40F0FF51-D1E9-4DBD-A50F-345F6327BC10";
name = Bold;
paths = (
{
closed = 1;
nodes = (
"829 888 LINE",
"831 850 OFFCURVE",
"832 836 OFFCURVE",
"833 804 CURVE SMOOTH",
"834 783 OFFCURVE",
"834 764 OFFCURVE",
"834 762 CURVE SMOOTH",
"834 561 OFFCURVE",
"817 437 OFFCURVE",
"782 357 CURVE SMOOTH",
"748 279 OFFCURVE",
"694 236 OFFCURVE",
"617 236 CURVE SMOOTH",
"580 236 OFFCURVE",
"546 246 OFFCURVE",
"517 267 CURVE SMOOTH",
"491 286 OFFCURVE",
"466 317 OFFCURVE",
"451 354 CURVE"
);
},
{
closed = 1;
nodes = (
"399 629 LINE",
"399 756 LINE SMOOTH",
"399 929 OFFCURVE",
"417 1055 OFFCURVE",
"452 1135 CURVE SMOOTH",
"486 1213 OFFCURVE",
"539 1255 OFFCURVE",
"617 1255 CURVE SMOOTH",
"651 1255 OFFCURVE",
"681 1247 OFFCURVE",
"707 1230 CURVE SMOOTH",
"733 1213 OFFCURVE",
"755 1187 OFFCURVE",
"772 1153 CURVE"
);
},
{
closed = 1;
nodes = (
"-6 51 LINE",
"156 -63 LINE",
"276 104 LINE",
"322 57 OFFCURVE",
"369 27 OFFCURVE",
"425 5 CURVE SMOOTH",
"481 -17 OFFCURVE",
"540 -29 OFFCURVE",
"615 -29 CURVE SMOOTH",
"783 -29 OFFCURVE",
"918 32 OFFCURVE",
"1009 167 CURVE SMOOTH",
"1097 298 OFFCURVE",
"1141 490 OFFCURVE",
"1141 745 CURVE SMOOTH",
"1141 840 OFFCURVE",
"1135 928 OFFCURVE",
"1122 1008 CURVE SMOOTH",
"1109 1087 OFFCURVE",
"1089 1158 OFFCURVE",
"1063 1221 CURVE",
"1221 1444 LINE",
"1059 1559 LINE",
"946 1397 LINE",
"908 1435 OFFCURVE",
"860 1467 OFFCURVE",
"802 1489 CURVE SMOOTH",
"747 1510 OFFCURVE",
"685 1520 OFFCURVE",
"616 1520 CURVE SMOOTH",
"440 1520 OFFCURVE",
"313 1454 OFFCURVE",
"225 1324 CURVE SMOOTH",
"136 1193 OFFCURVE",
"92 1001 OFFCURVE",
"92 743 CURVE SMOOTH",
"92 640 OFFCURVE",
"99 563 OFFCURVE",
"110 491 CURVE SMOOTH",
"122 412 OFFCURVE",
"137 354 OFFCURVE",
"162 289 CURVE"
);
}
);
width = 1233;
}
);
note = "\012\011Oslash\012  ";
unicode = 00D8;
},
{
glyphname = Oslashacute;
lastChange = "2015-07-18 21:26:21 +0000";
layers = (
{
layerId = "40F0FF51-D1E9-4DBD-A50F-345F6327BC10";
name = Bold;
paths = (
{
closed = 1;
nodes = (
"451 354 LINE",
"483 278 OFFCURVE",
"541 236 OFFCURVE",
"616 236 CURVE SMOOTH",
"692 236 OFFCURVE",
"747 276 OFFCURVE",
"782 357 CURVE SMOOTH",
"817 437 OFFCURVE",
"834 566 OFFCURVE",
"834 745 CURVE SMOOTH",
"834 782 OFFCURVE",
"833 817 OFFCURVE",
"829 888 CURVE"
);
},
{
closed = 1;
nodes = (
"772 1153 LINE",
"737 1221 OFFCURVE",
"685 1255 OFFCURVE",
"616 1255 CURVE SMOOTH",
"541 1255 OFFCURVE",
"487 1215 OFFCURVE",
"452 1135 CURVE SMOOTH",
"417 1055 OFFCURVE",
"399 929 OFFCURVE",
"399 756 CURVE SMOOTH",
"399 629 LINE"
);
},
{
closed = 1;
nodes = (
"162 289 LINE",
"115 406 OFFCURVE",
"92 557 OFFCURVE",
"92 745 CURVE SMOOTH",
"92 1256 OFFCURVE",
"271 1520 OFFCURVE",
"616 1520 CURVE SMOOTH",
"753 1520 OFFCURVE",
"865 1478 OFFCURVE",
"946 1397 CURVE",
"1059 1559 LINE",
"1221 1444 LINE",
"1063 1221 LINE",
"1115 1096 OFFCURVE",
"1141 936 OFFCURVE",
"1141 745 CURVE SMOOTH",
"1141 236 OFFCURVE",
"963 -29 OFFCURVE",
"616 -29 CURVE SMOOTH",
"475 -29 OFFCURVE",
"361 16 OFFCURVE",
"276 104 CURVE",
"156 -63 LINE",
"-6 51 LINE"
);
},
{
closed = 1;
nodes = (
"668 1899 LINE",
"952 1899 LINE",
"666 1635 LINE",
"469 1635 LINE"
);
}
);
width = 1233;
}
);
note = Oslashacute;
unicode = 01FE;
},
{
glyphname = Otilde;
layers = (
{
layerId = "40F0FF51-D1E9-4DBD-A50F-345F6327BC10";
name = Bold;
paths = (
{
closed = 1;
nodes = (
"693 1255 OFFCURVE",
"747 1215 OFFCURVE",
"782 1134 CURVE SMOOTH",
"817 1054 OFFCURVE",
"834 926 OFFCURVE",
"834 746 CURVE SMOOTH",
"834 566 OFFCURVE",
"817 437 OFFCURVE",
"782 357 CURVE SMOOTH",
"747 276 OFFCURVE",
"692 236 OFFCURVE",
"616 236 CURVE SMOOTH",
"541 236 OFFCURVE",
"486 276 OFFCURVE",
"451 357 CURVE SMOOTH",
"416 437 OFFCURVE",
"399 566 OFFCURVE",
"399 746 CURVE SMOOTH",
"399 926 OFFCURVE",
"416 1054 OFFCURVE",
"451 1134 CURVE SMOOTH",
"485 1213 OFFCURVE",
"538 1255 OFFCURVE",
"616 1255 CURVE SMOOTH"
);
},
{
closed = 1;
nodes = (
"92 492 OFFCURVE",
"136 298 OFFCURVE",
"225 166 CURVE SMOOTH",
"309 42 OFFCURVE",
"437 -29 OFFCURVE",
"616 -29 CURVE SMOOTH",
"794 -29 OFFCURVE",
"924 41 OFFCURVE",
"1009 167 CURVE SMOOTH",
"1097 298 OFFCURVE",
"1141 490 OFFCURVE",
"1141 745 CURVE SMOOTH",
"1141 1000 OFFCURVE",
"1097 1193 OFFCURVE",
"1009 1324 CURVE SMOOTH",
"922 1453 OFFCURVE",
"790 1520 OFFCURVE",
"616 1520 CURVE SMOOTH",
"453 1520 OFFCURVE",
"317 1461 OFFCURVE",
"225 1325 CURVE SMOOTH",
"136 1193 OFFCURVE",
"92 998 OFFCURVE",
"92 745 CURVE SMOOTH"
);
},
{
closed = 1;
nodes = (
"618 1684 LINE SMOOTH",
"646 1666 OFFCURVE",
"670 1654 OFFCURVE",
"696 1646 CURVE SMOOTH",
"719 1639 OFFCURVE",
"743 1635 OFFCURVE",
"768 1635 CURVE SMOOTH",
"822 1635 OFFCURVE",
"872 1654 OFFCURVE",
"910 1700 CURVE SMOOTH",
"945 1743 OFFCURVE",
"963 1799 OFFCURVE",
"963 1873 CURVE SMOOTH",
"963 1875 OFFCURVE",
"963 1879 OFFCURVE",
"964 1886 CURVE SMOOTH",
"965 1893 OFFCURVE",
"965 1898 OFFCURVE",
"965 1901 CURVE",
"825 1901 LINE",
"825 1863 OFFCURVE",
"819 1834 OFFCURVE",
"806 1814 CURVE SMOOTH",
"793 1794 OFFCURVE",
"773 1784 OFFCURVE",
"750 1784 CURVE SMOOTH",
"738 1784 OFFCURVE",
"728 1787 OFFCURVE",
"715 1792 CURVE SMOOTH",
"698 1799 OFFCURVE",
"688 1804 OFFCURVE",
"674 1813 CURVE SMOOTH",
"614 1852 LINE SMOOTH",
"591 1867 OFFCURVE",
"560 1882 OFFCURVE",
"539 1889 CURVE SMOOTH",
"514 1897 OFFCURVE",
"490 1901 OFFCURVE",
"466 1901 CURVE SMOOTH",
"412 1901 OFFCURVE",
"359 1880 OFFCURVE",
"322 1836 CURVE SMOOTH",
"289 1797 OFFCURVE",
"268 1738 OFFCURVE",
"268 1665 CURVE SMOOTH",
"268 1635 LINE",
"408 1635 LINE",
"408 1641 LINE SMOOTH",
"408 1674 OFFCURVE",
"415 1701 OFFCURVE",
"428 1721 CURVE SMOOTH",
"441 1741 OFFCURVE",
"458 1751 OFFCURVE",
"479 1751 CURVE SMOOTH",
"502 1751 OFFCURVE",
"524 1740 OFFCURVE",
"552 1725 CURVE SMOOTH",
"560 1720 OFFCURVE",
"554 1724 OFFCURVE",
"564 1718 CURVE SMOOTH"
);
}
);
width = 1233;
}
);
note = "\012\011Otilde\012  ";
unicode = 00D5;
},
{
glyphname = OE;
layers = (
{
layerId = "40F0FF51-D1E9-4DBD-A50F-345F6327BC10";
name = Bold;
paths = (
{
closed = 1;
nodes = (
"1217 260 LINE",
"874 260 LINE",
"874 662 LINE",
"1176 662 LINE",
"1176 922 LINE",
"874 922 LINE",
"874 1233 LINE",
"1206 1233 LINE",
"1206 1493 LINE",
"633 1493 LINE SMOOTH",
"423 1493 OFFCURVE",
"271 1443 OFFCURVE",
"189 1337 CURVE SMOOTH",
"108 1233 OFFCURVE",
"68 1036 OFFCURVE",
"68 745 CURVE SMOOTH",
"68 457 OFFCURVE",
"107 262 OFFCURVE",
"189 156 CURVE SMOOTH",
"269 52 OFFCURVE",
"417 0 OFFCURVE",
"633 0 CURVE SMOOTH",
"1217 0 LINE"
);
},
{
closed = 1;
nodes = (
"621 1233 LINE",
"621 260 LINE",
"569 260 LINE SMOOTH",
"491 260 OFFCURVE",
"431 286 OFFCURVE",
"400 347 CURVE SMOOTH",
"370 406 OFFCURVE",
"354 527 OFFCURVE",
"354 745 CURVE SMOOTH",
"354 963 OFFCURVE",
"370 1084 OFFCURVE",
"400 1144 CURVE SMOOTH",
"428 1200 OFFCURVE",
"485 1233 OFFCURVE",
"569 1233 CURVE SMOOTH"
);
}
);
width = 1233;
}
);
note = "\012\011OE\012  ";
unicode = 0152;
},
{
glyphname = P;
layers = (
{
layerId = "40F0FF51-D1E9-4DBD-A50F-345F6327BC10";
name = Bold;
paths = (
{
closed = 1;
nodes = (
"451 1245 LINE",
"572 1245 LINE SMOOTH",
"669 1245 OFFCURVE",
"737 1229 OFFCURVE",
"776 1196 CURVE SMOOTH",
"815 1163 OFFCURVE",
"834 1107 OFFCURVE",
"834 1026 CURVE SMOOTH",
"834 945 OFFCURVE",
"815 889 OFFCURVE",
"776 856 CURVE SMOOTH",
"737 823 OFFCURVE",
"669 807 OFFCURVE",
"572 807 CURVE SMOOTH",
"451 807 LINE"
);
},
{
closed = 1;
nodes = (
"156 1493 LINE",
"156 0 LINE",
"451 0 LINE",
"451 559 LINE",
"561 559 LINE SMOOTH",
"767 559 OFFCURVE",
"915 596 OFFCURVE",
"1006 669 CURVE SMOOTH",
"1096 742 OFFCURVE",
"1141 861 OFFCURVE",
"1141 1026 CURVE SMOOTH",
"1141 1191 OFFCURVE",
"1096 1310 OFFCURVE",
"1006 1383 CURVE SMOOTH",
"915 1456 OFFCURVE",
"767 1493 OFFCURVE",
"561 1493 CURVE SMOOTH"
);
}
);
width = 1233;
}
);
note = "\012\011P\012  ";
unicode = 0050;
},
{
glyphname = Thorn;
layers = (
{
layerId = "40F0FF51-D1E9-4DBD-A50F-345F6327BC10";
name = Bold;
paths = (
{
closed = 1;
nodes = (
"457 1014 LINE",
"578 1014 LINE SMOOTH",
"675 1014 OFFCURVE",
"743 997 OFFCURVE",
"782 964 CURVE SMOOTH",
"821 931 OFFCURVE",
"840 874 OFFCURVE",
"840 793 CURVE SMOOTH",
"840 713 OFFCURVE",
"821 657 OFFCURVE",
"782 624 CURVE SMOOTH",
"743 591 OFFCURVE",
"675 575 OFFCURVE",
"578 575 CURVE SMOOTH",
"457 575 LINE"
);
},
{
closed = 1;
nodes = (
"162 1493 LINE",
"162 0 LINE",
"457 0 LINE",
"457 332 LINE",
"567 332 LINE SMOOTH",
"769 332 OFFCURVE",
"917 367 OFFCURVE",
"1010 441 CURVE SMOOTH",
"1101 513 OFFCURVE",
"1147 628 OFFCURVE",
"1147 791 CURVE SMOOTH",
"1147 952 OFFCURVE",
"1102 1073 OFFCURVE",
"1012 1146 CURVE SMOOTH",
"921 1219 OFFCURVE",
"773 1255 OFFCURVE",
"567 1255 CURVE SMOOTH",
"457 1255 LINE",
"457 1493 LINE"
);
}
);
width = 1233;
}
);
note = "\012\011Thorn\012  ";
unicode = 00DE;
},
{
glyphname = Q;
layers = (
{
layerId = "40F0FF51-D1E9-4DBD-A50F-345F6327BC10";
name = Bold;
paths = (
{
closed = 1;
nodes = (
"839 -281 LINE",
"1181 -281 LINE",
"895 51 LINE",
"975 102 OFFCURVE",
"1036 186 OFFCURVE",
"1078 305 CURVE SMOOTH",
"1120 423 OFFCURVE",
"1141 570 OFFCURVE",
"1141 745 CURVE SMOOTH",
"1141 1000 OFFCURVE",
"1097 1193 OFFCURVE",
"1009 1324 CURVE SMOOTH",
"922 1453 OFFCURVE",
"790 1520 OFFCURVE",
"616 1520 CURVE SMOOTH",
"454 1520 OFFCURVE",
"318 1462 OFFCURVE",
"225 1325 CURVE SMOOTH",
"136 1193 OFFCURVE",
"92 998 OFFCURVE",
"92 744 CURVE SMOOTH",
"92 490 OFFCURVE",
"136 298 OFFCURVE",
"225 167 CURVE SMOOTH",
"311 41 OFFCURVE",
"441 -29 OFFCURVE",
"622 -29 CURVE SMOOTH",
"624 -29 OFFCURVE",
"626 -29 OFFCURVE",
"633 -28 CURVE SMOOTH",
"639 -27 OFFCURVE",
"647 -25 OFFCURVE",
"656 -23 CURVE"
);
},
{
closed = 1;
nodes = (
"693 1255 OFFCURVE",
"747 1215 OFFCURVE",
"782 1134 CURVE SMOOTH",
"817 1054 OFFCURVE",
"834 926 OFFCURVE",
"834 746 CURVE SMOOTH",
"834 566 OFFCURVE",
"817 437 OFFCURVE",
"782 357 CURVE SMOOTH",
"747 276 OFFCURVE",
"692 236 OFFCURVE",
"616 236 CURVE SMOOTH",
"541 236 OFFCURVE",
"486 276 OFFCURVE",
"451 357 CURVE SMOOTH",
"416 437 OFFCURVE",
"399 566 OFFCURVE",
"399 746 CURVE SMOOTH",
"399 926 OFFCURVE",
"416 1054 OFFCURVE",
"451 1134 CURVE SMOOTH",
"485 1213 OFFCURVE",
"538 1255 OFFCURVE",
"616 1255 CURVE SMOOTH"
);
}
);
width = 1233;
}
);
note = "\012\011Q\012  ";
unicode = 0051;
},
{
glyphname = R;
layers = (
{
layerId = "40F0FF51-D1E9-4DBD-A50F-345F6327BC10";
name = Bold;
paths = (
{
closed = 1;
nodes = (
"907 718 OFFCURVE",
"975 756 OFFCURVE",
"1023 814 CURVE SMOOTH",
"1073 875 OFFCURVE",
"1098 953 OFFCURVE",
"1098 1064 CURVE SMOOTH",
"1098 1209 OFFCURVE",
"1056 1323 OFFCURVE",
"973 1391 CURVE SMOOTH",
"889 1459 OFFCURVE",
"751 1493 OFFCURVE",
"559 1493 CURVE SMOOTH",
"133 1493 LINE",
"133 0 LINE",
"428 0 LINE",
"428 590 LINE",
"522 590 LINE SMOOTH",
"596 590 OFFCURVE",
"652 535 OFFCURVE",
"708 421 CURVE SMOOTH",
"716 404 OFFCURVE",
"710 417 OFFCURVE",
"729 377 CURVE SMOOTH",
"909 0 LINE",
"1233 0 LINE",
"963 537 LINE SMOOTH",
"930 603 OFFCURVE",
"904 644 OFFCURVE",
"884 664 CURVE SMOOTH",
"866 682 OFFCURVE",
"837 699 OFFCURVE",
"807 705 CURVE"
);
},
{
closed = 1;
nodes = (
"428 1245 LINE",
"567 1245 LINE SMOOTH",
"648 1245 OFFCURVE",
"706 1229 OFFCURVE",
"741 1198 CURVE SMOOTH",
"776 1167 OFFCURVE",
"793 1115 OFFCURVE",
"793 1042 CURVE SMOOTH",
"793 962 OFFCURVE",
"773 915 OFFCURVE",
"741 886 CURVE SMOOTH",
"706 854 OFFCURVE",
"648 838 OFFCURVE",
"567 838 CURVE SMOOTH",
"428 838 LINE"
);
}
);
width = 1233;
}
);
note = "\012\011R\012  ";
unicode = 0052;
},
{
glyphname = Racute;
lastChange = "2015-07-18 21:08:01 +0000";
layers = (
{
layerId = "40F0FF51-D1E9-4DBD-A50F-345F6327BC10";
name = Bold;
paths = (
{
closed = 1;
nodes = (
"669 1900 LINE",
"953 1900 LINE",
"667 1636 LINE",
"470 1636 LINE"
);
},
{
closed = 1;
nodes = (
"866 693 OFFCURVE",
"900 662 OFFCURVE",
"963 537 CURVE SMOOTH",
"1233 0 LINE",
"909 0 LINE",
"729 377 LINE SMOOTH",
"724 388 OFFCURVE",
"717 402 OFFCURVE",
"708 421 CURVE SMOOTH",
"655 534 OFFCURVE",
"593 590 OFFCURVE",
"522 590 CURVE SMOOTH",
"428 590 LINE",
"428 0 LINE",
"133 0 LINE",
"133 1493 LINE",
"559 1493 LINE SMOOTH",
"943 1493 OFFCURVE",
"1098 1366 OFFCURVE",
"1098 1059 CURVE SMOOTH",
"1098 854 OFFCURVE",
"995 729 OFFCURVE",
"807 705 CURVE"
);
},
{
closed = 1;
nodes = (
"428 1245 LINE",
"428 838 LINE",
"567 838 LINE SMOOTH",
"728 838 OFFCURVE",
"793 897 OFFCURVE",
"793 1042 CURVE SMOOTH",
"793 1187 OFFCURVE",
"730 1245 OFFCURVE",
"567 1245 CURVE SMOOTH"
);
}
);
width = 1233;
}
);
note = Racute;
unicode = 0154;
},
{
glyphname = Rcaron;
lastChange = "2015-07-18 21:08:01 +0000";
layers = (
{
layerId = "40F0FF51-D1E9-4DBD-A50F-345F6327BC10";
name = Bold;
paths = (
{
closed = 1;
nodes = (
"866 693 OFFCURVE",
"900 662 OFFCURVE",
"963 537 CURVE SMOOTH",
"1233 0 LINE",
"909 0 LINE",
"729 377 LINE SMOOTH",
"724 388 OFFCURVE",
"717 402 OFFCURVE",
"708 421 CURVE SMOOTH",
"655 534 OFFCURVE",
"593 590 OFFCURVE",
"522 590 CURVE SMOOTH",
"428 590 LINE",
"428 0 LINE",
"133 0 LINE",
"133 1493 LINE",
"559 1493 LINE SMOOTH",
"943 1493 OFFCURVE",
"1098 1366 OFFCURVE",
"1098 1059 CURVE SMOOTH",
"1098 854 OFFCURVE",
"995 729 OFFCURVE",
"807 705 CURVE"
);
},
{
closed = 1;
nodes = (
"428 1245 LINE",
"428 838 LINE",
"567 838 LINE SMOOTH",
"728 838 OFFCURVE",
"793 897 OFFCURVE",
"793 1042 CURVE SMOOTH",
"793 1187 OFFCURVE",
"730 1245 OFFCURVE",
"567 1245 CURVE SMOOTH"
);
},
{
closed = 1;
nodes = (
"430 1635 LINE",
"209 1899 LINE",
"387 1899 LINE",
"585 1737 LINE",
"784 1899 LINE",
"962 1899 LINE",
"739 1635 LINE"
);
}
);
width = 1233;
}
);
note = Rcaron;
unicode = 0158;
},
{
glyphname = Rcommaaccent;
lastChange = "2015-07-18 21:08:01 +0000";
layers = (
{
layerId = "40F0FF51-D1E9-4DBD-A50F-345F6327BC10";
name = Bold;
paths = (
{
closed = 1;
nodes = (
"587 -158 LINE",
"869 -158 LINE",
"692 -464 LINE",
"498 -464 LINE"
);
},
{
closed = 1;
nodes = (
"866 693 OFFCURVE",
"900 662 OFFCURVE",
"963 537 CURVE SMOOTH",
"1233 0 LINE",
"909 0 LINE",
"729 377 LINE SMOOTH",
"724 388 OFFCURVE",
"717 402 OFFCURVE",
"708 421 CURVE SMOOTH",
"655 534 OFFCURVE",
"593 590 OFFCURVE",
"522 590 CURVE SMOOTH",
"428 590 LINE",
"428 0 LINE",
"133 0 LINE",
"133 1493 LINE",
"559 1493 LINE SMOOTH",
"943 1493 OFFCURVE",
"1098 1366 OFFCURVE",
"1098 1059 CURVE SMOOTH",
"1098 854 OFFCURVE",
"995 729 OFFCURVE",
"807 705 CURVE"
);
},
{
closed = 1;
nodes = (
"428 1245 LINE",
"428 838 LINE",
"567 838 LINE SMOOTH",
"728 838 OFFCURVE",
"793 897 OFFCURVE",
"793 1042 CURVE SMOOTH",
"793 1187 OFFCURVE",
"730 1245 OFFCURVE",
"567 1245 CURVE SMOOTH"
);
}
);
width = 1233;
}
);
note = Rcommaaccent;
unicode = 0156;
},
{
glyphname = S;
layers = (
{
layerId = "40F0FF51-D1E9-4DBD-A50F-345F6327BC10";
name = Bold;
paths = (
{
closed = 1;
nodes = (
"655 600 LINE SMOOTH",
"703 582 OFFCURVE",
"743 556 OFFCURVE",
"771 521 CURVE SMOOTH",
"798 487 OFFCURVE",
"811 449 OFFCURVE",
"811 403 CURVE SMOOTH",
"811 345 OFFCURVE",
"791 298 OFFCURVE",
"751 265 CURVE SMOOTH",
"711 232 OFFCURVE",
"656 215 OFFCURVE",
"580 215 CURVE SMOOTH",
"511 215 OFFCURVE",
"437 229 OFFCURVE",
"364 256 CURVE SMOOTH",
"289 284 OFFCURVE",
"217 323 OFFCURVE",
"135 381 CURVE",
"135 76 LINE",
"204 41 OFFCURVE",
"276 15 OFFCURVE",
"351 -3 CURVE SMOOTH",
"427 -21 OFFCURVE",
"502 -29 OFFCURVE",
"582 -29 CURVE SMOOTH",
"756 -29 OFFCURVE",
"887 9 OFFCURVE",
"976 83 CURVE SMOOTH",
"1065 157 OFFCURVE",
"1110 267 OFFCURVE",
"1110 415 CURVE SMOOTH",
"1110 531 OFFCURVE",
"1082 623 OFFCURVE",
"1025 696 CURVE SMOOTH",
"968 768 OFFCURVE",
"882 824 OFFCURVE",
"760 870 CURVE SMOOTH",
"633 918 LINE SMOOTH",
"535 955 OFFCURVE",
"487 982 OFFCURVE",
"460 1008 CURVE SMOOTH",
"432 1035 OFFCURVE",
"418 1068 OFFCURVE",
"418 1111 CURVE SMOOTH",
"418 1162 OFFCURVE",
"437 1204 OFFCURVE",
"475 1233 CURVE SMOOTH",
"513 1262 OFFCURVE",
"568 1276 OFFCURVE",
"638 1276 CURVE SMOOTH",
"703 1276 OFFCURVE",
"768 1264 OFFCURVE",
"833 1241 CURVE SMOOTH",
"898 1218 OFFCURVE",
"963 1184 OFFCURVE",
"1026 1139 CURVE",
"1026 1427 LINE",
"957 1459 OFFCURVE",
"884 1483 OFFCURVE",
"822 1497 CURVE SMOOTH",
"760 1511 OFFCURVE",
"686 1520 OFFCURVE",
"615 1520 CURVE SMOOTH",
"466 1520 OFFCURVE",
"346 1481 OFFCURVE",
"259 1404 CURVE SMOOTH",
"172 1327 OFFCURVE",
"129 1220 OFFCURVE",
"129 1085 CURVE SMOOTH",
"129 980 OFFCURVE",
"155 896 OFFCURVE",
"208 834 CURVE SMOOTH",
"260 773 OFFCURVE",
"357 713 OFFCURVE",
"510 655 CURVE SMOOTH"
);
}
);
width = 1233;
}
);
note = "\012\011S\012  ";
unicode = 0053;
},
{
glyphname = Sacute;
lastChange = "2015-07-18 21:08:01 +0000";
layers = (
{
layerId = "40F0FF51-D1E9-4DBD-A50F-345F6327BC10";
name = Bold;
paths = (
{
closed = 1;
nodes = (
"699 1900 LINE",
"983 1900 LINE",
"697 1636 LINE",
"500 1636 LINE"
);
},
{
closed = 1;
nodes = (
"510 655 LINE SMOOTH",
"213 768 OFFCURVE",
"129 874 OFFCURVE",
"129 1085 CURVE SMOOTH",
"129 1356 OFFCURVE",
"313 1520 OFFCURVE",
"616 1520 CURVE SMOOTH",
"753 1520 OFFCURVE",
"891 1488 OFFCURVE",
"1026 1427 CURVE",
"1026 1139 LINE",
"899 1228 OFFCURVE",
"767 1276 OFFCURVE",
"639 1276 CURVE SMOOTH",
"496 1276 OFFCURVE",
"418 1217 OFFCURVE",
"418 1110 CURVE SMOOTH",
"418 1069 OFFCURVE",
"432 1035 OFFCURVE",
"460 1008 CURVE SMOOTH",
"487 981 OFFCURVE",
"545 951 OFFCURVE",
"633 918 CURVE SMOOTH",
"760 870 LINE SMOOTH",
"1000 782 OFFCURVE",
"1110 641 OFFCURVE",
"1110 420 CURVE SMOOTH",
"1110 119 OFFCURVE",
"933 -29 OFFCURVE",
"573 -29 CURVE SMOOTH",
"425 -29 OFFCURVE",
"274 7 OFFCURVE",
"135 76 CURVE",
"135 381 LINE",
"292 269 OFFCURVE",
"438 215 OFFCURVE",
"582 215 CURVE SMOOTH",
"727 215 OFFCURVE",
"811 284 OFFCURVE",
"811 403 CURVE SMOOTH",
"811 492 OFFCURVE",
"756 561 OFFCURVE",
"655 600 CURVE SMOOTH"
);
}
);
width = 1233;
}
);
note = Sacute;
unicode = 015A;
},
{
glyphname = Scaron;
layers = (
{
layerId = "40F0FF51-D1E9-4DBD-A50F-345F6327BC10";
name = Bold;
paths = (
{
closed = 1;
nodes = (
"655 600 LINE SMOOTH",
"703 582 OFFCURVE",
"743 556 OFFCURVE",
"771 521 CURVE SMOOTH",
"798 487 OFFCURVE",
"811 449 OFFCURVE",
"811 403 CURVE SMOOTH",
"811 345 OFFCURVE",
"791 298 OFFCURVE",
"751 265 CURVE SMOOTH",
"711 232 OFFCURVE",
"656 215 OFFCURVE",
"580 215 CURVE SMOOTH",
"511 215 OFFCURVE",
"437 229 OFFCURVE",
"364 256 CURVE SMOOTH",
"289 284 OFFCURVE",
"217 323 OFFCURVE",
"135 381 CURVE",
"135 76 LINE",
"204 41 OFFCURVE",
"276 15 OFFCURVE",
"351 -3 CURVE SMOOTH",
"427 -21 OFFCURVE",
"502 -29 OFFCURVE",
"582 -29 CURVE SMOOTH",
"756 -29 OFFCURVE",
"887 9 OFFCURVE",
"976 83 CURVE SMOOTH",
"1065 157 OFFCURVE",
"1110 267 OFFCURVE",
"1110 415 CURVE SMOOTH",
"1110 531 OFFCURVE",
"1082 623 OFFCURVE",
"1025 696 CURVE SMOOTH",
"968 768 OFFCURVE",
"882 824 OFFCURVE",
"760 870 CURVE SMOOTH",
"633 918 LINE SMOOTH",
"535 955 OFFCURVE",
"487 982 OFFCURVE",
"460 1008 CURVE SMOOTH",
"432 1035 OFFCURVE",
"418 1068 OFFCURVE",
"418 1111 CURVE SMOOTH",
"418 1162 OFFCURVE",
"437 1204 OFFCURVE",
"475 1233 CURVE SMOOTH",
"513 1262 OFFCURVE",
"568 1276 OFFCURVE",
"638 1276 CURVE SMOOTH",
"703 1276 OFFCURVE",
"768 1264 OFFCURVE",
"833 1241 CURVE SMOOTH",
"898 1218 OFFCURVE",
"963 1184 OFFCURVE",
"1026 1139 CURVE",
"1026 1427 LINE",
"957 1459 OFFCURVE",
"884 1483 OFFCURVE",
"822 1497 CURVE SMOOTH",
"760 1511 OFFCURVE",
"686 1520 OFFCURVE",
"615 1520 CURVE SMOOTH",
"466 1520 OFFCURVE",
"346 1481 OFFCURVE",
"259 1404 CURVE SMOOTH",
"172 1327 OFFCURVE",
"129 1220 OFFCURVE",
"129 1085 CURVE SMOOTH",
"129 980 OFFCURVE",
"155 896 OFFCURVE",
"208 834 CURVE SMOOTH",
"260 773 OFFCURVE",
"357 713 OFFCURVE",
"510 655 CURVE SMOOTH"
);
},
{
closed = 1;
nodes = (
"461 1635 LINE",
"770 1635 LINE",
"993 1899 LINE",
"815 1899 LINE",
"616 1737 LINE",
"418 1899 LINE",
"240 1899 LINE"
);
}
);
width = 1233;
}
);
note = "\012\011Scaron\012  ";
unicode = 0160;
},
{
glyphname = Scedilla;
layers = (
{
layerId = "40F0FF51-D1E9-4DBD-A50F-345F6327BC10";
name = Bold;
paths = (
{
closed = 1;
nodes = (
"655 600 LINE SMOOTH",
"703 582 OFFCURVE",
"743 556 OFFCURVE",
"771 521 CURVE SMOOTH",
"798 487 OFFCURVE",
"811 449 OFFCURVE",
"811 403 CURVE SMOOTH",
"811 345 OFFCURVE",
"791 298 OFFCURVE",
"751 265 CURVE SMOOTH",
"711 232 OFFCURVE",
"656 215 OFFCURVE",
"580 215 CURVE SMOOTH",
"511 215 OFFCURVE",
"437 229 OFFCURVE",
"364 256 CURVE SMOOTH",
"289 284 OFFCURVE",
"217 323 OFFCURVE",
"135 381 CURVE",
"135 76 LINE",
"204 41 OFFCURVE",
"276 15 OFFCURVE",
"351 -3 CURVE SMOOTH",
"427 -21 OFFCURVE",
"502 -29 OFFCURVE",
"582 -29 CURVE SMOOTH",
"756 -29 OFFCURVE",
"887 9 OFFCURVE",
"976 83 CURVE SMOOTH",
"1065 157 OFFCURVE",
"1110 267 OFFCURVE",
"1110 415 CURVE SMOOTH",
"1110 531 OFFCURVE",
"1082 623 OFFCURVE",
"1025 696 CURVE SMOOTH",
"968 768 OFFCURVE",
"882 824 OFFCURVE",
"760 870 CURVE SMOOTH",
"633 918 LINE SMOOTH",
"535 955 OFFCURVE",
"487 982 OFFCURVE",
"460 1008 CURVE SMOOTH",
"432 1035 OFFCURVE",
"418 1068 OFFCURVE",
"418 1111 CURVE SMOOTH",
"418 1162 OFFCURVE",
"437 1204 OFFCURVE",
"475 1233 CURVE SMOOTH",
"513 1262 OFFCURVE",
"568 1276 OFFCURVE",
"638 1276 CURVE SMOOTH",
"703 1276 OFFCURVE",
"768 1264 OFFCURVE",
"833 1241 CURVE SMOOTH",
"898 1218 OFFCURVE",
"963 1184 OFFCURVE",
"1026 1139 CURVE",
"1026 1427 LINE",
"957 1459 OFFCURVE",
"884 1483 OFFCURVE",
"822 1497 CURVE SMOOTH",
"760 1511 OFFCURVE",
"686 1520 OFFCURVE",
"615 1520 CURVE SMOOTH",
"466 1520 OFFCURVE",
"346 1481 OFFCURVE",
"259 1404 CURVE SMOOTH",
"172 1327 OFFCURVE",
"129 1220 OFFCURVE",
"129 1085 CURVE SMOOTH",
"129 980 OFFCURVE",
"155 896 OFFCURVE",
"208 834 CURVE SMOOTH",
"260 773 OFFCURVE",
"357 713 OFFCURVE",
"510 655 CURVE SMOOTH"
);
},
{
closed = 1;
nodes = (
"567 0 LINE",
"598 -40 OFFCURVE",
"620 -74 OFFCURVE",
"634 -101 CURVE SMOOTH",
"648 -128 OFFCURVE",
"655 -150 OFFCURVE",
"655 -170 CURVE SMOOTH",
"655 -194 OFFCURVE",
"644 -216 OFFCURVE",
"623 -231 CURVE SMOOTH",
"601 -246 OFFCURVE",
"571 -254 OFFCURVE",
"532 -254 CURVE SMOOTH",
"508 -254 OFFCURVE",
"482 -251 OFFCURVE",
"454 -245 CURVE SMOOTH",
"426 -239 OFFCURVE",
"397 -230 OFFCURVE",
"367 -219 CURVE",
"367 -375 LINE",
"401 -382 OFFCURVE",
"422 -389 OFFCURVE",
"471 -395 CURVE SMOOTH",
"501 -399 OFFCURVE",
"542 -401 OFFCURVE",
"573 -401 CURVE SMOOTH",
"667 -401 OFFCURVE",
"722 -382 OFFCURVE",
"757 -356 CURVE SMOOTH",
"796 -327 OFFCURVE",
"819 -282 OFFCURVE",
"819 -221 CURVE SMOOTH",
"819 -183 OFFCURVE",
"810 -149 OFFCURVE",
"792 -115 CURVE SMOOTH",
"776 -85 OFFCURVE",
"747 -43 OFFCURVE",
"707 0 CURVE"
);
}
);
width = 1233;
}
);
note = "\012\011Scedilla\012  ";
unicode = 015E;
},
{
glyphname = Scommaaccent;
lastChange = "2015-07-18 21:18:34 +0000";
layers = (
{
layerId = "40F0FF51-D1E9-4DBD-A50F-345F6327BC10";
name = Bold;
paths = (
{
closed = 1;
nodes = (
"461 -198 LINE",
"743 -198 LINE",
"566 -504 LINE",
"372 -504 LINE"
);
},
{
closed = 1;
nodes = (
"510 655 LINE SMOOTH",
"213 768 OFFCURVE",
"129 874 OFFCURVE",
"129 1085 CURVE SMOOTH",
"129 1356 OFFCURVE",
"313 1520 OFFCURVE",
"616 1520 CURVE SMOOTH",
"753 1520 OFFCURVE",
"891 1488 OFFCURVE",
"1026 1427 CURVE",
"1026 1139 LINE",
"899 1228 OFFCURVE",
"767 1276 OFFCURVE",
"639 1276 CURVE SMOOTH",
"496 1276 OFFCURVE",
"418 1217 OFFCURVE",
"418 1110 CURVE SMOOTH",
"418 1069 OFFCURVE",
"432 1035 OFFCURVE",
"460 1008 CURVE SMOOTH",
"487 981 OFFCURVE",
"545 951 OFFCURVE",
"633 918 CURVE SMOOTH",
"760 870 LINE SMOOTH",
"1000 782 OFFCURVE",
"1110 641 OFFCURVE",
"1110 420 CURVE SMOOTH",
"1110 119 OFFCURVE",
"933 -29 OFFCURVE",
"573 -29 CURVE SMOOTH",
"425 -29 OFFCURVE",
"274 7 OFFCURVE",
"135 76 CURVE",
"135 381 LINE",
"292 269 OFFCURVE",
"438 215 OFFCURVE",
"582 215 CURVE SMOOTH",
"727 215 OFFCURVE",
"811 284 OFFCURVE",
"811 403 CURVE SMOOTH",
"811 492 OFFCURVE",
"756 561 OFFCURVE",
"655 600 CURVE SMOOTH"
);
}
);
width = 1233;
}
);
note = Scommaaccent;
unicode = 0218;
},
{
glyphname = T;
layers = (
{
layerId = "40F0FF51-D1E9-4DBD-A50F-345F6327BC10";
name = Bold;
paths = (
{
closed = 1;
nodes = (
"764 0 LINE",
"764 1235 LINE",
"1143 1235 LINE",
"1143 1493 LINE",
"90 1493 LINE",
"90 1235 LINE",
"469 1235 LINE",
"469 0 LINE"
);
}
);
width = 1233;
}
);
note = "\012\011T\012  ";
unicode = 0054;
},
{
glyphname = Tbar;
lastChange = "2015-07-18 21:08:01 +0000";
layers = (
{
layerId = "40F0FF51-D1E9-4DBD-A50F-345F6327BC10";
name = Bold;
paths = (
{
closed = 1;
nodes = (
"764 0 LINE",
"469 0 LINE",
"469 538 LINE",
"222 538 LINE",
"222 730 LINE",
"469 730 LINE",
"469 1235 LINE",
"90 1235 LINE",
"90 1493 LINE",
"1143 1493 LINE",
"1143 1235 LINE",
"764 1235 LINE",
"764 730 LINE",
"1011 730 LINE",
"1011 538 LINE",
"764 538 LINE"
);
}
);
width = 1233;
}
);
note = Tbar;
unicode = 0166;
},
{
glyphname = Tcaron;
lastChange = "2015-07-18 21:08:01 +0000";
layers = (
{
layerId = "40F0FF51-D1E9-4DBD-A50F-345F6327BC10";
name = Bold;
paths = (
{
closed = 1;
nodes = (
"764 0 LINE",
"469 0 LINE",
"469 1235 LINE",
"90 1235 LINE",
"90 1493 LINE",
"1143 1493 LINE",
"1143 1235 LINE",
"764 1235 LINE"
);
},
{
closed = 1;
nodes = (
"454 1647 LINE",
"233 1911 LINE",
"411 1911 LINE",
"609 1749 LINE",
"808 1911 LINE",
"986 1911 LINE",
"763 1647 LINE"
);
}
);
width = 1233;
}
);
note = Tcaron;
unicode = 0164;
},
{
glyphname = Tcommaaccent;
lastChange = "2015-07-18 21:18:34 +0000";
layers = (
{
layerId = "40F0FF51-D1E9-4DBD-A50F-345F6327BC10";
name = Bold;
paths = (
{
closed = 1;
nodes = (
"707 0 LINE",
"783 -83 OFFCURVE",
"819 -152 OFFCURVE",
"819 -215 CURVE SMOOTH",
"819 -342 OFFCURVE",
"738 -401 OFFCURVE",
"569 -401 CURVE SMOOTH",
"505 -401 OFFCURVE",
"438 -392 OFFCURVE",
"367 -375 CURVE",
"367 -219 LINE",
"427 -242 OFFCURVE",
"484 -254 OFFCURVE",
"532 -254 CURVE SMOOTH",
"609 -254 OFFCURVE",
"655 -221 OFFCURVE",
"655 -168 CURVE SMOOTH",
"655 -133 OFFCURVE",
"628 -80 OFFCURVE",
"567 0 CURVE"
);
},
{
closed = 1;
nodes = (
"764 0 LINE",
"469 0 LINE",
"469 1235 LINE",
"90 1235 LINE",
"90 1493 LINE",
"1143 1493 LINE",
"1143 1235 LINE",
"764 1235 LINE"
);
}
);
width = 1233;
}
);
note = Tcommaaccent;
unicode = 0162;
},
{
glyphname = U;
layers = (
{
layerId = "40F0FF51-D1E9-4DBD-A50F-345F6327BC10";
name = Bold;
paths = (
{
closed = 1;
nodes = (
"106 551 LINE SMOOTH",
"106 348 OFFCURVE",
"147 201 OFFCURVE",
"228 109 CURVE SMOOTH",
"309 17 OFFCURVE",
"438 -29 OFFCURVE",
"616 -29 CURVE SMOOTH",
"795 -29 OFFCURVE",
"924 17 OFFCURVE",
"1005 109 CURVE SMOOTH",
"1086 201 OFFCURVE",
"1126 348 OFFCURVE",
"1126 551 CURVE SMOOTH",
"1126 1493 LINE",
"831 1493 LINE",
"831 477 LINE SMOOTH",
"831 401 OFFCURVE",
"810 341 OFFCURVE",
"774 301 CURVE SMOOTH",
"736 259 OFFCURVE",
"680 238 OFFCURVE",
"616 238 CURVE SMOOTH",
"552 238 OFFCURVE",
"496 259 OFFCURVE",
"458 301 CURVE SMOOTH",
"422 341 OFFCURVE",
"401 401 OFFCURVE",
"401 477 CURVE SMOOTH",
"401 1493 LINE",
"106 1493 LINE"
);
}
);
width = 1233;
}
);
note = "\012\011U\012  ";
unicode = 0055;
},
{
glyphname = Uacute;
layers = (
{
layerId = "40F0FF51-D1E9-4DBD-A50F-345F6327BC10";
name = Bold;
paths = (
{
closed = 1;
nodes = (
"106 551 LINE SMOOTH",
"106 348 OFFCURVE",
"147 201 OFFCURVE",
"228 109 CURVE SMOOTH",
"309 17 OFFCURVE",
"438 -29 OFFCURVE",
"616 -29 CURVE SMOOTH",
"795 -29 OFFCURVE",
"924 17 OFFCURVE",
"1005 109 CURVE SMOOTH",
"1086 201 OFFCURVE",
"1126 348 OFFCURVE",
"1126 551 CURVE SMOOTH",
"1126 1493 LINE",
"831 1493 LINE",
"831 477 LINE SMOOTH",
"831 401 OFFCURVE",
"810 341 OFFCURVE",
"774 301 CURVE SMOOTH",
"736 259 OFFCURVE",
"680 238 OFFCURVE",
"616 238 CURVE SMOOTH",
"552 238 OFFCURVE",
"496 259 OFFCURVE",
"458 301 CURVE SMOOTH",
"422 341 OFFCURVE",
"401 401 OFFCURVE",
"401 477 CURVE SMOOTH",
"401 1493 LINE",
"106 1493 LINE"
);
},
{
closed = 1;
nodes = (
"668 1899 LINE",
"469 1635 LINE",
"666 1635 LINE",
"952 1899 LINE"
);
}
);
width = 1233;
}
);
note = "\012\011Uacute\012  ";
unicode = 00DA;
},
{
glyphname = Ucircumflex;
layers = (
{
layerId = "40F0FF51-D1E9-4DBD-A50F-345F6327BC10";
name = Bold;
paths = (
{
closed = 1;
nodes = (
"106 551 LINE SMOOTH",
"106 348 OFFCURVE",
"147 201 OFFCURVE",
"228 109 CURVE SMOOTH",
"309 17 OFFCURVE",
"438 -29 OFFCURVE",
"616 -29 CURVE SMOOTH",
"795 -29 OFFCURVE",
"924 17 OFFCURVE",
"1005 109 CURVE SMOOTH",
"1086 201 OFFCURVE",
"1126 348 OFFCURVE",
"1126 551 CURVE SMOOTH",
"1126 1493 LINE",
"831 1493 LINE",
"831 477 LINE SMOOTH",
"831 401 OFFCURVE",
"810 341 OFFCURVE",
"774 301 CURVE SMOOTH",
"736 259 OFFCURVE",
"680 238 OFFCURVE",
"616 238 CURVE SMOOTH",
"552 238 OFFCURVE",
"496 259 OFFCURVE",
"458 301 CURVE SMOOTH",
"422 341 OFFCURVE",
"401 401 OFFCURVE",
"401 477 CURVE SMOOTH",
"401 1493 LINE",
"106 1493 LINE"
);
},
{
closed = 1;
nodes = (
"461 1899 LINE",
"240 1635 LINE",
"418 1635 LINE",
"616 1796 LINE",
"815 1635 LINE",
"993 1635 LINE",
"770 1899 LINE"
);
}
);
width = 1233;
}
);
note = "\012\011Ucircumflex\012  ";
unicode = 00DB;
},
{
glyphname = Udieresis;
layers = (
{
layerId = "40F0FF51-D1E9-4DBD-A50F-345F6327BC10";
name = Bold;
paths = (
{
closed = 1;
nodes = (
"106 551 LINE SMOOTH",
"106 348 OFFCURVE",
"147 201 OFFCURVE",
"228 109 CURVE SMOOTH",
"309 17 OFFCURVE",
"438 -29 OFFCURVE",
"616 -29 CURVE SMOOTH",
"795 -29 OFFCURVE",
"924 17 OFFCURVE",
"1005 109 CURVE SMOOTH",
"1086 201 OFFCURVE",
"1126 348 OFFCURVE",
"1126 551 CURVE SMOOTH",
"1126 1493 LINE",
"831 1493 LINE",
"831 477 LINE SMOOTH",
"831 401 OFFCURVE",
"810 341 OFFCURVE",
"774 301 CURVE SMOOTH",
"736 259 OFFCURVE",
"680 238 OFFCURVE",
"616 238 CURVE SMOOTH",
"552 238 OFFCURVE",
"496 259 OFFCURVE",
"458 301 CURVE SMOOTH",
"422 341 OFFCURVE",
"401 401 OFFCURVE",
"401 477 CURVE SMOOTH",
"401 1493 LINE",
"106 1493 LINE"
);
},
{
closed = 1;
nodes = (
"726 1899 LINE SMOOTH",
"707 1899 OFFCURVE",
"696 1888 OFFCURVE",
"696 1869 CURVE SMOOTH",
"696 1683 LINE SMOOTH",
"696 1664 OFFCURVE",
"707 1653 OFFCURVE",
"726 1653 CURVE SMOOTH",
"902 1653 LINE SMOOTH",
"921 1653 OFFCURVE",
"932 1664 OFFCURVE",
"932 1683 CURVE SMOOTH",
"932 1869 LINE SMOOTH",
"932 1888 OFFCURVE",
"921 1899 OFFCURVE",
"902 1899 CURVE SMOOTH"
);
},
{
closed = 1;
nodes = (
"331 1899 LINE SMOOTH",
"312 1899 OFFCURVE",
"301 1888 OFFCURVE",
"301 1869 CURVE SMOOTH",
"301 1683 LINE SMOOTH",
"301 1664 OFFCURVE",
"312 1653 OFFCURVE",
"331 1653 CURVE SMOOTH",
"507 1653 LINE SMOOTH",
"526 1653 OFFCURVE",
"537 1664 OFFCURVE",
"537 1683 CURVE SMOOTH",
"537 1869 LINE SMOOTH",
"537 1888 OFFCURVE",
"526 1899 OFFCURVE",
"507 1899 CURVE SMOOTH"
);
}
);
width = 1233;
}
);
note = "\012\011Udieresis\012  ";
unicode = 00DC;
},
{
glyphname = Ugrave;
layers = (
{
layerId = "40F0FF51-D1E9-4DBD-A50F-345F6327BC10";
name = Bold;
paths = (
{
closed = 1;
nodes = (
"106 551 LINE SMOOTH",
"106 348 OFFCURVE",
"147 201 OFFCURVE",
"228 109 CURVE SMOOTH",
"309 17 OFFCURVE",
"438 -29 OFFCURVE",
"616 -29 CURVE SMOOTH",
"795 -29 OFFCURVE",
"924 17 OFFCURVE",
"1005 109 CURVE SMOOTH",
"1086 201 OFFCURVE",
"1126 348 OFFCURVE",
"1126 551 CURVE SMOOTH",
"1126 1493 LINE",
"831 1493 LINE",
"831 477 LINE SMOOTH",
"831 401 OFFCURVE",
"810 341 OFFCURVE",
"774 301 CURVE SMOOTH",
"736 259 OFFCURVE",
"680 238 OFFCURVE",
"616 238 CURVE SMOOTH",
"552 238 OFFCURVE",
"496 259 OFFCURVE",
"458 301 CURVE SMOOTH",
"422 341 OFFCURVE",
"401 401 OFFCURVE",
"401 477 CURVE SMOOTH",
"401 1493 LINE",
"106 1493 LINE"
);
},
{
closed = 1;
nodes = (
"567 1899 LINE",
"283 1899 LINE",
"569 1635 LINE",
"766 1635 LINE"
);
}
);
width = 1233;
}
);
note = "\012\011Ugrave\012  ";
unicode = 00D9;
},
{
glyphname = Uhorn;
lastChange = "2015-07-18 21:20:30 +0000";
layers = (
{
layerId = "40F0FF51-D1E9-4DBD-A50F-345F6327BC10";
name = Bold;
paths = (
{
closed = 1;
nodes = (
"827 1379 LINE",
"872 1346 OFFCURVE",
"906 1323 OFFCURVE",
"931 1310 CURVE SMOOTH",
"955 1297 OFFCURVE",
"976 1291 OFFCURVE",
"993 1291 CURVE SMOOTH",
"1045 1291 OFFCURVE",
"1081 1334 OFFCURVE",
"1081 1399 CURVE SMOOTH",
"1081 1451 OFFCURVE",
"1071 1502 OFFCURVE",
"1050 1555 CURVE",
"1206 1555 LINE",
"1221 1482 OFFCURVE",
"1228 1420 OFFCURVE",
"1228 1365 CURVE SMOOTH",
"1228 1212 OFFCURVE",
"1165 1127 OFFCURVE",
"1050 1127 CURVE SMOOTH",
"979 1127 OFFCURVE",
"908 1162 OFFCURVE",
"827 1238 CURVE"
);
},
{
closed = 1;
nodes = (
"5 1493 LINE",
"300 1493 LINE",
"300 477 LINE SMOOTH",
"300 328 OFFCURVE",
"380 238 OFFCURVE",
"515 238 CURVE SMOOTH",
"650 238 OFFCURVE",
"730 328 OFFCURVE",
"730 477 CURVE SMOOTH",
"730 1493 LINE",
"1025 1493 LINE",
"1025 551 LINE SMOOTH",
"1025 146 OFFCURVE",
"872 -29 OFFCURVE",
"515 -29 CURVE SMOOTH",
"159 -29 OFFCURVE",
"5 146 OFFCURVE",
"5 551 CURVE SMOOTH"
);
}
);
width = 1233;
}
);
note = Uhorn;
unicode = 01AF;
},
{
glyphname = Uhungarumlaut;
lastChange = "2015-07-18 21:08:01 +0000";
layers = (
{
layerId = "40F0FF51-D1E9-4DBD-A50F-345F6327BC10";
name = Bold;
paths = (
{
closed = 1;
nodes = (
"106 1493 LINE",
"401 1493 LINE",
"401 477 LINE SMOOTH",
"401 328 OFFCURVE",
"481 238 OFFCURVE",
"616 238 CURVE SMOOTH",
"751 238 OFFCURVE",
"831 328 OFFCURVE",
"831 477 CURVE SMOOTH",
"831 1493 LINE",
"1126 1493 LINE",
"1126 551 LINE SMOOTH",
"1126 146 OFFCURVE",
"973 -29 OFFCURVE",
"616 -29 CURVE SMOOTH",
"260 -29 OFFCURVE",
"106 146 OFFCURVE",
"106 551 CURVE SMOOTH"
);
},
{
closed = 1;
nodes = (
"838 1899 LINE",
"1122 1899 LINE",
"836 1635 LINE",
"639 1635 LINE"
);
},
{
closed = 1;
nodes = (
"463 1899 LINE",
"747 1899 LINE",
"461 1635 LINE",
"264 1635 LINE"
);
}
);
width = 1233;
}
);
note = Uhungarumlaut;
unicode = 0170;
},
{
glyphname = Umacron;
lastChange = "2015-07-18 21:08:01 +0000";
layers = (
{
layerId = "40F0FF51-D1E9-4DBD-A50F-345F6327BC10";
name = Bold;
paths = (
{
closed = 1;
nodes = (
"301 1870 LINE",
"932 1870 LINE",
"932 1682 LINE",
"301 1682 LINE"
);
},
{
closed = 1;
nodes = (
"106 1493 LINE",
"401 1493 LINE",
"401 477 LINE SMOOTH",
"401 328 OFFCURVE",
"481 238 OFFCURVE",
"616 238 CURVE SMOOTH",
"751 238 OFFCURVE",
"831 328 OFFCURVE",
"831 477 CURVE SMOOTH",
"831 1493 LINE",
"1126 1493 LINE",
"1126 551 LINE SMOOTH",
"1126 146 OFFCURVE",
"973 -29 OFFCURVE",
"616 -29 CURVE SMOOTH",
"260 -29 OFFCURVE",
"106 146 OFFCURVE",
"106 551 CURVE SMOOTH"
);
}
);
width = 1233;
}
);
note = Umacron;
unicode = 016A;
},
{
glyphname = Uogonek;
lastChange = "2015-07-18 21:08:01 +0000";
layers = (
{
layerId = "40F0FF51-D1E9-4DBD-A50F-345F6327BC10";
name = Bold;
paths = (
{
closed = 1;
nodes = (
"106 1493 LINE",
"401 1493 LINE",
"401 477 LINE SMOOTH",
"401 328 OFFCURVE",
"481 238 OFFCURVE",
"616 238 CURVE SMOOTH",
"751 238 OFFCURVE",
"831 328 OFFCURVE",
"831 477 CURVE SMOOTH",
"831 1493 LINE",
"1126 1493 LINE",
"1126 551 LINE SMOOTH",
"1126 146 OFFCURVE",
"973 -29 OFFCURVE",
"616 -29 CURVE SMOOTH",
"260 -29 OFFCURVE",
"106 146 OFFCURVE",
"106 551 CURVE SMOOTH"
);
},
{
closed = 1;
nodes = (
"686 -16 LINE",
"651 -63 OFFCURVE",
"627 -99 OFFCURVE",
"615 -122 CURVE SMOOTH",
"602 -145 OFFCURVE",
"596 -165 OFFCURVE",
"596 -182 CURVE SMOOTH",
"596 -234 OFFCURVE",
"640 -270 OFFCURVE",
"707 -270 CURVE SMOOTH",
"758 -270 OFFCURVE",
"809 -260 OFFCURVE",
"862 -239 CURVE",
"862 -395 LINE",
"790 -410 OFFCURVE",
"727 -417 OFFCURVE",
"672 -417 CURVE SMOOTH",
"520 -417 OFFCURVE",
"434 -354 OFFCURVE",
"434 -239 CURVE SMOOTH",
"434 -168 OFFCURVE",
"470 -97 OFFCURVE",
"545 -16 CURVE"
);
}
);
width = 1233;
}
);
note = Uogonek;
unicode = 0172;
},
{
glyphname = Uring;
lastChange = "2015-07-18 21:08:01 +0000";
layers = (
{
layerId = "40F0FF51-D1E9-4DBD-A50F-345F6327BC10";
name = Bold;
paths = (
{
closed = 1;
nodes = (
"106 1493 LINE",
"401 1493 LINE",
"401 477 LINE SMOOTH",
"401 328 OFFCURVE",
"481 238 OFFCURVE",
"616 238 CURVE SMOOTH",
"751 238 OFFCURVE",
"831 328 OFFCURVE",
"831 477 CURVE SMOOTH",
"831 1493 LINE",
"1126 1493 LINE",
"1126 551 LINE SMOOTH",
"1126 146 OFFCURVE",
"973 -29 OFFCURVE",
"616 -29 CURVE SMOOTH",
"260 -29 OFFCURVE",
"106 146 OFFCURVE",
"106 551 CURVE SMOOTH"
);
},
{
closed = 1;
nodes = (
"337 1773 OFFCURVE",
"464 1901 OFFCURVE",
"621 1901 CURVE SMOOTH",
"780 1901 OFFCURVE",
"906 1773 OFFCURVE",
"906 1616 CURVE SMOOTH",
"906 1459 OFFCURVE",
"780 1331 OFFCURVE",
"621 1331 CURVE SMOOTH",
"464 1331 OFFCURVE",
"337 1459 OFFCURVE",
"337 1616 CURVE SMOOTH"
);
},
{
closed = 1;
nodes = (
"490 1543 OFFCURVE",
"549 1485 OFFCURVE",
"621 1485 CURVE SMOOTH",
"694 1485 OFFCURVE",
"753 1544 OFFCURVE",
"753 1616 CURVE SMOOTH",
"753 1688 OFFCURVE",
"693 1747 OFFCURVE",
"621 1747 CURVE SMOOTH",
"549 1747 OFFCURVE",
"490 1688 OFFCURVE",
"490 1616 CURVE SMOOTH"
);
}
);
width = 1233;
}
);
note = Uring;
unicode = 016E;
},
{
glyphname = Utilde;
lastChange = "2015-07-18 21:20:30 +0000";
layers = (
{
layerId = "40F0FF51-D1E9-4DBD-A50F-345F6327BC10";
name = Bold;
paths = (
{
closed = 1;
nodes = (
"564 1718 LINE SMOOTH",
"561 1720 OFFCURVE",
"557 1722 OFFCURVE",
"552 1725 CURVE SMOOTH",
"522 1742 OFFCURVE",
"498 1751 OFFCURVE",
"479 1751 CURVE SMOOTH",
"438 1751 OFFCURVE",
"408 1708 OFFCURVE",
"408 1641 CURVE SMOOTH",
"408 1635 LINE",
"268 1635 LINE",
"268 1665 LINE SMOOTH",
"268 1806 OFFCURVE",
"348 1901 OFFCURVE",
"465 1901 CURVE SMOOTH",
"513 1901 OFFCURVE",
"563 1884 OFFCURVE",
"614 1852 CURVE SMOOTH",
"674 1813 LINE SMOOTH",
"702 1794 OFFCURVE",
"729 1784 OFFCURVE",
"750 1784 CURVE SMOOTH",
"798 1784 OFFCURVE",
"825 1825 OFFCURVE",
"825 1901 CURVE",
"965 1901 LINE",
"965 1898 OFFCURVE",
"965 1893 OFFCURVE",
"964 1886 CURVE SMOOTH",
"963 1879 OFFCURVE",
"963 1874 OFFCURVE",
"963 1870 CURVE SMOOTH",
"963 1729 OFFCURVE",
"885 1635 OFFCURVE",
"768 1635 CURVE SMOOTH",
"719 1635 OFFCURVE",
"674 1648 OFFCURVE",
"618 1684 CURVE SMOOTH"
);
},
{
closed = 1;
nodes = (
"106 1493 LINE",
"401 1493 LINE",
"401 477 LINE SMOOTH",
"401 328 OFFCURVE",
"481 238 OFFCURVE",
"616 238 CURVE SMOOTH",
"751 238 OFFCURVE",
"831 328 OFFCURVE",
"831 477 CURVE SMOOTH",
"831 1493 LINE",
"1126 1493 LINE",
"1126 551 LINE SMOOTH",
"1126 146 OFFCURVE",
"973 -29 OFFCURVE",
"616 -29 CURVE SMOOTH",
"260 -29 OFFCURVE",
"106 146 OFFCURVE",
"106 551 CURVE SMOOTH"
);
}
);
width = 1233;
}
);
note = Utilde;
unicode = 0168;
},
{
glyphname = V;
layers = (
{
layerId = "40F0FF51-D1E9-4DBD-A50F-345F6327BC10";
name = Bold;
paths = (
{
closed = 1;
nodes = (
"616 246 LINE",
"354 1493 LINE",
"57 1493 LINE",
"412 0 LINE",
"821 0 LINE",
"1176 1493 LINE",
"879 1493 LINE"
);
}
);
width = 1233;
}
);
note = "\012\011V\012  ";
unicode = 0056;
},
{
glyphname = W;
layers = (
{
layerId = "40F0FF51-D1E9-4DBD-A50F-345F6327BC10";
name = Bold;
paths = (
{
closed = 1;
nodes = (
"0 1493 LINE",
"184 0 LINE",
"457 0 LINE",
"616 784 LINE",
"786 0 LINE",
"1061 0 LINE",
"1233 1493 LINE",
"973 1493 LINE",
"889 397 LINE",
"739 1106 LINE",
"494 1106 LINE",
"365 397 LINE",
"258 1493 LINE"
);
}
);
width = 1233;
}
);
note = "\012\011W\012  ";
unicode = 0057;
},
{
glyphname = Wacute;
lastChange = "2015-07-18 20:49:15 +0000";
layers = (
{
layerId = "40F0FF51-D1E9-4DBD-A50F-345F6327BC10";
name = Bold;
paths = (
{
closed = 1;
nodes = (
"668 1906 LINE",
"952 1906 LINE",
"666 1642 LINE",
"469 1642 LINE"
);
},
{
closed = 1;
nodes = (
"0 1493 LINE",
"258 1493 LINE",
"365 397 LINE",
"494 1106 LINE",
"739 1106 LINE",
"889 397 LINE",
"973 1493 LINE",
"1233 1493 LINE",
"1061 0 LINE",
"786 0 LINE",
"616 784 LINE",
"457 0 LINE",
"184 0 LINE"
);
}
);
width = 1233;
}
);
note = Wacute;
unicode = 1E82;
},
{
glyphname = Wcircumflex;
lastChange = "2015-07-18 20:49:15 +0000";
layers = (
{
layerId = "40F0FF51-D1E9-4DBD-A50F-345F6327BC10";
name = Bold;
paths = (
{
closed = 1;
nodes = (
"461 1906 LINE",
"770 1906 LINE",
"993 1642 LINE",
"815 1642 LINE",
"616 1803 LINE",
"418 1642 LINE",
"240 1642 LINE"
);
},
{
closed = 1;
nodes = (
"0 1493 LINE",
"258 1493 LINE",
"365 397 LINE",
"494 1106 LINE",
"739 1106 LINE",
"889 397 LINE",
"973 1493 LINE",
"1233 1493 LINE",
"1061 0 LINE",
"786 0 LINE",
"616 784 LINE",
"457 0 LINE",
"184 0 LINE"
);
}
);
width = 1233;
}
);
note = Wcircumflex;
unicode = 0174;
},
{
glyphname = Wdieresis;
lastChange = "2015-07-18 20:51:15 +0000";
layers = (
{
layerId = "40F0FF51-D1E9-4DBD-A50F-345F6327BC10";
name = Bold;
paths = (
{
closed = 1;
nodes = (
"696 1858 LINE SMOOTH",
"696 1877 OFFCURVE",
"707 1888 OFFCURVE",
"726 1888 CURVE SMOOTH",
"902 1888 LINE SMOOTH",
"921 1888 OFFCURVE",
"932 1877 OFFCURVE",
"932 1858 CURVE SMOOTH",
"932 1672 LINE SMOOTH",
"932 1653 OFFCURVE",
"921 1642 OFFCURVE",
"902 1642 CURVE SMOOTH",
"726 1642 LINE SMOOTH",
"707 1642 OFFCURVE",
"696 1653 OFFCURVE",
"696 1672 CURVE SMOOTH"
);
},
{
closed = 1;
nodes = (
"301 1858 LINE SMOOTH",
"301 1877 OFFCURVE",
"312 1888 OFFCURVE",
"331 1888 CURVE SMOOTH",
"507 1888 LINE SMOOTH",
"526 1888 OFFCURVE",
"537 1877 OFFCURVE",
"537 1858 CURVE SMOOTH",
"537 1672 LINE SMOOTH",
"537 1653 OFFCURVE",
"526 1642 OFFCURVE",
"507 1642 CURVE SMOOTH",
"331 1642 LINE SMOOTH",
"312 1642 OFFCURVE",
"301 1653 OFFCURVE",
"301 1672 CURVE SMOOTH"
);
},
{
closed = 1;
nodes = (
"0 1493 LINE",
"258 1493 LINE",
"365 397 LINE",
"494 1106 LINE",
"739 1106 LINE",
"889 397 LINE",
"973 1493 LINE",
"1233 1493 LINE",
"1061 0 LINE",
"786 0 LINE",
"616 784 LINE",
"457 0 LINE",
"184 0 LINE"
);
}
);
width = 1233;
}
);
note = Wdieresis;
unicode = 1E84;
},
{
glyphname = Wgrave;
lastChange = "2015-07-18 20:49:15 +0000";
layers = (
{
layerId = "40F0FF51-D1E9-4DBD-A50F-345F6327BC10";
name = Bold;
paths = (
{
closed = 1;
nodes = (
"567 1906 LINE",
"766 1642 LINE",
"569 1642 LINE",
"283 1906 LINE"
);
},
{
closed = 1;
nodes = (
"0 1493 LINE",
"258 1493 LINE",
"365 397 LINE",
"494 1106 LINE",
"739 1106 LINE",
"889 397 LINE",
"973 1493 LINE",
"1233 1493 LINE",
"1061 0 LINE",
"786 0 LINE",
"616 784 LINE",
"457 0 LINE",
"184 0 LINE"
);
}
);
width = 1233;
}
);
note = Wgrave;
unicode = 1E80;
},
{
glyphname = X;
layers = (
{
layerId = "40F0FF51-D1E9-4DBD-A50F-345F6327BC10";
name = Bold;
paths = (
{
closed = 1;
nodes = (
"1206 0 LINE",
"770 758 LINE",
"1194 1493 LINE",
"889 1493 LINE",
"616 1018 LINE",
"344 1493 LINE",
"39 1493 LINE",
"465 758 LINE",
"27 0 LINE",
"332 0 LINE",
"616 494 LINE",
"901 0 LINE"
);
}
);
width = 1233;
}
);
note = "\012\011X\012  ";
unicode = 0058;
},
{
glyphname = Y;
layers = (
{
layerId = "40F0FF51-D1E9-4DBD-A50F-345F6327BC10";
name = Bold;
paths = (
{
closed = 1;
nodes = (
"8 1493 LINE",
"469 588 LINE",
"469 0 LINE",
"764 0 LINE",
"764 588 LINE",
"1225 1493 LINE",
"907 1493 LINE",
"616 893 LINE",
"326 1493 LINE"
);
}
);
width = 1233;
}
);
note = "\012\011Y\012  ";
unicode = 0059;
},
{
glyphname = Yacute;
layers = (
{
layerId = "40F0FF51-D1E9-4DBD-A50F-345F6327BC10";
name = Bold;
paths = (
{
closed = 1;
nodes = (
"8 1493 LINE",
"469 588 LINE",
"469 0 LINE",
"764 0 LINE",
"764 588 LINE",
"1225 1493 LINE",
"907 1493 LINE",
"616 893 LINE",
"326 1493 LINE"
);
},
{
closed = 1;
nodes = (
"668 1899 LINE",
"469 1635 LINE",
"666 1635 LINE",
"952 1899 LINE"
);
}
);
width = 1233;
}
);
note = "\012\011Yacute\012  ";
unicode = 00DD;
},
{
glyphname = Ycircumflex;
lastChange = "2015-07-18 20:49:15 +0000";
layers = (
{
layerId = "40F0FF51-D1E9-4DBD-A50F-345F6327BC10";
name = Bold;
paths = (
{
closed = 1;
nodes = (
"461 1906 LINE",
"770 1906 LINE",
"993 1642 LINE",
"815 1642 LINE",
"616 1803 LINE",
"418 1642 LINE",
"240 1642 LINE"
);
},
{
closed = 1;
nodes = (
"8 1493 LINE",
"326 1493 LINE",
"616 893 LINE",
"907 1493 LINE",
"1225 1493 LINE",
"764 588 LINE",
"764 0 LINE",
"469 0 LINE",
"469 588 LINE"
);
}
);
width = 1233;
}
);
note = Ycircumflex;
unicode = 0176;
},
{
glyphname = Ydieresis;
layers = (
{
layerId = "40F0FF51-D1E9-4DBD-A50F-345F6327BC10";
name = Bold;
paths = (
{
closed = 1;
nodes = (
"8 1493 LINE",
"469 588 LINE",
"469 0 LINE",
"764 0 LINE",
"764 588 LINE",
"1225 1493 LINE",
"907 1493 LINE",
"616 893 LINE",
"326 1493 LINE"
);
},
{
closed = 1;
nodes = (
"726 1899 LINE SMOOTH",
"707 1899 OFFCURVE",
"696 1888 OFFCURVE",
"696 1869 CURVE SMOOTH",
"696 1683 LINE SMOOTH",
"696 1664 OFFCURVE",
"707 1653 OFFCURVE",
"726 1653 CURVE SMOOTH",
"902 1653 LINE SMOOTH",
"921 1653 OFFCURVE",
"932 1664 OFFCURVE",
"932 1683 CURVE SMOOTH",
"932 1869 LINE SMOOTH",
"932 1888 OFFCURVE",
"921 1899 OFFCURVE",
"902 1899 CURVE SMOOTH"
);
},
{
closed = 1;
nodes = (
"331 1899 LINE SMOOTH",
"312 1899 OFFCURVE",
"301 1888 OFFCURVE",
"301 1869 CURVE SMOOTH",
"301 1683 LINE SMOOTH",
"301 1664 OFFCURVE",
"312 1653 OFFCURVE",
"331 1653 CURVE SMOOTH",
"507 1653 LINE SMOOTH",
"526 1653 OFFCURVE",
"537 1664 OFFCURVE",
"537 1683 CURVE SMOOTH",
"537 1869 LINE SMOOTH",
"537 1888 OFFCURVE",
"526 1899 OFFCURVE",
"507 1899 CURVE SMOOTH"
);
}
);
width = 1233;
}
);
note = "\012\011Ydieresis\012  ";
unicode = 0178;
},
{
glyphname = Ygrave;
lastChange = "2015-07-18 20:49:15 +0000";
layers = (
{
layerId = "40F0FF51-D1E9-4DBD-A50F-345F6327BC10";
name = Bold;
paths = (
{
closed = 1;
nodes = (
"567 1906 LINE",
"766 1642 LINE",
"569 1642 LINE",
"283 1906 LINE"
);
},
{
closed = 1;
nodes = (
"8 1493 LINE",
"326 1493 LINE",
"616 893 LINE",
"907 1493 LINE",
"1225 1493 LINE",
"764 588 LINE",
"764 0 LINE",
"469 0 LINE",
"469 588 LINE"
);
}
);
width = 1233;
}
);
note = Ygrave;
unicode = 1EF2;
},
{
glyphname = Z;
layers = (
{
layerId = "40F0FF51-D1E9-4DBD-A50F-345F6327BC10";
name = Bold;
paths = (
{
closed = 1;
nodes = (
"116 1493 LINE",
"116 1233 LINE",
"765 1233 LINE",
"94 244 LINE",
"94 0 LINE",
"1140 0 LINE",
"1140 260 LINE",
"434 260 LINE",
"1126 1249 LINE",
"1126 1493 LINE"
);
}
);
width = 1233;
}
);
note = "\012\011Z\012  ";
unicode = 005A;
},
{
glyphname = Zacute;
lastChange = "2015-07-18 21:08:01 +0000";
layers = (
{
layerId = "40F0FF51-D1E9-4DBD-A50F-345F6327BC10";
name = Bold;
paths = (
{
closed = 1;
nodes = (
"699 1900 LINE",
"983 1900 LINE",
"697 1636 LINE",
"500 1636 LINE"
);
},
{
closed = 1;
nodes = (
"137 1493 LINE",
"1147 1493 LINE",
"1147 1249 LINE",
"455 260 LINE",
"1161 260 LINE",
"1161 0 LINE",
"115 0 LINE",
"115 244 LINE",
"786 1233 LINE",
"137 1233 LINE"
);
}
);
width = 1233;
}
);
note = Zacute;
unicode = 0179;
},
{
glyphname = Zcaron;
layers = (
{
layerId = "40F0FF51-D1E9-4DBD-A50F-345F6327BC10";
name = Bold;
paths = (
{
closed = 1;
nodes = (
"137 1493 LINE",
"137 1233 LINE",
"786 1233 LINE",
"115 244 LINE",
"115 0 LINE",
"1161 0 LINE",
"1161 260 LINE",
"455 260 LINE",
"1147 1249 LINE",
"1147 1493 LINE"
);
},
{
closed = 1;
nodes = (
"461 1635 LINE",
"770 1635 LINE",
"993 1899 LINE",
"815 1899 LINE",
"616 1737 LINE",
"418 1899 LINE",
"240 1899 LINE"
);
}
);
width = 1233;
}
);
note = "\012\011Zcaron\012  ";
unicode = 017D;
},
{
glyphname = Zdotaccent;
lastChange = "2015-07-18 22:06:50 +0000";
layers = (
{
layerId = "40F0FF51-D1E9-4DBD-A50F-345F6327BC10";
name = Bold;
paths = (
{
closed = 1;
nodes = (
"137 1493 LINE",
"1147 1493 LINE",
"1147 1249 LINE",
"455 260 LINE",
"1161 260 LINE",
"1161 0 LINE",
"115 0 LINE",
"115 244 LINE",
"786 1233 LINE",
"137 1233 LINE"
);
},
{
closed = 1;
nodes = (
"529 1869 LINE SMOOTH",
"529 1888 OFFCURVE",
"540 1899 OFFCURVE",
"559 1899 CURVE SMOOTH",
"774 1899 LINE SMOOTH",
"793 1899 OFFCURVE",
"804 1888 OFFCURVE",
"804 1869 CURVE SMOOTH",
"804 1683 LINE SMOOTH",
"804 1664 OFFCURVE",
"793 1653 OFFCURVE",
"774 1653 CURVE SMOOTH",
"559 1653 LINE SMOOTH",
"540 1653 OFFCURVE",
"529 1664 OFFCURVE",
"529 1683 CURVE SMOOTH"
);
}
);
width = 1233;
}
);
note = Zdotaccent;
unicode = 017B;
},
{
glyphname = Acircumflex.001;
lastChange = "2015-07-18 21:08:01 +0000";
layers = (
{
layerId = "40F0FF51-D1E9-4DBD-A50F-345F6327BC10";
name = Bold;
paths = (
{
closed = 1;
nodes = (
"616 1223 LINE",
"477 612 LINE",
"756 612 LINE"
);
},
{
closed = 1;
nodes = (
"436 1493 LINE",
"797 1493 LINE",
"1200 0 LINE",
"905 0 LINE",
"813 369 LINE",
"418 369 LINE",
"328 0 LINE",
"33 0 LINE"
);
},
{
closed = 1;
nodes = (
"461 1899 LINE",
"770 1899 LINE",
"993 1635 LINE",
"815 1635 LINE",
"616 1796 LINE",
"418 1635 LINE",
"240 1635 LINE"
);
}
);
width = 1233;
}
);
note = Acircumflex;
},
{
glyphname = Adieresis.001;
lastChange = "2015-07-18 22:06:56 +0000";
layers = (
{
layerId = "40F0FF51-D1E9-4DBD-A50F-345F6327BC10";
name = Bold;
paths = (
{
closed = 1;
nodes = (
"616 1223 LINE",
"477 612 LINE",
"756 612 LINE"
);
},
{
closed = 1;
nodes = (
"436 1493 LINE",
"797 1493 LINE",
"1200 0 LINE",
"905 0 LINE",
"813 369 LINE",
"418 369 LINE",
"328 0 LINE",
"33 0 LINE"
);
},
{
closed = 1;
nodes = (
"696 1869 LINE SMOOTH",
"696 1888 OFFCURVE",
"707 1899 OFFCURVE",
"726 1899 CURVE SMOOTH",
"902 1899 LINE SMOOTH",
"921 1899 OFFCURVE",
"932 1888 OFFCURVE",
"932 1869 CURVE SMOOTH",
"932 1683 LINE SMOOTH",
"932 1664 OFFCURVE",
"921 1653 OFFCURVE",
"902 1653 CURVE SMOOTH",
"726 1653 LINE SMOOTH",
"707 1653 OFFCURVE",
"696 1664 OFFCURVE",
"696 1683 CURVE SMOOTH"
);
},
{
closed = 1;
nodes = (
"301 1869 LINE SMOOTH",
"301 1888 OFFCURVE",
"312 1899 OFFCURVE",
"331 1899 CURVE SMOOTH",
"507 1899 LINE SMOOTH",
"526 1899 OFFCURVE",
"537 1888 OFFCURVE",
"537 1869 CURVE SMOOTH",
"537 1683 LINE SMOOTH",
"537 1664 OFFCURVE",
"526 1653 OFFCURVE",
"507 1653 CURVE SMOOTH",
"331 1653 LINE SMOOTH",
"312 1653 OFFCURVE",
"301 1664 OFFCURVE",
"301 1683 CURVE SMOOTH"
);
}
);
width = 1233;
}
);
note = Adieresis;
},
{
glyphname = a;
layers = (
{
layerId = "40F0FF51-D1E9-4DBD-A50F-345F6327BC10";
name = Bold;
paths = (
{
closed = 1;
nodes = (
"817 526 LINE",
"817 506 LINE SMOOTH",
"817 401 OFFCURVE",
"796 320 OFFCURVE",
"753 262 CURVE SMOOTH",
"710 203 OFFCURVE",
"649 174 OFFCURVE",
"575 174 CURVE SMOOTH",
"521 174 OFFCURVE",
"481 189 OFFCURVE",
"451 219 CURVE SMOOTH",
"421 249 OFFCURVE",
"406 288 OFFCURVE",
"406 342 CURVE SMOOTH",
"406 407 OFFCURVE",
"428 456 OFFCURVE",
"471 484 CURVE SMOOTH",
"514 512 OFFCURVE",
"591 526 OFFCURVE",
"700 526 CURVE SMOOTH"
);
},
{
closed = 1;
nodes = (
"1108 639 LINE SMOOTH",
"1108 848 OFFCURVE",
"1067 964 OFFCURVE",
"997 1035 CURVE SMOOTH",
"926 1107 OFFCURVE",
"810 1147 OFFCURVE",
"615 1147 CURVE SMOOTH",
"539 1147 OFFCURVE",
"469 1141 OFFCURVE",
"402 1128 CURVE SMOOTH",
"333 1115 OFFCURVE",
"263 1093 OFFCURVE",
"205 1069 CURVE",
"205 819 LINE",
"276 858 OFFCURVE",
"348 887 OFFCURVE",
"411 904 CURVE SMOOTH",
"476 921 OFFCURVE",
"546 930 OFFCURVE",
"609 930 CURVE SMOOTH",
"678 930 OFFCURVE",
"731 919 OFFCURVE",
"766 894 CURVE SMOOTH",
"798 871 OFFCURVE",
"817 835 OFFCURVE",
"817 786 CURVE SMOOTH",
"817 737 LINE",
"614 737 LINE SMOOTH",
"437 737 OFFCURVE",
"306 706 OFFCURVE",
"221 644 CURVE SMOOTH",
"134 580 OFFCURVE",
"94 481 OFFCURVE",
"94 354 CURVE SMOOTH",
"94 233 OFFCURVE",
"130 139 OFFCURVE",
"201 72 CURVE SMOOTH",
"272 5 OFFCURVE",
"373 -29 OFFCURVE",
"493 -29 CURVE SMOOTH",
"567 -29 OFFCURVE",
"626 -16 OFFCURVE",
"681 11 CURVE SMOOTH",
"736 38 OFFCURVE",
"782 76 OFFCURVE",
"817 125 CURVE",
"846 0 LINE",
"1108 0 LINE"
);
}
);
width = 1233;
}
);
note = "\012\011a\012  ";
unicode = 0061;
},
{
glyphname = aacute;
layers = (
{
layerId = "40F0FF51-D1E9-4DBD-A50F-345F6327BC10";
name = Bold;
paths = (
{
closed = 1;
nodes = (
"817 526 LINE",
"817 506 LINE SMOOTH",
"817 401 OFFCURVE",
"796 320 OFFCURVE",
"753 262 CURVE SMOOTH",
"710 203 OFFCURVE",
"649 174 OFFCURVE",
"575 174 CURVE SMOOTH",
"521 174 OFFCURVE",
"481 189 OFFCURVE",
"451 219 CURVE SMOOTH",
"421 249 OFFCURVE",
"406 288 OFFCURVE",
"406 342 CURVE SMOOTH",
"406 407 OFFCURVE",
"428 456 OFFCURVE",
"471 484 CURVE SMOOTH",
"514 512 OFFCURVE",
"591 526 OFFCURVE",
"700 526 CURVE SMOOTH"
);
},
{
closed = 1;
nodes = (
"1108 639 LINE SMOOTH",
"1108 848 OFFCURVE",
"1067 964 OFFCURVE",
"997 1035 CURVE SMOOTH",
"926 1107 OFFCURVE",
"810 1147 OFFCURVE",
"615 1147 CURVE SMOOTH",
"539 1147 OFFCURVE",
"469 1141 OFFCURVE",
"402 1128 CURVE SMOOTH",
"333 1115 OFFCURVE",
"263 1093 OFFCURVE",
"205 1069 CURVE",
"205 819 LINE",
"276 858 OFFCURVE",
"348 887 OFFCURVE",
"411 904 CURVE SMOOTH",
"476 921 OFFCURVE",
"546 930 OFFCURVE",
"609 930 CURVE SMOOTH",
"678 930 OFFCURVE",
"731 919 OFFCURVE",
"766 894 CURVE SMOOTH",
"798 871 OFFCURVE",
"817 835 OFFCURVE",
"817 786 CURVE SMOOTH",
"817 737 LINE",
"614 737 LINE SMOOTH",
"437 737 OFFCURVE",
"306 706 OFFCURVE",
"221 644 CURVE SMOOTH",
"134 580 OFFCURVE",
"94 481 OFFCURVE",
"94 354 CURVE SMOOTH",
"94 233 OFFCURVE",
"130 139 OFFCURVE",
"201 72 CURVE SMOOTH",
"272 5 OFFCURVE",
"373 -29 OFFCURVE",
"493 -29 CURVE SMOOTH",
"567 -29 OFFCURVE",
"626 -16 OFFCURVE",
"681 11 CURVE SMOOTH",
"736 38 OFFCURVE",
"782 76 OFFCURVE",
"817 125 CURVE",
"846 0 LINE",
"1108 0 LINE"
);
},
{
closed = 1;
nodes = (
"752 1638 LINE",
"469 1262 LINE",
"666 1262 LINE",
"1034 1638 LINE"
);
}
);
width = 1233;
}
);
note = "\012\011aacute\012  ";
unicode = 00E1;
},
{
glyphname = abreve;
lastChange = "2015-07-18 21:10:33 +0000";
layers = (
{
layerId = "40F0FF51-D1E9-4DBD-A50F-345F6327BC10";
name = Bold;
paths = (
{
closed = 1;
nodes = (
"700 526 LINE SMOOTH",
"481 526 OFFCURVE",
"406 476 OFFCURVE",
"406 340 CURVE SMOOTH",
"406 239 OFFCURVE",
"470 174 OFFCURVE",
"573 174 CURVE SMOOTH",
"728 174 OFFCURVE",
"817 297 OFFCURVE",
"817 506 CURVE SMOOTH",
"817 526 LINE"
);
},
{
closed = 1;
nodes = (
"1108 0 LINE",
"817 0 LINE",
"817 125 LINE",
"746 26 OFFCURVE",
"631 -29 OFFCURVE",
"498 -29 CURVE SMOOTH",
"243 -29 OFFCURVE",
"94 113 OFFCURVE",
"94 354 CURVE SMOOTH",
"94 615 OFFCURVE",
"259 737 OFFCURVE",
"614 737 CURVE SMOOTH",
"817 737 LINE",
"817 786 LINE SMOOTH",
"817 881 OFFCURVE",
"747 930 OFFCURVE",
"614 930 CURVE SMOOTH",
"474 930 OFFCURVE",
"348 896 OFFCURVE",
"205 819 CURVE",
"205 1069 LINE",
"334 1122 OFFCURVE",
"465 1147 OFFCURVE",
"614 1147 CURVE SMOOTH",
"978 1147 OFFCURVE",
"1108 1020 OFFCURVE",
"1108 639 CURVE SMOOTH"
);
},
{
closed = 1;
nodes = (
"422 1606 LINE",
"437 1514 OFFCURVE",
"505 1462 OFFCURVE",
"616 1462 CURVE SMOOTH",
"727 1462 OFFCURVE",
"794 1513 OFFCURVE",
"809 1606 CURVE",
"952 1606 LINE",
"944 1414 OFFCURVE",
"825 1309 OFFCURVE",
"616 1309 CURVE SMOOTH",
"408 1309 OFFCURVE",
"289 1414 OFFCURVE",
"281 1606 CURVE"
);
}
);
width = 1233;
}
);
note = abreve;
unicode = 0103;
},
{
glyphname = acircumflex;
layers = (
{
layerId = "40F0FF51-D1E9-4DBD-A50F-345F6327BC10";
name = Bold;
paths = (
{
closed = 1;
nodes = (
"817 526 LINE",
"817 506 LINE SMOOTH",
"817 401 OFFCURVE",
"796 320 OFFCURVE",
"753 262 CURVE SMOOTH",
"710 203 OFFCURVE",
"649 174 OFFCURVE",
"575 174 CURVE SMOOTH",
"521 174 OFFCURVE",
"481 189 OFFCURVE",
"451 219 CURVE SMOOTH",
"421 249 OFFCURVE",
"406 288 OFFCURVE",
"406 342 CURVE SMOOTH",
"406 407 OFFCURVE",
"428 456 OFFCURVE",
"471 484 CURVE SMOOTH",
"514 512 OFFCURVE",
"591 526 OFFCURVE",
"700 526 CURVE SMOOTH"
);
},
{
closed = 1;
nodes = (
"1108 639 LINE SMOOTH",
"1108 848 OFFCURVE",
"1067 964 OFFCURVE",
"997 1035 CURVE SMOOTH",
"926 1107 OFFCURVE",
"810 1147 OFFCURVE",
"615 1147 CURVE SMOOTH",
"539 1147 OFFCURVE",
"469 1141 OFFCURVE",
"402 1128 CURVE SMOOTH",
"333 1115 OFFCURVE",
"263 1093 OFFCURVE",
"205 1069 CURVE",
"205 819 LINE",
"276 858 OFFCURVE",
"348 887 OFFCURVE",
"411 904 CURVE SMOOTH",
"476 921 OFFCURVE",
"546 930 OFFCURVE",
"609 930 CURVE SMOOTH",
"678 930 OFFCURVE",
"731 919 OFFCURVE",
"766 894 CURVE SMOOTH",
"798 871 OFFCURVE",
"817 835 OFFCURVE",
"817 786 CURVE SMOOTH",
"817 737 LINE",
"614 737 LINE SMOOTH",
"437 737 OFFCURVE",
"306 706 OFFCURVE",
"221 644 CURVE SMOOTH",
"134 580 OFFCURVE",
"94 481 OFFCURVE",
"94 354 CURVE SMOOTH",
"94 233 OFFCURVE",
"130 139 OFFCURVE",
"201 72 CURVE SMOOTH",
"272 5 OFFCURVE",
"373 -29 OFFCURVE",
"493 -29 CURVE SMOOTH",
"567 -29 OFFCURVE",
"626 -16 OFFCURVE",
"681 11 CURVE SMOOTH",
"736 38 OFFCURVE",
"782 76 OFFCURVE",
"817 125 CURVE",
"846 0 LINE",
"1108 0 LINE"
);
},
{
closed = 1;
nodes = (
"496 1638 LINE",
"240 1262 LINE",
"418 1262 LINE",
"616 1487 LINE",
"815 1262 LINE",
"993 1262 LINE",
"737 1638 LINE"
);
}
);
width = 1233;
}
);
note = "\012\011acircumflex\012  ";
unicode = 00E2;
},
{
glyphname = adieresis;
layers = (
{
layerId = "40F0FF51-D1E9-4DBD-A50F-345F6327BC10";
name = Bold;
paths = (
{
closed = 1;
nodes = (
"817 526 LINE",
"817 506 LINE SMOOTH",
"817 401 OFFCURVE",
"796 320 OFFCURVE",
"753 262 CURVE SMOOTH",
"710 203 OFFCURVE",
"649 174 OFFCURVE",
"575 174 CURVE SMOOTH",
"521 174 OFFCURVE",
"481 189 OFFCURVE",
"451 219 CURVE SMOOTH",
"421 249 OFFCURVE",
"406 288 OFFCURVE",
"406 342 CURVE SMOOTH",
"406 407 OFFCURVE",
"428 456 OFFCURVE",
"471 484 CURVE SMOOTH",
"514 512 OFFCURVE",
"591 526 OFFCURVE",
"700 526 CURVE SMOOTH"
);
},
{
closed = 1;
nodes = (
"1108 639 LINE SMOOTH",
"1108 848 OFFCURVE",
"1067 964 OFFCURVE",
"997 1035 CURVE SMOOTH",
"926 1107 OFFCURVE",
"810 1147 OFFCURVE",
"615 1147 CURVE SMOOTH",
"539 1147 OFFCURVE",
"469 1141 OFFCURVE",
"402 1128 CURVE SMOOTH",
"333 1115 OFFCURVE",
"263 1093 OFFCURVE",
"205 1069 CURVE",
"205 819 LINE",
"276 858 OFFCURVE",
"348 887 OFFCURVE",
"411 904 CURVE SMOOTH",
"476 921 OFFCURVE",
"546 930 OFFCURVE",
"609 930 CURVE SMOOTH",
"678 930 OFFCURVE",
"731 919 OFFCURVE",
"766 894 CURVE SMOOTH",
"798 871 OFFCURVE",
"817 835 OFFCURVE",
"817 786 CURVE SMOOTH",
"817 737 LINE",
"614 737 LINE SMOOTH",
"437 737 OFFCURVE",
"306 706 OFFCURVE",
"221 644 CURVE SMOOTH",
"134 580 OFFCURVE",
"94 481 OFFCURVE",
"94 354 CURVE SMOOTH",
"94 233 OFFCURVE",
"130 139 OFFCURVE",
"201 72 CURVE SMOOTH",
"272 5 OFFCURVE",
"373 -29 OFFCURVE",
"493 -29 CURVE SMOOTH",
"567 -29 OFFCURVE",
"626 -16 OFFCURVE",
"681 11 CURVE SMOOTH",
"736 38 OFFCURVE",
"782 76 OFFCURVE",
"817 125 CURVE",
"846 0 LINE",
"1108 0 LINE"
);
},
{
closed = 1;
nodes = (
"726 1585 LINE SMOOTH",
"707 1585 OFFCURVE",
"696 1574 OFFCURVE",
"696 1555 CURVE SMOOTH",
"696 1369 LINE SMOOTH",
"696 1350 OFFCURVE",
"707 1339 OFFCURVE",
"726 1339 CURVE SMOOTH",
"902 1339 LINE SMOOTH",
"921 1339 OFFCURVE",
"932 1350 OFFCURVE",
"932 1369 CURVE SMOOTH",
"932 1555 LINE SMOOTH",
"932 1574 OFFCURVE",
"921 1585 OFFCURVE",
"902 1585 CURVE SMOOTH"
);
},
{
closed = 1;
nodes = (
"331 1585 LINE SMOOTH",
"312 1585 OFFCURVE",
"301 1574 OFFCURVE",
"301 1555 CURVE SMOOTH",
"301 1369 LINE SMOOTH",
"301 1350 OFFCURVE",
"312 1339 OFFCURVE",
"331 1339 CURVE SMOOTH",
"507 1339 LINE SMOOTH",
"526 1339 OFFCURVE",
"537 1350 OFFCURVE",
"537 1369 CURVE SMOOTH",
"537 1555 LINE SMOOTH",
"537 1574 OFFCURVE",
"526 1585 OFFCURVE",
"507 1585 CURVE SMOOTH"
);
}
);
width = 1233;
}
);
note = "\012\011adieresis\012  ";
unicode = 00E4;
},
{
glyphname = agrave;
layers = (
{
layerId = "40F0FF51-D1E9-4DBD-A50F-345F6327BC10";
name = Bold;
paths = (
{
closed = 1;
nodes = (
"817 526 LINE",
"817 506 LINE SMOOTH",
"817 401 OFFCURVE",
"796 320 OFFCURVE",
"753 262 CURVE SMOOTH",
"710 203 OFFCURVE",
"649 174 OFFCURVE",
"575 174 CURVE SMOOTH",
"521 174 OFFCURVE",
"481 189 OFFCURVE",
"451 219 CURVE SMOOTH",
"421 249 OFFCURVE",
"406 288 OFFCURVE",
"406 342 CURVE SMOOTH",
"406 407 OFFCURVE",
"428 456 OFFCURVE",
"471 484 CURVE SMOOTH",
"514 512 OFFCURVE",
"591 526 OFFCURVE",
"700 526 CURVE SMOOTH"
);
},
{
closed = 1;
nodes = (
"1108 639 LINE SMOOTH",
"1108 848 OFFCURVE",
"1067 964 OFFCURVE",
"997 1035 CURVE SMOOTH",
"926 1107 OFFCURVE",
"810 1147 OFFCURVE",
"615 1147 CURVE SMOOTH",
"539 1147 OFFCURVE",
"469 1141 OFFCURVE",
"402 1128 CURVE SMOOTH",
"333 1115 OFFCURVE",
"263 1093 OFFCURVE",
"205 1069 CURVE",
"205 819 LINE",
"276 858 OFFCURVE",
"348 887 OFFCURVE",
"411 904 CURVE SMOOTH",
"476 921 OFFCURVE",
"546 930 OFFCURVE",
"609 930 CURVE SMOOTH",
"678 930 OFFCURVE",
"731 919 OFFCURVE",
"766 894 CURVE SMOOTH",
"798 871 OFFCURVE",
"817 835 OFFCURVE",
"817 786 CURVE SMOOTH",
"817 737 LINE",
"614 737 LINE SMOOTH",
"437 737 OFFCURVE",
"306 706 OFFCURVE",
"221 644 CURVE SMOOTH",
"134 580 OFFCURVE",
"94 481 OFFCURVE",
"94 354 CURVE SMOOTH",
"94 233 OFFCURVE",
"130 139 OFFCURVE",
"201 72 CURVE SMOOTH",
"272 5 OFFCURVE",
"373 -29 OFFCURVE",
"493 -29 CURVE SMOOTH",
"567 -29 OFFCURVE",
"626 -16 OFFCURVE",
"681 11 CURVE SMOOTH",
"736 38 OFFCURVE",
"782 76 OFFCURVE",
"817 125 CURVE",
"846 0 LINE",
"1108 0 LINE"
);
},
{
closed = 1;
nodes = (
"481 1638 LINE",
"199 1638 LINE",
"567 1262 LINE",
"764 1262 LINE"
);
}
);
width = 1233;
}
);
note = "\012\011agrave\012  ";
unicode = 00E0;
},
{
glyphname = amacron;
lastChange = "2015-07-18 21:10:33 +0000";
layers = (
{
layerId = "40F0FF51-D1E9-4DBD-A50F-345F6327BC10";
name = Bold;
paths = (
{
closed = 1;
nodes = (
"301 1556 LINE",
"932 1556 LINE",
"932 1368 LINE",
"301 1368 LINE"
);
},
{
closed = 1;
nodes = (
"700 526 LINE SMOOTH",
"481 526 OFFCURVE",
"406 476 OFFCURVE",
"406 340 CURVE SMOOTH",
"406 239 OFFCURVE",
"470 174 OFFCURVE",
"573 174 CURVE SMOOTH",
"728 174 OFFCURVE",
"817 297 OFFCURVE",
"817 506 CURVE SMOOTH",
"817 526 LINE"
);
},
{
closed = 1;
nodes = (
"1108 0 LINE",
"817 0 LINE",
"817 125 LINE",
"746 26 OFFCURVE",
"631 -29 OFFCURVE",
"498 -29 CURVE SMOOTH",
"243 -29 OFFCURVE",
"94 113 OFFCURVE",
"94 354 CURVE SMOOTH",
"94 615 OFFCURVE",
"259 737 OFFCURVE",
"614 737 CURVE SMOOTH",
"817 737 LINE",
"817 786 LINE SMOOTH",
"817 881 OFFCURVE",
"747 930 OFFCURVE",
"614 930 CURVE SMOOTH",
"474 930 OFFCURVE",
"348 896 OFFCURVE",
"205 819 CURVE",
"205 1069 LINE",
"334 1122 OFFCURVE",
"465 1147 OFFCURVE",
"614 1147 CURVE SMOOTH",
"978 1147 OFFCURVE",
"1108 1020 OFFCURVE",
"1108 639 CURVE SMOOTH"
);
}
);
width = 1233;
}
);
note = amacron;
unicode = 0101;
},
{
glyphname = aogonek;
lastChange = "2015-07-18 21:10:33 +0000";
layers = (
{
layerId = "40F0FF51-D1E9-4DBD-A50F-345F6327BC10";
name = Bold;
paths = (
{
closed = 1;
nodes = (
"956 0 LINE",
"921 -47 OFFCURVE",
"897 -83 OFFCURVE",
"885 -106 CURVE SMOOTH",
"872 -129 OFFCURVE",
"866 -149 OFFCURVE",
"866 -166 CURVE SMOOTH",
"866 -218 OFFCURVE",
"910 -254 OFFCURVE",
"977 -254 CURVE SMOOTH",
"1028 -254 OFFCURVE",
"1079 -244 OFFCURVE",
"1132 -223 CURVE",
"1132 -379 LINE",
"1060 -394 OFFCURVE",
"997 -401 OFFCURVE",
"942 -401 CURVE SMOOTH",
"790 -401 OFFCURVE",
"704 -338 OFFCURVE",
"704 -223 CURVE SMOOTH",
"704 -152 OFFCURVE",
"740 -81 OFFCURVE",
"815 0 CURVE"
);
},
{
closed = 1;
nodes = (
"700 526 LINE SMOOTH",
"481 526 OFFCURVE",
"406 476 OFFCURVE",
"406 340 CURVE SMOOTH",
"406 239 OFFCURVE",
"470 174 OFFCURVE",
"573 174 CURVE SMOOTH",
"728 174 OFFCURVE",
"817 297 OFFCURVE",
"817 506 CURVE SMOOTH",
"817 526 LINE"
);
},
{
closed = 1;
nodes = (
"1108 0 LINE",
"817 0 LINE",
"817 125 LINE",
"746 26 OFFCURVE",
"631 -29 OFFCURVE",
"498 -29 CURVE SMOOTH",
"243 -29 OFFCURVE",
"94 113 OFFCURVE",
"94 354 CURVE SMOOTH",
"94 615 OFFCURVE",
"259 737 OFFCURVE",
"614 737 CURVE SMOOTH",
"817 737 LINE",
"817 786 LINE SMOOTH",
"817 881 OFFCURVE",
"747 930 OFFCURVE",
"614 930 CURVE SMOOTH",
"474 930 OFFCURVE",
"348 896 OFFCURVE",
"205 819 CURVE",
"205 1069 LINE",
"334 1122 OFFCURVE",
"465 1147 OFFCURVE",
"614 1147 CURVE SMOOTH",
"978 1147 OFFCURVE",
"1108 1020 OFFCURVE",
"1108 639 CURVE SMOOTH"
);
}
);
width = 1233;
}
);
note = aogonek;
unicode = 0105;
},
{
glyphname = aring;
layers = (
{
layerId = "40F0FF51-D1E9-4DBD-A50F-345F6327BC10";
name = Bold;
paths = (
{
closed = 1;
nodes = (
"817 526 LINE",
"817 506 LINE SMOOTH",
"817 401 OFFCURVE",
"796 320 OFFCURVE",
"753 262 CURVE SMOOTH",
"710 203 OFFCURVE",
"649 174 OFFCURVE",
"575 174 CURVE SMOOTH",
"521 174 OFFCURVE",
"481 189 OFFCURVE",
"451 219 CURVE SMOOTH",
"421 249 OFFCURVE",
"406 288 OFFCURVE",
"406 342 CURVE SMOOTH",
"406 407 OFFCURVE",
"428 456 OFFCURVE",
"471 484 CURVE SMOOTH",
"514 512 OFFCURVE",
"591 526 OFFCURVE",
"700 526 CURVE SMOOTH"
);
},
{
closed = 1;
nodes = (
"1108 639 LINE SMOOTH",
"1108 848 OFFCURVE",
"1067 964 OFFCURVE",
"997 1035 CURVE SMOOTH",
"926 1107 OFFCURVE",
"810 1147 OFFCURVE",
"615 1147 CURVE SMOOTH",
"539 1147 OFFCURVE",
"469 1141 OFFCURVE",
"402 1128 CURVE SMOOTH",
"333 1115 OFFCURVE",
"263 1093 OFFCURVE",
"205 1069 CURVE",
"205 819 LINE",
"276 858 OFFCURVE",
"348 887 OFFCURVE",
"411 904 CURVE SMOOTH",
"476 921 OFFCURVE",
"546 930 OFFCURVE",
"609 930 CURVE SMOOTH",
"678 930 OFFCURVE",
"731 919 OFFCURVE",
"766 894 CURVE SMOOTH",
"798 871 OFFCURVE",
"817 835 OFFCURVE",
"817 786 CURVE SMOOTH",
"817 737 LINE",
"614 737 LINE SMOOTH",
"437 737 OFFCURVE",
"306 706 OFFCURVE",
"221 644 CURVE SMOOTH",
"134 580 OFFCURVE",
"94 481 OFFCURVE",
"94 354 CURVE SMOOTH",
"94 233 OFFCURVE",
"130 139 OFFCURVE",
"201 72 CURVE SMOOTH",
"272 5 OFFCURVE",
"373 -29 OFFCURVE",
"493 -29 CURVE SMOOTH",
"567 -29 OFFCURVE",
"626 -16 OFFCURVE",
"681 11 CURVE SMOOTH",
"736 38 OFFCURVE",
"782 76 OFFCURVE",
"817 125 CURVE",
"846 0 LINE",
"1108 0 LINE"
);
},
{
closed = 1;
nodes = (
"332 1452 OFFCURVE",
"367 1379 OFFCURVE",
"414 1332 CURVE SMOOTH",
"468 1278 OFFCURVE",
"541 1249 OFFCURVE",
"617 1249 CURVE SMOOTH",
"692 1249 OFFCURVE",
"763 1277 OFFCURVE",
"819 1333 CURVE SMOOTH",
"873 1388 OFFCURVE",
"901 1458 OFFCURVE",
"901 1533 CURVE SMOOTH",
"901 1618 OFFCURVE",
"866 1689 OFFCURVE",
"818 1737 CURVE SMOOTH",
"769 1786 OFFCURVE",
"698 1819 OFFCURVE",
"616 1819 CURVE SMOOTH",
"541 1819 OFFCURVE",
"469 1791 OFFCURVE",
"415 1737 CURVE SMOOTH",
"369 1691 OFFCURVE",
"332 1620 OFFCURVE",
"332 1535 CURVE SMOOTH"
);
},
{
closed = 1;
nodes = (
"485 1570 OFFCURVE",
"498 1601 OFFCURVE",
"524 1627 CURVE SMOOTH",
"549 1652 OFFCURVE",
"580 1665 OFFCURVE",
"616 1665 CURVE SMOOTH",
"652 1665 OFFCURVE",
"683 1652 OFFCURVE",
"709 1627 CURVE SMOOTH",
"735 1601 OFFCURVE",
"748 1570 OFFCURVE",
"748 1534 CURVE SMOOTH",
"748 1498 OFFCURVE",
"735 1467 OFFCURVE",
"710 1442 CURVE SMOOTH",
"684 1416 OFFCURVE",
"652 1403 OFFCURVE",
"617 1403 CURVE SMOOTH",
"577 1403 OFFCURVE",
"544 1420 OFFCURVE",
"523 1441 CURVE SMOOTH",
"499 1465 OFFCURVE",
"485 1498 OFFCURVE",
"485 1534 CURVE SMOOTH"
);
}
);
width = 1233;
}
);
note = "\012\011aring\012  ";
unicode = 00E5;
},
{
glyphname = atilde;
layers = (
{
layerId = "40F0FF51-D1E9-4DBD-A50F-345F6327BC10";
name = Bold;
paths = (
{
closed = 1;
nodes = (
"817 526 LINE",
"817 506 LINE SMOOTH",
"817 401 OFFCURVE",
"796 320 OFFCURVE",
"753 262 CURVE SMOOTH",
"710 203 OFFCURVE",
"649 174 OFFCURVE",
"575 174 CURVE SMOOTH",
"521 174 OFFCURVE",
"481 189 OFFCURVE",
"451 219 CURVE SMOOTH",
"421 249 OFFCURVE",
"406 288 OFFCURVE",
"406 342 CURVE SMOOTH",
"406 407 OFFCURVE",
"428 456 OFFCURVE",
"471 484 CURVE SMOOTH",
"514 512 OFFCURVE",
"591 526 OFFCURVE",
"700 526 CURVE SMOOTH"
);
},
{
closed = 1;
nodes = (
"1108 639 LINE SMOOTH",
"1108 848 OFFCURVE",
"1067 964 OFFCURVE",
"997 1035 CURVE SMOOTH",
"926 1107 OFFCURVE",
"810 1147 OFFCURVE",
"615 1147 CURVE SMOOTH",
"539 1147 OFFCURVE",
"469 1141 OFFCURVE",
"402 1128 CURVE SMOOTH",
"333 1115 OFFCURVE",
"263 1093 OFFCURVE",
"205 1069 CURVE",
"205 819 LINE",
"276 858 OFFCURVE",
"348 887 OFFCURVE",
"411 904 CURVE SMOOTH",
"476 921 OFFCURVE",
"546 930 OFFCURVE",
"609 930 CURVE SMOOTH",
"678 930 OFFCURVE",
"731 919 OFFCURVE",
"766 894 CURVE SMOOTH",
"798 871 OFFCURVE",
"817 835 OFFCURVE",
"817 786 CURVE SMOOTH",
"817 737 LINE",
"614 737 LINE SMOOTH",
"437 737 OFFCURVE",
"306 706 OFFCURVE",
"221 644 CURVE SMOOTH",
"134 580 OFFCURVE",
"94 481 OFFCURVE",
"94 354 CURVE SMOOTH",
"94 233 OFFCURVE",
"130 139 OFFCURVE",
"201 72 CURVE SMOOTH",
"272 5 OFFCURVE",
"373 -29 OFFCURVE",
"493 -29 CURVE SMOOTH",
"567 -29 OFFCURVE",
"626 -16 OFFCURVE",
"681 11 CURVE SMOOTH",
"736 38 OFFCURVE",
"782 76 OFFCURVE",
"817 125 CURVE",
"846 0 LINE",
"1108 0 LINE"
);
},
{
closed = 1;
nodes = (
"618 1364 LINE SMOOTH",
"650 1342 OFFCURVE",
"677 1327 OFFCURVE",
"699 1319 CURVE SMOOTH",
"721 1311 OFFCURVE",
"744 1307 OFFCURVE",
"768 1307 CURVE SMOOTH",
"833 1307 OFFCURVE",
"882 1335 OFFCURVE",
"914 1381 CURVE SMOOTH",
"948 1430 OFFCURVE",
"965 1500 OFFCURVE",
"965 1591 CURVE",
"825 1591 LINE",
"825 1583 LINE SMOOTH",
"825 1544 OFFCURVE",
"819 1515 OFFCURVE",
"806 1494 CURVE SMOOTH",
"793 1473 OFFCURVE",
"774 1462 OFFCURVE",
"751 1462 CURVE SMOOTH",
"739 1462 OFFCURVE",
"728 1465 OFFCURVE",
"716 1470 CURVE SMOOTH",
"701 1476 OFFCURVE",
"693 1481 OFFCURVE",
"676 1493 CURVE SMOOTH",
"614 1536 LINE SMOOTH",
"586 1556 OFFCURVE",
"564 1570 OFFCURVE",
"537 1580 CURVE SMOOTH",
"513 1589 OFFCURVE",
"489 1593 OFFCURVE",
"465 1593 CURVE SMOOTH",
"399 1593 OFFCURVE",
"351 1564 OFFCURVE",
"320 1520 CURVE SMOOTH",
"287 1473 OFFCURVE",
"268 1403 OFFCURVE",
"268 1309 CURVE",
"408 1309 LINE",
"408 1317 LINE SMOOTH",
"408 1356 OFFCURVE",
"414 1386 OFFCURVE",
"427 1407 CURVE SMOOTH",
"438 1425 OFFCURVE",
"454 1438 OFFCURVE",
"479 1438 CURVE SMOOTH",
"500 1438 OFFCURVE",
"522 1428 OFFCURVE",
"551 1409 CURVE SMOOTH",
"563 1401 LINE"
);
}
);
width = 1233;
}
);
note = "\012\011atilde\012  ";
unicode = 00E3;
},
{
glyphname = ae;
layers = (
{
layerId = "40F0FF51-D1E9-4DBD-A50F-345F6327BC10";
name = Bold;
paths = (
{
closed = 1;
nodes = (
"489 401 LINE",
"489 358 LINE SMOOTH",
"489 299 OFFCURVE",
"479 256 OFFCURVE",
"459 227 CURVE SMOOTH",
"438 198 OFFCURVE",
"407 184 OFFCURVE",
"365 184 CURVE SMOOTH",
"324 184 OFFCURVE",
"293 197 OFFCURVE",
"272 222 CURVE SMOOTH",
"251 247 OFFCURVE",
"240 284 OFFCURVE",
"240 329 CURVE SMOOTH",
"240 381 OFFCURVE",
"255 418 OFFCURVE",
"285 444 CURVE SMOOTH",
"316 471 OFFCURVE",
"359 483 OFFCURVE",
"416 483 CURVE SMOOTH",
"489 483 LINE"
);
},
{
closed = 1;
nodes = (
"963 690 LINE",
"737 690 LINE",
"737 713 LINE SMOOTH",
"737 796 OFFCURVE",
"745 854 OFFCURVE",
"762 885 CURVE SMOOTH",
"779 916 OFFCURVE",
"808 932 OFFCURVE",
"850 932 CURVE SMOOTH",
"892 932 OFFCURVE",
"921 916 OFFCURVE",
"938 885 CURVE SMOOTH",
"955 854 OFFCURVE",
"963 796 OFFCURVE",
"963 713 CURVE SMOOTH"
);
},
{
closed = 1;
nodes = (
"1188 479 LINE",
"1188 606 LINE SMOOTH",
"1188 828 OFFCURVE",
"1161 952 OFFCURVE",
"1114 1028 CURVE SMOOTH",
"1065 1107 OFFCURVE",
"985 1147 OFFCURVE",
"866 1147 CURVE SMOOTH",
"803 1147 OFFCURVE",
"750 1136 OFFCURVE",
"707 1114 CURVE SMOOTH",
"663 1092 OFFCURVE",
"631 1061 OFFCURVE",
"612 1020 CURVE",
"589 1063 OFFCURVE",
"555 1096 OFFCURVE",
"515 1116 CURVE SMOOTH",
"473 1137 OFFCURVE",
"418 1147 OFFCURVE",
"357 1147 CURVE SMOOTH",
"310 1147 OFFCURVE",
"267 1141 OFFCURVE",
"220 1128 CURVE SMOOTH",
"173 1115 OFFCURVE",
"125 1095 OFFCURVE",
"76 1069 CURVE",
"76 823 LINE",
"128 861 OFFCURVE",
"179 889 OFFCURVE",
"218 905 CURVE SMOOTH",
"257 921 OFFCURVE",
"301 932 OFFCURVE",
"343 932 CURVE SMOOTH",
"393 932 OFFCURVE",
"431 916 OFFCURVE",
"457 885 CURVE SMOOTH",
"483 854 OFFCURVE",
"496 807 OFFCURVE",
"496 745 CURVE SMOOTH",
"496 694 LINE",
"420 694 LINE SMOOTH",
"284 694 OFFCURVE",
"182 664 OFFCURVE",
"115 603 CURVE SMOOTH",
"48 542 OFFCURVE",
"14 449 OFFCURVE",
"14 326 CURVE SMOOTH",
"14 213 OFFCURVE",
"43 125 OFFCURVE",
"101 63 CURVE SMOOTH",
"159 2 OFFCURVE",
"242 -29 OFFCURVE",
"346 -29 CURVE SMOOTH",
"414 -29 OFFCURVE",
"468 -16 OFFCURVE",
"512 11 CURVE SMOOTH",
"554 37 OFFCURVE",
"591 79 OFFCURVE",
"618 135 CURVE",
"646 82 OFFCURVE",
"685 41 OFFCURVE",
"735 13 CURVE SMOOTH",
"785 -15 OFFCURVE",
"843 -29 OFFCURVE",
"916 -29 CURVE SMOOTH",
"967 -29 OFFCURVE",
"1017 -22 OFFCURVE",
"1059 -8 CURVE SMOOTH",
"1100 6 OFFCURVE",
"1138 28 OFFCURVE",
"1171 57 CURVE",
"1171 301 LINE",
"1126 256 OFFCURVE",
"1087 231 OFFCURVE",
"1052 214 CURVE SMOOTH",
"1015 196 OFFCURVE",
"977 184 OFFCURVE",
"932 184 CURVE SMOOTH",
"863 184 OFFCURVE",
"818 213 OFFCURVE",
"787 260 CURVE SMOOTH",
"754 310 OFFCURVE",
"737 383 OFFCURVE",
"737 479 CURVE"
);
}
);
width = 1233;
}
);
note = "\012\011ae\012  ";
unicode = 00E6;
},
{
glyphname = b;
layers = (
{
layerId = "40F0FF51-D1E9-4DBD-A50F-345F6327BC10";
name = Bold;
paths = (
{
closed = 1;
nodes = (
"850 449 OFFCURVE",
"832 364 OFFCURVE",
"796 303 CURVE SMOOTH",
"760 242 OFFCURVE",
"710 211 OFFCURVE",
"647 211 CURVE SMOOTH",
"584 211 OFFCURVE",
"534 242 OFFCURVE",
"497 303 CURVE SMOOTH",
"460 364 OFFCURVE",
"442 449 OFFCURVE",
"442 557 CURVE SMOOTH",
"442 665 OFFCURVE",
"460 750 OFFCURVE",
"497 811 CURVE SMOOTH",
"534 872 OFFCURVE",
"584 903 OFFCURVE",
"647 903 CURVE SMOOTH",
"710 903 OFFCURVE",
"760 872 OFFCURVE",
"796 811 CURVE SMOOTH",
"832 750 OFFCURVE",
"850 665 OFFCURVE",
"850 557 CURVE SMOOTH"
);
},
{
closed = 1;
nodes = (
"442 1556 LINE",
"150 1556 LINE",
"150 0 LINE",
"413 0 LINE",
"442 166 LINE",
"473 101 OFFCURVE",
"513 53 OFFCURVE",
"563 20 CURVE SMOOTH",
"613 -13 OFFCURVE",
"671 -29 OFFCURVE",
"740 -29 CURVE SMOOTH",
"864 -29 OFFCURVE",
"966 22 OFFCURVE",
"1037 124 CURVE SMOOTH",
"1109 228 OFFCURVE",
"1143 378 OFFCURVE",
"1143 560 CURVE SMOOTH",
"1143 754 OFFCURVE",
"1104 899 OFFCURVE",
"1036 995 CURVE SMOOTH",
"966 1094 OFFCURVE",
"862 1147 OFFCURVE",
"735 1147 CURVE SMOOTH",
"667 1147 OFFCURVE",
"615 1132 OFFCURVE",
"568 1101 CURVE SMOOTH",
"520 1070 OFFCURVE",
"478 1023 OFFCURVE",
"442 961 CURVE"
);
}
);
width = 1233;
}
);
note = "\012\011b\012  ";
unicode = 0062;
},
{
glyphname = c;
layers = (
{
layerId = "40F0FF51-D1E9-4DBD-A50F-345F6327BC10";
name = Bold;
paths = (
{
closed = 1;
nodes = (
"1041 326 LINE",
"994 284 OFFCURVE",
"943 256 OFFCURVE",
"901 240 CURVE SMOOTH",
"852 221 OFFCURVE",
"798 211 OFFCURVE",
"742 211 CURVE SMOOTH",
"646 211 OFFCURVE",
"573 241 OFFCURVE",
"522 301 CURVE SMOOTH",
"471 361 OFFCURVE",
"445 447 OFFCURVE",
"445 559 CURVE SMOOTH",
"445 671 OFFCURVE",
"471 757 OFFCURVE",
"522 818 CURVE SMOOTH",
"571 876 OFFCURVE",
"642 909 OFFCURVE",
"741 909 CURVE SMOOTH",
"798 909 OFFCURVE",
"854 898 OFFCURVE",
"901 880 CURVE SMOOTH",
"948 862 OFFCURVE",
"998 832 OFFCURVE",
"1041 795 CURVE",
"1041 1063 LINE",
"986 1092 OFFCURVE",
"930 1114 OFFCURVE",
"875 1128 CURVE SMOOTH",
"819 1142 OFFCURVE",
"762 1149 OFFCURVE",
"699 1149 CURVE SMOOTH",
"529 1149 OFFCURVE",
"393 1097 OFFCURVE",
"295 993 CURVE SMOOTH",
"197 888 OFFCURVE",
"148 744 OFFCURVE",
"148 559 CURVE SMOOTH",
"148 375 OFFCURVE",
"197 231 OFFCURVE",
"294 127 CURVE SMOOTH",
"391 23 OFFCURVE",
"525 -29 OFFCURVE",
"702 -29 CURVE SMOOTH",
"771 -29 OFFCURVE",
"826 -21 OFFCURVE",
"882 -7 CURVE SMOOTH",
"938 7 OFFCURVE",
"988 26 OFFCURVE",
"1041 57 CURVE"
);
}
);
width = 1233;
}
);
note = "\012\011c\012  ";
unicode = 0063;
},
{
glyphname = cacute;
layers = (
{
layerId = "40F0FF51-D1E9-4DBD-A50F-345F6327BC10";
name = Bold;
paths = (
{
closed = 1;
nodes = (
"1061 326 LINE",
"1014 284 OFFCURVE",
"963 256 OFFCURVE",
"921 240 CURVE SMOOTH",
"872 221 OFFCURVE",
"818 211 OFFCURVE",
"762 211 CURVE SMOOTH",
"666 211 OFFCURVE",
"593 241 OFFCURVE",
"542 301 CURVE SMOOTH",
"491 361 OFFCURVE",
"465 447 OFFCURVE",
"465 559 CURVE SMOOTH",
"465 671 OFFCURVE",
"491 757 OFFCURVE",
"542 818 CURVE SMOOTH",
"591 876 OFFCURVE",
"662 909 OFFCURVE",
"761 909 CURVE SMOOTH",
"818 909 OFFCURVE",
"874 898 OFFCURVE",
"921 880 CURVE SMOOTH",
"968 862 OFFCURVE",
"1018 832 OFFCURVE",
"1061 795 CURVE",
"1061 1063 LINE",
"1006 1092 OFFCURVE",
"950 1114 OFFCURVE",
"895 1128 CURVE SMOOTH",
"839 1142 OFFCURVE",
"782 1149 OFFCURVE",
"719 1149 CURVE SMOOTH",
"549 1149 OFFCURVE",
"413 1097 OFFCURVE",
"315 993 CURVE SMOOTH",
"217 888 OFFCURVE",
"168 744 OFFCURVE",
"168 559 CURVE SMOOTH",
"168 375 OFFCURVE",
"217 231 OFFCURVE",
"314 127 CURVE SMOOTH",
"411 23 OFFCURVE",
"545 -29 OFFCURVE",
"722 -29 CURVE SMOOTH",
"791 -29 OFFCURVE",
"846 -21 OFFCURVE",
"902 -7 CURVE SMOOTH",
"958 7 OFFCURVE",
"1008 26 OFFCURVE",
"1061 57 CURVE"
);
},
{
closed = 1;
nodes = (
"854 1638 LINE",
"571 1262 LINE",
"768 1262 LINE",
"1136 1638 LINE"
);
}
);
width = 1233;
}
);
note = "\012\011cacute\012  ";
unicode = 0107;
},
{
glyphname = ccaron;
layers = (
{
layerId = "40F0FF51-D1E9-4DBD-A50F-345F6327BC10";
name = Bold;
paths = (
{
closed = 1;
nodes = (
"1061 326 LINE",
"1014 284 OFFCURVE",
"963 256 OFFCURVE",
"921 240 CURVE SMOOTH",
"872 221 OFFCURVE",
"818 211 OFFCURVE",
"762 211 CURVE SMOOTH",
"666 211 OFFCURVE",
"593 241 OFFCURVE",
"542 301 CURVE SMOOTH",
"491 361 OFFCURVE",
"465 447 OFFCURVE",
"465 559 CURVE SMOOTH",
"465 671 OFFCURVE",
"491 757 OFFCURVE",
"542 818 CURVE SMOOTH",
"591 876 OFFCURVE",
"662 909 OFFCURVE",
"761 909 CURVE SMOOTH",
"818 909 OFFCURVE",
"874 898 OFFCURVE",
"921 880 CURVE SMOOTH",
"968 862 OFFCURVE",
"1018 832 OFFCURVE",
"1061 795 CURVE",
"1061 1063 LINE",
"1006 1092 OFFCURVE",
"950 1114 OFFCURVE",
"895 1128 CURVE SMOOTH",
"839 1142 OFFCURVE",
"782 1149 OFFCURVE",
"719 1149 CURVE SMOOTH",
"549 1149 OFFCURVE",
"413 1097 OFFCURVE",
"315 993 CURVE SMOOTH",
"217 888 OFFCURVE",
"168 744 OFFCURVE",
"168 559 CURVE SMOOTH",
"168 375 OFFCURVE",
"217 231 OFFCURVE",
"314 127 CURVE SMOOTH",
"411 23 OFFCURVE",
"545 -29 OFFCURVE",
"722 -29 CURVE SMOOTH",
"791 -29 OFFCURVE",
"846 -21 OFFCURVE",
"902 -7 CURVE SMOOTH",
"958 7 OFFCURVE",
"1008 26 OFFCURVE",
"1061 57 CURVE"
);
},
{
closed = 1;
nodes = (
"598 1262 LINE",
"839 1262 LINE",
"1095 1638 LINE",
"917 1638 LINE",
"718 1411 LINE",
"520 1638 LINE",
"342 1638 LINE"
);
}
);
width = 1233;
}
);
note = "\012\011ccaron\012  ";
unicode = 010D;
},
{
glyphname = ccedilla;
layers = (
{
layerId = "40F0FF51-D1E9-4DBD-A50F-345F6327BC10";
name = Bold;
paths = (
{
closed = 1;
nodes = (
"1061 326 LINE",
"1014 284 OFFCURVE",
"963 256 OFFCURVE",
"921 240 CURVE SMOOTH",
"872 221 OFFCURVE",
"818 211 OFFCURVE",
"762 211 CURVE SMOOTH",
"666 211 OFFCURVE",
"593 241 OFFCURVE",
"542 301 CURVE SMOOTH",
"491 361 OFFCURVE",
"465 447 OFFCURVE",
"465 559 CURVE SMOOTH",
"465 671 OFFCURVE",
"491 757 OFFCURVE",
"542 818 CURVE SMOOTH",
"591 876 OFFCURVE",
"662 909 OFFCURVE",
"761 909 CURVE SMOOTH",
"818 909 OFFCURVE",
"874 898 OFFCURVE",
"921 880 CURVE SMOOTH",
"968 862 OFFCURVE",
"1018 832 OFFCURVE",
"1061 795 CURVE",
"1061 1063 LINE",
"1006 1092 OFFCURVE",
"950 1114 OFFCURVE",
"895 1128 CURVE SMOOTH",
"839 1142 OFFCURVE",
"782 1149 OFFCURVE",
"719 1149 CURVE SMOOTH",
"549 1149 OFFCURVE",
"413 1097 OFFCURVE",
"315 993 CURVE SMOOTH",
"217 888 OFFCURVE",
"168 744 OFFCURVE",
"168 559 CURVE SMOOTH",
"168 375 OFFCURVE",
"217 231 OFFCURVE",
"314 127 CURVE SMOOTH",
"411 23 OFFCURVE",
"545 -29 OFFCURVE",
"722 -29 CURVE SMOOTH",
"791 -29 OFFCURVE",
"846 -21 OFFCURVE",
"902 -7 CURVE SMOOTH",
"958 7 OFFCURVE",
"1008 26 OFFCURVE",
"1061 57 CURVE"
);
},
{
closed = 1;
nodes = (
"639 0 LINE",
"670 -40 OFFCURVE",
"692 -74 OFFCURVE",
"706 -101 CURVE SMOOTH",
"720 -128 OFFCURVE",
"727 -150 OFFCURVE",
"727 -170 CURVE SMOOTH",
"727 -194 OFFCURVE",
"716 -216 OFFCURVE",
"695 -231 CURVE SMOOTH",
"673 -246 OFFCURVE",
"643 -254 OFFCURVE",
"604 -254 CURVE SMOOTH",
"580 -254 OFFCURVE",
"554 -251 OFFCURVE",
"526 -245 CURVE SMOOTH",
"498 -239 OFFCURVE",
"469 -230 OFFCURVE",
"439 -219 CURVE",
"439 -375 LINE",
"473 -382 OFFCURVE",
"494 -389 OFFCURVE",
"543 -395 CURVE SMOOTH",
"573 -399 OFFCURVE",
"614 -401 OFFCURVE",
"645 -401 CURVE SMOOTH",
"739 -401 OFFCURVE",
"794 -382 OFFCURVE",
"829 -356 CURVE SMOOTH",
"868 -327 OFFCURVE",
"891 -282 OFFCURVE",
"891 -221 CURVE SMOOTH",
"891 -183 OFFCURVE",
"882 -149 OFFCURVE",
"864 -115 CURVE SMOOTH",
"848 -85 OFFCURVE",
"819 -43 OFFCURVE",
"779 0 CURVE"
);
}
);
width = 1233;
}
);
note = "\012\011ccedilla\012  ";
unicode = 00E7;
},
{
glyphname = cdotaccent;
lastChange = "2015-07-18 22:07:10 +0000";
layers = (
{
layerId = "40F0FF51-D1E9-4DBD-A50F-345F6327BC10";
name = Bold;
paths = (
{
closed = 1;
nodes = (
"1061 57 LINE",
"962 0 OFFCURVE",
"850 -29 OFFCURVE",
"719 -29 CURVE SMOOTH",
"374 -29 OFFCURVE",
"168 191 OFFCURVE",
"168 559 CURVE SMOOTH",
"168 928 OFFCURVE",
"376 1149 OFFCURVE",
"721 1149 CURVE SMOOTH",
"841 1149 OFFCURVE",
"950 1122 OFFCURVE",
"1061 1063 CURVE",
"1061 795 LINE",
"976 868 OFFCURVE",
"871 909 OFFCURVE",
"762 909 CURVE SMOOTH",
"571 909 OFFCURVE",
"465 783 OFFCURVE",
"465 559 CURVE SMOOTH",
"465 335 OFFCURVE",
"571 211 OFFCURVE",
"762 211 CURVE SMOOTH",
"875 211 OFFCURVE",
"973 249 OFFCURVE",
"1061 326 CURVE"
);
},
{
closed = 1;
nodes = (
"554 1555 LINE SMOOTH",
"554 1574 OFFCURVE",
"565 1585 OFFCURVE",
"584 1585 CURVE SMOOTH",
"799 1585 LINE SMOOTH",
"818 1585 OFFCURVE",
"829 1574 OFFCURVE",
"829 1555 CURVE SMOOTH",
"829 1369 LINE SMOOTH",
"829 1350 OFFCURVE",
"818 1339 OFFCURVE",
"799 1339 CURVE SMOOTH",
"584 1339 LINE SMOOTH",
"565 1339 OFFCURVE",
"554 1350 OFFCURVE",
"554 1369 CURVE SMOOTH"
);
}
);
width = 1233;
}
);
note = cdotaccent;
unicode = 010B;
},
{
glyphname = d;
layers = (
{
layerId = "40F0FF51-D1E9-4DBD-A50F-345F6327BC10";
name = Bold;
paths = (
{
closed = 1;
nodes = (
"791 961 LINE",
"755 1023 OFFCURVE",
"713 1070 OFFCURVE",
"666 1101 CURVE SMOOTH",
"616 1134 OFFCURVE",
"561 1147 OFFCURVE",
"498 1147 CURVE SMOOTH",
"367 1147 OFFCURVE",
"266 1091 OFFCURVE",
"198 995 CURVE SMOOTH",
"126 894 OFFCURVE",
"90 747 OFFCURVE",
"90 560 CURVE SMOOTH",
"90 373 OFFCURVE",
"126 225 OFFCURVE",
"196 124 CURVE SMOOTH",
"267 22 OFFCURVE",
"369 -29 OFFCURVE",
"492 -29 CURVE SMOOTH",
"562 -29 OFFCURVE",
"620 -13 OFFCURVE",
"670 20 CURVE SMOOTH",
"718 52 OFFCURVE",
"760 101 OFFCURVE",
"791 166 CURVE",
"820 0 LINE",
"1083 0 LINE",
"1083 1556 LINE",
"791 1556 LINE"
);
},
{
closed = 1;
nodes = (
"383 665 OFFCURVE",
"401 750 OFFCURVE",
"437 811 CURVE SMOOTH",
"473 872 OFFCURVE",
"523 903 OFFCURVE",
"586 903 CURVE SMOOTH",
"649 903 OFFCURVE",
"699 872 OFFCURVE",
"736 811 CURVE SMOOTH",
"773 750 OFFCURVE",
"791 665 OFFCURVE",
"791 557 CURVE SMOOTH",
"791 449 OFFCURVE",
"773 364 OFFCURVE",
"736 303 CURVE SMOOTH",
"699 242 OFFCURVE",
"649 211 OFFCURVE",
"586 211 CURVE SMOOTH",
"523 211 OFFCURVE",
"473 242 OFFCURVE",
"437 303 CURVE SMOOTH",
"401 364 OFFCURVE",
"383 449 OFFCURVE",
"383 557 CURVE SMOOTH"
);
}
);
width = 1233;
}
);
note = "\012\011d\012  ";
unicode = 0064;
},
{
glyphname = eth;
layers = (
{
layerId = "40F0FF51-D1E9-4DBD-A50F-345F6327BC10";
name = Bold;
paths = (
{
closed = 1;
nodes = (
"819 723 OFFCURVE",
"826 687 OFFCURVE",
"830 657 CURVE SMOOTH",
"834 628 OFFCURVE",
"836 590 OFFCURVE",
"836 556 CURVE SMOOTH",
"836 451 OFFCURVE",
"817 360 OFFCURVE",
"779 300 CURVE SMOOTH",
"744 244 OFFCURVE",
"689 209 OFFCURVE",
"613 209 CURVE SMOOTH",
"543 209 OFFCURVE",
"488 239 OFFCURVE",
"449 298 CURVE SMOOTH",
"411 355 OFFCURVE",
"389 439 OFFCURVE",
"389 535 CURVE SMOOTH",
"389 629 OFFCURVE",
"410 697 OFFCURVE",
"449 743 CURVE SMOOTH",
"489 790 OFFCURVE",
"548 815 OFFCURVE",
"617 815 CURVE SMOOTH",
"648 815 OFFCURVE",
"680 810 OFFCURVE",
"713 801 CURVE SMOOTH",
"741 793 OFFCURVE",
"767 784 OFFCURVE",
"811 760 CURVE"
);
},
{
closed = 1;
nodes = (
"774 1327 LINE",
"1051 1444 LINE",
"985 1567 LINE",
"688 1440 LINE",
"596 1556 LINE",
"303 1556 LINE",
"461 1354 LINE",
"178 1245 LINE",
"233 1128 LINE",
"545 1247 LINE",
"705 1028 LINE",
"687 1037 OFFCURVE",
"668 1043 OFFCURVE",
"647 1047 CURVE SMOOTH",
"626 1051 OFFCURVE",
"603 1053 OFFCURVE",
"574 1053 CURVE SMOOTH",
"426 1053 OFFCURVE",
"308 1000 OFFCURVE",
"227 913 CURVE SMOOTH",
"141 820 OFFCURVE",
"98 693 OFFCURVE",
"98 534 CURVE SMOOTH",
"98 369 OFFCURVE",
"144 226 OFFCURVE",
"236 124 CURVE SMOOTH",
"321 30 OFFCURVE",
"447 -29 OFFCURVE",
"613 -29 CURVE SMOOTH",
"772 -29 OFFCURVE",
"902 25 OFFCURVE",
"991 127 CURVE SMOOTH",
"1080 229 OFFCURVE",
"1126 377 OFFCURVE",
"1126 559 CURVE SMOOTH",
"1126 660 OFFCURVE",
"1112 752 OFFCURVE",
"1083 837 CURVE SMOOTH",
"1054 921 OFFCURVE",
"1008 1007 OFFCURVE",
"940 1100 CURVE SMOOTH"
);
}
);
width = 1233;
}
);
note = "\012\011eth\012  ";
unicode = 00F0;
},
{
glyphname = dcaron;
lastChange = "2015-07-18 21:10:33 +0000";
layers = (
{
layerId = "40F0FF51-D1E9-4DBD-A50F-345F6327BC10";
name = Bold;
paths = (
{
closed = 1;
nodes = (
"1168 1555 LINE",
"1456 1555 LINE",
"1292 1172 LINE",
"1090 1172 LINE"
);
},
{
closed = 1;
nodes = (
"791 1556 LINE",
"1083 1556 LINE",
"1083 0 LINE",
"791 0 LINE",
"791 166 LINE",
"728 37 OFFCURVE",
"629 -29 OFFCURVE",
"494 -29 CURVE SMOOTH",
"238 -29 OFFCURVE",
"90 186 OFFCURVE",
"90 559 CURVE SMOOTH",
"90 938 OFFCURVE",
"239 1147 OFFCURVE",
"504 1147 CURVE SMOOTH",
"624 1147 OFFCURVE",
"719 1085 OFFCURVE",
"791 961 CURVE"
);
},
{
closed = 1;
nodes = (
"383 341 OFFCURVE",
"459 211 OFFCURVE",
"586 211 CURVE SMOOTH",
"713 211 OFFCURVE",
"791 341 OFFCURVE",
"791 557 CURVE SMOOTH",
"791 773 OFFCURVE",
"713 903 OFFCURVE",
"586 903 CURVE SMOOTH",
"459 903 OFFCURVE",
"383 773 OFFCURVE",
"383 557 CURVE SMOOTH"
);
}
);
width = 1233;
}
);
note = dcaron;
unicode = 010F;
},
{
glyphname = dcroat;
layers = (
{
layerId = "40F0FF51-D1E9-4DBD-A50F-345F6327BC10";
name = Bold;
paths = (
{
closed = 1;
nodes = (
"791 961 LINE",
"755 1023 OFFCURVE",
"713 1070 OFFCURVE",
"666 1101 CURVE SMOOTH",
"616 1134 OFFCURVE",
"561 1147 OFFCURVE",
"498 1147 CURVE SMOOTH",
"367 1147 OFFCURVE",
"266 1091 OFFCURVE",
"198 995 CURVE SMOOTH",
"126 894 OFFCURVE",
"90 747 OFFCURVE",
"90 560 CURVE SMOOTH",
"90 373 OFFCURVE",
"126 225 OFFCURVE",
"196 124 CURVE SMOOTH",
"267 22 OFFCURVE",
"369 -29 OFFCURVE",
"492 -29 CURVE SMOOTH",
"562 -29 OFFCURVE",
"620 -13 OFFCURVE",
"670 20 CURVE SMOOTH",
"718 52 OFFCURVE",
"760 101 OFFCURVE",
"791 166 CURVE",
"820 0 LINE",
"1083 0 LINE",
"1083 1251 LINE",
"1229 1251 LINE",
"1229 1440 LINE",
"1083 1440 LINE",
"1083 1556 LINE",
"791 1556 LINE",
"791 1440 LINE",
"485 1440 LINE",
"485 1251 LINE",
"791 1251 LINE"
);
},
{
closed = 1;
nodes = (
"383 665 OFFCURVE",
"401 750 OFFCURVE",
"437 811 CURVE SMOOTH",
"473 872 OFFCURVE",
"523 903 OFFCURVE",
"586 903 CURVE SMOOTH",
"649 903 OFFCURVE",
"699 872 OFFCURVE",
"736 811 CURVE SMOOTH",
"773 750 OFFCURVE",
"791 665 OFFCURVE",
"791 557 CURVE SMOOTH",
"791 449 OFFCURVE",
"773 364 OFFCURVE",
"736 303 CURVE SMOOTH",
"699 242 OFFCURVE",
"649 211 OFFCURVE",
"586 211 CURVE SMOOTH",
"523 211 OFFCURVE",
"473 242 OFFCURVE",
"437 303 CURVE SMOOTH",
"401 364 OFFCURVE",
"383 449 OFFCURVE",
"383 557 CURVE SMOOTH"
);
}
);
width = 1233;
}
);
note = "\012\011dcroat\012  ";
unicode = 0111;
},
{
glyphname = e;
layers = (
{
layerId = "40F0FF51-D1E9-4DBD-A50F-345F6327BC10";
name = Bold;
paths = (
{
closed = 1;
nodes = (
"1102 324 LINE",
"1026 279 OFFCURVE",
"958 250 OFFCURVE",
"897 232 CURVE SMOOTH",
"832 213 OFFCURVE",
"765 203 OFFCURVE",
"697 203 CURVE SMOOTH",
"596 203 OFFCURVE",
"519 225 OFFCURVE",
"468 268 CURVE SMOOTH",
"417 311 OFFCURVE",
"391 377 OFFCURVE",
"390 465 CURVE",
"1149 465 LINE",
"1149 584 LINE SMOOTH",
"1149 755 OFFCURVE",
"1106 899 OFFCURVE",
"1012 1000 CURVE SMOOTH",
"918 1101 OFFCURVE",
"784 1147 OFFCURVE",
"627 1147 CURVE SMOOTH",
"459 1147 OFFCURVE",
"330 1094 OFFCURVE",
"235 988 CURVE SMOOTH",
"140 882 OFFCURVE",
"92 739 OFFCURVE",
"92 554 CURVE SMOOTH",
"92 367 OFFCURVE",
"141 224 OFFCURVE",
"241 122 CURVE SMOOTH",
"340 21 OFFCURVE",
"481 -29 OFFCURVE",
"675 -29 CURVE SMOOTH",
"747 -29 OFFCURVE",
"823 -22 OFFCURVE",
"894 -8 CURVE SMOOTH",
"965 6 OFFCURVE",
"1034 27 OFFCURVE",
"1102 55 CURVE"
);
},
{
closed = 1;
nodes = (
"393 684 LINE",
"400 759 OFFCURVE",
"424 818 OFFCURVE",
"464 859 CURVE SMOOTH",
"504 900 OFFCURVE",
"557 920 OFFCURVE",
"627 920 CURVE SMOOTH",
"701 920 OFFCURVE",
"759 898 OFFCURVE",
"795 861 CURVE SMOOTH",
"832 823 OFFCURVE",
"853 762 OFFCURVE",
"854 685 CURVE"
);
}
);
width = 1233;
}
);
note = "\012\011e\012  ";
unicode = 0065;
},
{
glyphname = eacute;
layers = (
{
layerId = "40F0FF51-D1E9-4DBD-A50F-345F6327BC10";
name = Bold;
paths = (
{
closed = 1;
nodes = (
"1102 324 LINE",
"1026 279 OFFCURVE",
"958 250 OFFCURVE",
"897 232 CURVE SMOOTH",
"832 213 OFFCURVE",
"765 203 OFFCURVE",
"697 203 CURVE SMOOTH",
"596 203 OFFCURVE",
"519 225 OFFCURVE",
"468 268 CURVE SMOOTH",
"417 311 OFFCURVE",
"391 377 OFFCURVE",
"390 465 CURVE",
"1149 465 LINE",
"1149 584 LINE SMOOTH",
"1149 755 OFFCURVE",
"1106 899 OFFCURVE",
"1012 1000 CURVE SMOOTH",
"918 1101 OFFCURVE",
"784 1147 OFFCURVE",
"627 1147 CURVE SMOOTH",
"459 1147 OFFCURVE",
"330 1094 OFFCURVE",
"235 988 CURVE SMOOTH",
"140 882 OFFCURVE",
"92 739 OFFCURVE",
"92 554 CURVE SMOOTH",
"92 367 OFFCURVE",
"141 224 OFFCURVE",
"241 122 CURVE SMOOTH",
"340 21 OFFCURVE",
"481 -29 OFFCURVE",
"675 -29 CURVE SMOOTH",
"747 -29 OFFCURVE",
"823 -22 OFFCURVE",
"894 -8 CURVE SMOOTH",
"965 6 OFFCURVE",
"1034 27 OFFCURVE",
"1102 55 CURVE"
);
},
{
closed = 1;
nodes = (
"393 684 LINE",
"400 759 OFFCURVE",
"424 818 OFFCURVE",
"464 859 CURVE SMOOTH",
"504 900 OFFCURVE",
"557 920 OFFCURVE",
"627 920 CURVE SMOOTH",
"701 920 OFFCURVE",
"759 898 OFFCURVE",
"795 861 CURVE SMOOTH",
"832 823 OFFCURVE",
"853 762 OFFCURVE",
"854 685 CURVE"
);
},
{
closed = 1;
nodes = (
"791 1638 LINE",
"508 1262 LINE",
"705 1262 LINE",
"1073 1638 LINE"
);
}
);
width = 1233;
}
);
note = "\012\011eacute\012  ";
unicode = 00E9;
},
{
glyphname = ecaron;
lastChange = "2015-07-18 21:10:33 +0000";
layers = (
{
layerId = "40F0FF51-D1E9-4DBD-A50F-345F6327BC10";
name = Bold;
paths = (
{
closed = 1;
nodes = (
"1102 55 LINE",
"966 -1 OFFCURVE",
"827 -29 OFFCURVE",
"670 -29 CURVE SMOOTH",
"295 -29 OFFCURVE",
"92 178 OFFCURVE",
"92 555 CURVE SMOOTH",
"92 920 OFFCURVE",
"296 1147 OFFCURVE",
"625 1147 CURVE SMOOTH",
"957 1147 OFFCURVE",
"1149 941 OFFCURVE",
"1149 584 CURVE SMOOTH",
"1149 465 LINE",
"390 465 LINE",
"391 289 OFFCURVE",
"494 203 OFFCURVE",
"698 203 CURVE SMOOTH",
"833 203 OFFCURVE",
"959 240 OFFCURVE",
"1102 324 CURVE"
);
},
{
closed = 1;
nodes = (
"854 685 LINE",
"851 840 OFFCURVE",
"774 920 OFFCURVE",
"625 920 CURVE SMOOTH",
"490 920 OFFCURVE",
"408 835 OFFCURVE",
"393 684 CURVE"
);
},
{
closed = 1;
nodes = (
"513 1267 LINE",
"257 1643 LINE",
"435 1643 LINE",
"633 1416 LINE",
"832 1643 LINE",
"1010 1643 LINE",
"754 1267 LINE"
);
}
);
width = 1233;
}
);
note = ecaron;
unicode = 011B;
},
{
glyphname = ecircumflex;
layers = (
{
layerId = "40F0FF51-D1E9-4DBD-A50F-345F6327BC10";
name = Bold;
paths = (
{
closed = 1;
nodes = (
"1102 324 LINE",
"1026 279 OFFCURVE",
"958 250 OFFCURVE",
"897 232 CURVE SMOOTH",
"832 213 OFFCURVE",
"765 203 OFFCURVE",
"697 203 CURVE SMOOTH",
"596 203 OFFCURVE",
"519 225 OFFCURVE",
"468 268 CURVE SMOOTH",
"417 311 OFFCURVE",
"391 377 OFFCURVE",
"390 465 CURVE",
"1149 465 LINE",
"1149 584 LINE SMOOTH",
"1149 755 OFFCURVE",
"1106 899 OFFCURVE",
"1012 1000 CURVE SMOOTH",
"918 1101 OFFCURVE",
"784 1147 OFFCURVE",
"627 1147 CURVE SMOOTH",
"459 1147 OFFCURVE",
"330 1094 OFFCURVE",
"235 988 CURVE SMOOTH",
"140 882 OFFCURVE",
"92 739 OFFCURVE",
"92 554 CURVE SMOOTH",
"92 367 OFFCURVE",
"141 224 OFFCURVE",
"241 122 CURVE SMOOTH",
"340 21 OFFCURVE",
"481 -29 OFFCURVE",
"675 -29 CURVE SMOOTH",
"747 -29 OFFCURVE",
"823 -22 OFFCURVE",
"894 -8 CURVE SMOOTH",
"965 6 OFFCURVE",
"1034 27 OFFCURVE",
"1102 55 CURVE"
);
},
{
closed = 1;
nodes = (
"393 684 LINE",
"400 759 OFFCURVE",
"424 818 OFFCURVE",
"464 859 CURVE SMOOTH",
"504 900 OFFCURVE",
"557 920 OFFCURVE",
"627 920 CURVE SMOOTH",
"701 920 OFFCURVE",
"759 898 OFFCURVE",
"795 861 CURVE SMOOTH",
"832 823 OFFCURVE",
"853 762 OFFCURVE",
"854 685 CURVE"
);
},
{
closed = 1;
nodes = (
"535 1638 LINE",
"279 1262 LINE",
"457 1262 LINE",
"655 1487 LINE",
"854 1262 LINE",
"1032 1262 LINE",
"776 1638 LINE"
);
}
);
width = 1233;
}
);
note = "\012\011ecircumflex\012  ";
unicode = 00EA;
},
{
glyphname = edieresis;
layers = (
{
layerId = "40F0FF51-D1E9-4DBD-A50F-345F6327BC10";
name = Bold;
paths = (
{
closed = 1;
nodes = (
"1102 324 LINE",
"1026 279 OFFCURVE",
"958 250 OFFCURVE",
"897 232 CURVE SMOOTH",
"832 213 OFFCURVE",
"765 203 OFFCURVE",
"697 203 CURVE SMOOTH",
"596 203 OFFCURVE",
"519 225 OFFCURVE",
"468 268 CURVE SMOOTH",
"417 311 OFFCURVE",
"391 377 OFFCURVE",
"390 465 CURVE",
"1149 465 LINE",
"1149 584 LINE SMOOTH",
"1149 755 OFFCURVE",
"1106 899 OFFCURVE",
"1012 1000 CURVE SMOOTH",
"918 1101 OFFCURVE",
"784 1147 OFFCURVE",
"627 1147 CURVE SMOOTH",
"459 1147 OFFCURVE",
"330 1094 OFFCURVE",
"235 988 CURVE SMOOTH",
"140 882 OFFCURVE",
"92 739 OFFCURVE",
"92 554 CURVE SMOOTH",
"92 367 OFFCURVE",
"141 224 OFFCURVE",
"241 122 CURVE SMOOTH",
"340 21 OFFCURVE",
"481 -29 OFFCURVE",
"675 -29 CURVE SMOOTH",
"747 -29 OFFCURVE",
"823 -22 OFFCURVE",
"894 -8 CURVE SMOOTH",
"965 6 OFFCURVE",
"1034 27 OFFCURVE",
"1102 55 CURVE"
);
},
{
closed = 1;
nodes = (
"393 684 LINE",
"400 759 OFFCURVE",
"424 818 OFFCURVE",
"464 859 CURVE SMOOTH",
"504 900 OFFCURVE",
"557 920 OFFCURVE",
"627 920 CURVE SMOOTH",
"701 920 OFFCURVE",
"759 898 OFFCURVE",
"795 861 CURVE SMOOTH",
"832 823 OFFCURVE",
"853 762 OFFCURVE",
"854 685 CURVE"
);
},
{
closed = 1;
nodes = (
"765 1585 LINE SMOOTH",
"746 1585 OFFCURVE",
"735 1574 OFFCURVE",
"735 1555 CURVE SMOOTH",
"735 1369 LINE SMOOTH",
"735 1350 OFFCURVE",
"746 1339 OFFCURVE",
"765 1339 CURVE SMOOTH",
"941 1339 LINE SMOOTH",
"960 1339 OFFCURVE",
"971 1350 OFFCURVE",
"971 1369 CURVE SMOOTH",
"971 1555 LINE SMOOTH",
"971 1574 OFFCURVE",
"960 1585 OFFCURVE",
"941 1585 CURVE SMOOTH"
);
},
{
closed = 1;
nodes = (
"370 1585 LINE SMOOTH",
"351 1585 OFFCURVE",
"340 1574 OFFCURVE",
"340 1555 CURVE SMOOTH",
"340 1369 LINE SMOOTH",
"340 1350 OFFCURVE",
"351 1339 OFFCURVE",
"370 1339 CURVE SMOOTH",
"546 1339 LINE SMOOTH",
"565 1339 OFFCURVE",
"576 1350 OFFCURVE",
"576 1369 CURVE SMOOTH",
"576 1555 LINE SMOOTH",
"576 1574 OFFCURVE",
"565 1585 OFFCURVE",
"546 1585 CURVE SMOOTH"
);
}
);
width = 1233;
}
);
note = "\012\011edieresis\012  ";
unicode = 00EB;
},
{
glyphname = edotaccent;
lastChange = "2015-07-18 22:07:20 +0000";
layers = (
{
layerId = "40F0FF51-D1E9-4DBD-A50F-345F6327BC10";
name = Bold;
paths = (
{
closed = 1;
nodes = (
"1102 55 LINE",
"966 -1 OFFCURVE",
"827 -29 OFFCURVE",
"670 -29 CURVE SMOOTH",
"295 -29 OFFCURVE",
"92 178 OFFCURVE",
"92 555 CURVE SMOOTH",
"92 920 OFFCURVE",
"296 1147 OFFCURVE",
"625 1147 CURVE SMOOTH",
"957 1147 OFFCURVE",
"1149 941 OFFCURVE",
"1149 584 CURVE SMOOTH",
"1149 465 LINE",
"390 465 LINE",
"391 289 OFFCURVE",
"494 203 OFFCURVE",
"698 203 CURVE SMOOTH",
"833 203 OFFCURVE",
"959 240 OFFCURVE",
"1102 324 CURVE"
);
},
{
closed = 1;
nodes = (
"854 685 LINE",
"851 840 OFFCURVE",
"774 920 OFFCURVE",
"625 920 CURVE SMOOTH",
"490 920 OFFCURVE",
"408 835 OFFCURVE",
"393 684 CURVE"
);
},
{
closed = 1;
nodes = (
"518 1555 LINE SMOOTH",
"518 1574 OFFCURVE",
"529 1585 OFFCURVE",
"548 1585 CURVE SMOOTH",
"763 1585 LINE SMOOTH",
"782 1585 OFFCURVE",
"793 1574 OFFCURVE",
"793 1555 CURVE SMOOTH",
"793 1369 LINE SMOOTH",
"793 1350 OFFCURVE",
"782 1339 OFFCURVE",
"763 1339 CURVE SMOOTH",
"548 1339 LINE SMOOTH",
"529 1339 OFFCURVE",
"518 1350 OFFCURVE",
"518 1369 CURVE SMOOTH"
);
}
);
width = 1233;
}
);
note = edotaccent;
unicode = 0117;
},
{
glyphname = egrave;
layers = (
{
layerId = "40F0FF51-D1E9-4DBD-A50F-345F6327BC10";
name = Bold;
paths = (
{
closed = 1;
nodes = (
"1102 324 LINE",
"1026 279 OFFCURVE",
"958 250 OFFCURVE",
"897 232 CURVE SMOOTH",
"832 213 OFFCURVE",
"765 203 OFFCURVE",
"697 203 CURVE SMOOTH",
"596 203 OFFCURVE",
"519 225 OFFCURVE",
"468 268 CURVE SMOOTH",
"417 311 OFFCURVE",
"391 377 OFFCURVE",
"390 465 CURVE",
"1149 465 LINE",
"1149 584 LINE SMOOTH",
"1149 755 OFFCURVE",
"1106 899 OFFCURVE",
"1012 1000 CURVE SMOOTH",
"918 1101 OFFCURVE",
"784 1147 OFFCURVE",
"627 1147 CURVE SMOOTH",
"459 1147 OFFCURVE",
"330 1094 OFFCURVE",
"235 988 CURVE SMOOTH",
"140 882 OFFCURVE",
"92 739 OFFCURVE",
"92 554 CURVE SMOOTH",
"92 367 OFFCURVE",
"141 224 OFFCURVE",
"241 122 CURVE SMOOTH",
"340 21 OFFCURVE",
"481 -29 OFFCURVE",
"675 -29 CURVE SMOOTH",
"747 -29 OFFCURVE",
"823 -22 OFFCURVE",
"894 -8 CURVE SMOOTH",
"965 6 OFFCURVE",
"1034 27 OFFCURVE",
"1102 55 CURVE"
);
},
{
closed = 1;
nodes = (
"393 684 LINE",
"400 759 OFFCURVE",
"424 818 OFFCURVE",
"464 859 CURVE SMOOTH",
"504 900 OFFCURVE",
"557 920 OFFCURVE",
"627 920 CURVE SMOOTH",
"701 920 OFFCURVE",
"759 898 OFFCURVE",
"795 861 CURVE SMOOTH",
"832 823 OFFCURVE",
"853 762 OFFCURVE",
"854 685 CURVE"
);
},
{
closed = 1;
nodes = (
"520 1638 LINE",
"238 1638 LINE",
"606 1262 LINE",
"803 1262 LINE"
);
}
);
width = 1233;
}
);
note = "\012\011egrave\012  ";
unicode = 00E8;
},
{
glyphname = emacron;
lastChange = "2015-07-18 21:10:33 +0000";
layers = (
{
layerId = "40F0FF51-D1E9-4DBD-A50F-345F6327BC10";
name = Bold;
paths = (
{
closed = 1;
nodes = (
"340 1556 LINE",
"971 1556 LINE",
"971 1368 LINE",
"340 1368 LINE"
);
},
{
closed = 1;
nodes = (
"1102 55 LINE",
"966 -1 OFFCURVE",
"827 -29 OFFCURVE",
"670 -29 CURVE SMOOTH",
"295 -29 OFFCURVE",
"92 178 OFFCURVE",
"92 555 CURVE SMOOTH",
"92 920 OFFCURVE",
"296 1147 OFFCURVE",
"625 1147 CURVE SMOOTH",
"957 1147 OFFCURVE",
"1149 941 OFFCURVE",
"1149 584 CURVE SMOOTH",
"1149 465 LINE",
"390 465 LINE",
"391 289 OFFCURVE",
"494 203 OFFCURVE",
"698 203 CURVE SMOOTH",
"833 203 OFFCURVE",
"959 240 OFFCURVE",
"1102 324 CURVE"
);
},
{
closed = 1;
nodes = (
"854 685 LINE",
"851 840 OFFCURVE",
"774 920 OFFCURVE",
"625 920 CURVE SMOOTH",
"490 920 OFFCURVE",
"408 835 OFFCURVE",
"393 684 CURVE"
);
}
);
width = 1233;
}
);
note = emacron;
unicode = 0113;
},
{
glyphname = eogonek;
lastChange = "2015-07-18 21:10:33 +0000";
layers = (
{
layerId = "40F0FF51-D1E9-4DBD-A50F-345F6327BC10";
name = Bold;
paths = (
{
closed = 1;
nodes = (
"929 0 LINE",
"894 -47 OFFCURVE",
"870 -83 OFFCURVE",
"858 -106 CURVE SMOOTH",
"845 -129 OFFCURVE",
"839 -149 OFFCURVE",
"839 -166 CURVE SMOOTH",
"839 -218 OFFCURVE",
"883 -254 OFFCURVE",
"950 -254 CURVE SMOOTH",
"1001 -254 OFFCURVE",
"1052 -244 OFFCURVE",
"1105 -223 CURVE",
"1105 -379 LINE",
"1033 -394 OFFCURVE",
"970 -401 OFFCURVE",
"915 -401 CURVE SMOOTH",
"763 -401 OFFCURVE",
"677 -338 OFFCURVE",
"677 -223 CURVE SMOOTH",
"677 -152 OFFCURVE",
"713 -81 OFFCURVE",
"788 0 CURVE"
);
},
{
closed = 1;
nodes = (
"1102 55 LINE",
"966 -1 OFFCURVE",
"827 -29 OFFCURVE",
"670 -29 CURVE SMOOTH",
"295 -29 OFFCURVE",
"92 178 OFFCURVE",
"92 555 CURVE SMOOTH",
"92 920 OFFCURVE",
"296 1147 OFFCURVE",
"625 1147 CURVE SMOOTH",
"957 1147 OFFCURVE",
"1149 941 OFFCURVE",
"1149 584 CURVE SMOOTH",
"1149 465 LINE",
"390 465 LINE",
"391 289 OFFCURVE",
"494 203 OFFCURVE",
"698 203 CURVE SMOOTH",
"833 203 OFFCURVE",
"959 240 OFFCURVE",
"1102 324 CURVE"
);
},
{
closed = 1;
nodes = (
"854 685 LINE",
"851 840 OFFCURVE",
"774 920 OFFCURVE",
"625 920 CURVE SMOOTH",
"490 920 OFFCURVE",
"408 835 OFFCURVE",
"393 684 CURVE"
);
}
);
width = 1233;
}
);
note = eogonek;
unicode = 0119;
},
{
glyphname = f;
layers = (
{
layerId = "40F0FF51-D1E9-4DBD-A50F-345F6327BC10";
name = Bold;
paths = (
{
closed = 1;
nodes = (
"739 1218 LINE SMOOTH",
"739 1257 OFFCURVE",
"749 1291 OFFCURVE",
"765 1307 CURVE SMOOTH",
"780 1323 OFFCURVE",
"810 1331 OFFCURVE",
"854 1331 CURVE SMOOTH",
"1083 1331 LINE",
"1083 1556 LINE",
"842 1556 LINE SMOOTH",
"690 1556 OFFCURVE",
"586 1530 OFFCURVE",
"530 1478 CURVE SMOOTH",
"474 1426 OFFCURVE",
"446 1333 OFFCURVE",
"446 1198 CURVE SMOOTH",
"446 1120 LINE",
"174 1120 LINE",
"174 895 LINE",
"446 895 LINE",
"446 0 LINE",
"739 0 LINE",
"739 895 LINE",
"1083 895 LINE",
"1083 1120 LINE",
"739 1120 LINE"
);
}
);
width = 1233;
}
);
note = "\012\011f\012  ";
unicode = 0066;
},
{
glyphname = g;
layers = (
{
layerId = "40F0FF51-D1E9-4DBD-A50F-345F6327BC10";
name = Bold;
paths = (
{
closed = 1;
nodes = (
"803 474 OFFCURVE",
"783 396 OFFCURVE",
"746 337 CURVE SMOOTH",
"708 276 OFFCURVE",
"658 246 OFFCURVE",
"596 246 CURVE SMOOTH",
"533 246 OFFCURVE",
"485 277 OFFCURVE",
"448 336 CURVE SMOOTH",
"410 396 OFFCURVE",
"391 477 OFFCURVE",
"391 578 CURVE SMOOTH",
"391 679 OFFCURVE",
"410 759 OFFCURVE",
"448 819 CURVE SMOOTH",
"485 878 OFFCURVE",
"533 909 OFFCURVE",
"596 909 CURVE SMOOTH",
"658 909 OFFCURVE",
"708 879 OFFCURVE",
"746 819 CURVE SMOOTH",
"785 757 OFFCURVE",
"803 675 OFFCURVE",
"803 577 CURVE SMOOTH"
);
},
{
closed = 1;
nodes = (
"1096 1120 LINE",
"832 1120 LINE",
"803 977 LINE",
"774 1032 OFFCURVE",
"735 1074 OFFCURVE",
"685 1104 CURVE SMOOTH",
"635 1134 OFFCURVE",
"579 1149 OFFCURVE",
"512 1149 CURVE SMOOTH",
"388 1149 OFFCURVE",
"286 1097 OFFCURVE",
"211 993 CURVE SMOOTH",
"136 889 OFFCURVE",
"98 747 OFFCURVE",
"98 573 CURVE SMOOTH",
"98 399 OFFCURVE",
"136 264 OFFCURVE",
"211 164 CURVE SMOOTH",
"286 64 OFFCURVE",
"387 14 OFFCURVE",
"517 14 CURVE SMOOTH",
"583 14 OFFCURVE",
"642 27 OFFCURVE",
"689 53 CURVE SMOOTH",
"736 79 OFFCURVE",
"774 119 OFFCURVE",
"803 172 CURVE",
"803 51 LINE SMOOTH",
"803 -32 OFFCURVE",
"783 -93 OFFCURVE",
"744 -132 CURVE SMOOTH",
"705 -171 OFFCURVE",
"646 -190 OFFCURVE",
"556 -190 CURVE SMOOTH",
"502 -190 OFFCURVE",
"441 -183 OFFCURVE",
"384 -168 CURVE SMOOTH",
"330 -154 OFFCURVE",
"270 -131 OFFCURVE",
"215 -100 CURVE",
"215 -369 LINE",
"277 -388 OFFCURVE",
"338 -402 OFFCURVE",
"398 -411 CURVE SMOOTH",
"458 -420 OFFCURVE",
"520 -424 OFFCURVE",
"578 -424 CURVE SMOOTH",
"763 -424 OFFCURVE",
"894 -384 OFFCURVE",
"975 -305 CURVE SMOOTH",
"1056 -225 OFFCURVE",
"1096 -95 OFFCURVE",
"1096 84 CURVE SMOOTH"
);
}
);
width = 1233;
}
);
note = "\012\011g\012  ";
unicode = 0067;
},
{
glyphname = gbreve;
layers = (
{
layerId = "40F0FF51-D1E9-4DBD-A50F-345F6327BC10";
name = Bold;
paths = (
{
closed = 1;
nodes = (
"803 474 OFFCURVE",
"783 396 OFFCURVE",
"746 337 CURVE SMOOTH",
"708 276 OFFCURVE",
"658 246 OFFCURVE",
"596 246 CURVE SMOOTH",
"533 246 OFFCURVE",
"485 277 OFFCURVE",
"448 336 CURVE SMOOTH",
"410 396 OFFCURVE",
"391 477 OFFCURVE",
"391 578 CURVE SMOOTH",
"391 679 OFFCURVE",
"410 759 OFFCURVE",
"448 819 CURVE SMOOTH",
"485 878 OFFCURVE",
"533 909 OFFCURVE",
"596 909 CURVE SMOOTH",
"658 909 OFFCURVE",
"708 879 OFFCURVE",
"746 819 CURVE SMOOTH",
"785 757 OFFCURVE",
"803 675 OFFCURVE",
"803 577 CURVE SMOOTH"
);
},
{
closed = 1;
nodes = (
"1096 1120 LINE",
"803 1120 LINE",
"803 977 LINE",
"774 1032 OFFCURVE",
"735 1074 OFFCURVE",
"685 1104 CURVE SMOOTH",
"635 1134 OFFCURVE",
"579 1149 OFFCURVE",
"512 1149 CURVE SMOOTH",
"388 1149 OFFCURVE",
"286 1097 OFFCURVE",
"211 993 CURVE SMOOTH",
"136 889 OFFCURVE",
"98 747 OFFCURVE",
"98 573 CURVE SMOOTH",
"98 399 OFFCURVE",
"136 264 OFFCURVE",
"211 164 CURVE SMOOTH",
"286 64 OFFCURVE",
"387 14 OFFCURVE",
"517 14 CURVE SMOOTH",
"583 14 OFFCURVE",
"642 27 OFFCURVE",
"689 53 CURVE SMOOTH",
"736 79 OFFCURVE",
"774 119 OFFCURVE",
"803 172 CURVE",
"803 51 LINE SMOOTH",
"803 -32 OFFCURVE",
"783 -93 OFFCURVE",
"744 -132 CURVE SMOOTH",
"705 -171 OFFCURVE",
"646 -190 OFFCURVE",
"556 -190 CURVE SMOOTH",
"502 -190 OFFCURVE",
"441 -183 OFFCURVE",
"384 -168 CURVE SMOOTH",
"330 -154 OFFCURVE",
"270 -131 OFFCURVE",
"215 -100 CURVE",
"215 -369 LINE",
"277 -388 OFFCURVE",
"338 -402 OFFCURVE",
"398 -411 CURVE SMOOTH",
"458 -420 OFFCURVE",
"520 -424 OFFCURVE",
"578 -424 CURVE SMOOTH",
"763 -424 OFFCURVE",
"894 -384 OFFCURVE",
"975 -305 CURVE SMOOTH",
"1056 -225 OFFCURVE",
"1096 -95 OFFCURVE",
"1096 84 CURVE SMOOTH"
);
},
{
closed = 1;
nodes = (
"281 1606 LINE",
"285 1514 OFFCURVE",
"313 1440 OFFCURVE",
"374 1386 CURVE SMOOTH",
"434 1333 OFFCURVE",
"515 1309 OFFCURVE",
"616 1309 CURVE SMOOTH",
"721 1309 OFFCURVE",
"802 1335 OFFCURVE",
"860 1386 CURVE SMOOTH",
"917 1437 OFFCURVE",
"948 1510 OFFCURVE",
"952 1606 CURVE",
"809 1606 LINE",
"802 1558 OFFCURVE",
"781 1523 OFFCURVE",
"749 1499 CURVE SMOOTH",
"716 1474 OFFCURVE",
"671 1462 OFFCURVE",
"617 1462 CURVE SMOOTH",
"561 1462 OFFCURVE",
"516 1475 OFFCURVE",
"483 1500 CURVE SMOOTH",
"450 1525 OFFCURVE",
"429 1560 OFFCURVE",
"422 1606 CURVE"
);
}
);
width = 1233;
}
);
note = "\012\011gbreve\012  ";
unicode = 011F;
},
{
glyphname = gcaron;
lastChange = "2015-07-18 21:26:21 +0000";
layers = (
{
layerId = "40F0FF51-D1E9-4DBD-A50F-345F6327BC10";
name = Bold;
paths = (
{
closed = 1;
nodes = (
"476 1262 LINE",
"220 1638 LINE",
"398 1638 LINE",
"596 1411 LINE",
"795 1638 LINE",
"973 1638 LINE",
"717 1262 LINE"
);
},
{
closed = 1;
nodes = (
"803 778 OFFCURVE",
"720 909 OFFCURVE",
"596 909 CURVE SMOOTH",
"473 909 OFFCURVE",
"391 779 OFFCURVE",
"391 578 CURVE SMOOTH",
"391 375 OFFCURVE",
"473 246 OFFCURVE",
"596 246 CURVE SMOOTH",
"720 246 OFFCURVE",
"803 377 OFFCURVE",
"803 578 CURVE SMOOTH"
);
},
{
closed = 1;
nodes = (
"1096 84 LINE SMOOTH",
"1096 -275 OFFCURVE",
"944 -424 OFFCURVE",
"580 -424 CURVE SMOOTH",
"457 -424 OFFCURVE",
"339 -406 OFFCURVE",
"215 -369 CURVE",
"215 -100 LINE",
"326 -161 OFFCURVE",
"440 -190 OFFCURVE",
"561 -190 CURVE SMOOTH",
"726 -190 OFFCURVE",
"803 -114 OFFCURVE",
"803 51 CURVE SMOOTH",
"803 172 LINE",
"746 65 OFFCURVE",
"652 14 OFFCURVE",
"516 14 CURVE SMOOTH",
"260 14 OFFCURVE",
"98 228 OFFCURVE",
"98 571 CURVE SMOOTH",
"98 926 OFFCURVE",
"261 1149 OFFCURVE",
"514 1149 CURVE SMOOTH",
"642 1149 OFFCURVE",
"746 1086 OFFCURVE",
"803 977 CURVE",
"803 1120 LINE",
"1096 1120 LINE"
);
}
);
width = 1233;
}
);
note = gcaron;
unicode = 01E7;
},
{
glyphname = gcommaaccent;
lastChange = "2015-07-18 21:10:33 +0000";
layers = (
{
layerId = "40F0FF51-D1E9-4DBD-A50F-345F6327BC10";
name = Bold;
paths = (
{
closed = 1;
nodes = (
"737 1259 LINE",
"455 1259 LINE",
"632 1565 LINE",
"826 1565 LINE"
);
},
{
closed = 1;
nodes = (
"803 778 OFFCURVE",
"720 909 OFFCURVE",
"596 909 CURVE SMOOTH",
"473 909 OFFCURVE",
"391 779 OFFCURVE",
"391 578 CURVE SMOOTH",
"391 375 OFFCURVE",
"473 246 OFFCURVE",
"596 246 CURVE SMOOTH",
"720 246 OFFCURVE",
"803 377 OFFCURVE",
"803 578 CURVE SMOOTH"
);
},
{
closed = 1;
nodes = (
"1096 84 LINE SMOOTH",
"1096 -275 OFFCURVE",
"944 -424 OFFCURVE",
"580 -424 CURVE SMOOTH",
"457 -424 OFFCURVE",
"339 -406 OFFCURVE",
"215 -369 CURVE",
"215 -100 LINE",
"326 -161 OFFCURVE",
"440 -190 OFFCURVE",
"561 -190 CURVE SMOOTH",
"726 -190 OFFCURVE",
"803 -114 OFFCURVE",
"803 51 CURVE SMOOTH",
"803 172 LINE",
"746 65 OFFCURVE",
"652 14 OFFCURVE",
"516 14 CURVE SMOOTH",
"260 14 OFFCURVE",
"98 228 OFFCURVE",
"98 571 CURVE SMOOTH",
"98 926 OFFCURVE",
"261 1149 OFFCURVE",
"514 1149 CURVE SMOOTH",
"642 1149 OFFCURVE",
"746 1086 OFFCURVE",
"803 977 CURVE",
"803 1120 LINE",
"1096 1120 LINE"
);
}
);
width = 1233;
}
);
note = gcommaaccent;
unicode = 0123;
},
{
glyphname = gdotaccent;
lastChange = "2015-07-18 22:07:39 +0000";
layers = (
{
layerId = "40F0FF51-D1E9-4DBD-A50F-345F6327BC10";
name = Bold;
paths = (
{
closed = 1;
nodes = (
"803 778 OFFCURVE",
"720 909 OFFCURVE",
"596 909 CURVE SMOOTH",
"473 909 OFFCURVE",
"391 779 OFFCURVE",
"391 578 CURVE SMOOTH",
"391 375 OFFCURVE",
"473 246 OFFCURVE",
"596 246 CURVE SMOOTH",
"720 246 OFFCURVE",
"803 377 OFFCURVE",
"803 578 CURVE SMOOTH"
);
},
{
closed = 1;
nodes = (
"1096 84 LINE SMOOTH",
"1096 -275 OFFCURVE",
"944 -424 OFFCURVE",
"580 -424 CURVE SMOOTH",
"457 -424 OFFCURVE",
"339 -406 OFFCURVE",
"215 -369 CURVE",
"215 -100 LINE",
"326 -161 OFFCURVE",
"440 -190 OFFCURVE",
"561 -190 CURVE SMOOTH",
"726 -190 OFFCURVE",
"803 -114 OFFCURVE",
"803 51 CURVE SMOOTH",
"803 172 LINE",
"746 65 OFFCURVE",
"652 14 OFFCURVE",
"516 14 CURVE SMOOTH",
"260 14 OFFCURVE",
"98 228 OFFCURVE",
"98 571 CURVE SMOOTH",
"98 926 OFFCURVE",
"261 1149 OFFCURVE",
"514 1149 CURVE SMOOTH",
"642 1149 OFFCURVE",
"746 1086 OFFCURVE",
"803 977 CURVE",
"803 1120 LINE",
"1096 1120 LINE"
);
},
{
closed = 1;
nodes = (
"479 1555 LINE SMOOTH",
"479 1574 OFFCURVE",
"490 1585 OFFCURVE",
"509 1585 CURVE SMOOTH",
"724 1585 LINE SMOOTH",
"743 1585 OFFCURVE",
"754 1574 OFFCURVE",
"754 1555 CURVE SMOOTH",
"754 1369 LINE SMOOTH",
"754 1350 OFFCURVE",
"743 1339 OFFCURVE",
"724 1339 CURVE SMOOTH",
"509 1339 LINE SMOOTH",
"490 1339 OFFCURVE",
"479 1350 OFFCURVE",
"479 1369 CURVE SMOOTH"
);
}
);
width = 1233;
}
);
note = gdotaccent;
unicode = 0121;
},
{
glyphname = h;
layers = (
{
layerId = "40F0FF51-D1E9-4DBD-A50F-345F6327BC10";
name = Bold;
paths = (
{
closed = 1;
nodes = (
"1071 727 LINE SMOOTH",
"1071 866 OFFCURVE",
"1044 971 OFFCURVE",
"990 1042 CURVE SMOOTH",
"936 1112 OFFCURVE",
"855 1147 OFFCURVE",
"751 1147 CURVE SMOOTH",
"678 1147 OFFCURVE",
"619 1130 OFFCURVE",
"569 1096 CURVE SMOOTH",
"519 1062 OFFCURVE",
"484 1014 OFFCURVE",
"463 952 CURVE",
"463 1556 LINE",
"172 1556 LINE",
"172 0 LINE",
"463 0 LINE",
"463 641 LINE SMOOTH",
"463 724 OFFCURVE",
"478 790 OFFCURVE",
"508 837 CURVE SMOOTH",
"538 884 OFFCURVE",
"579 907 OFFCURVE",
"635 907 CURVE SMOOTH",
"684 907 OFFCURVE",
"723 890 OFFCURVE",
"746 855 CURVE SMOOTH",
"769 820 OFFCURVE",
"780 763 OFFCURVE",
"780 682 CURVE SMOOTH",
"780 0 LINE",
"1071 0 LINE"
);
}
);
width = 1233;
}
);
note = "\012\011h\012  ";
unicode = 0068;
},
{
glyphname = hbar;
lastChange = "2015-07-18 21:18:34 +0000";
layers = (
{
layerId = "40F0FF51-D1E9-4DBD-A50F-345F6327BC10";
name = Bold;
paths = (
{
closed = 1;
nodes = (
"1071 0 LINE",
"780 0 LINE",
"780 682 LINE SMOOTH",
"780 843 OFFCURVE",
"737 907 OFFCURVE",
"633 907 CURVE SMOOTH",
"526 907 OFFCURVE",
"463 808 OFFCURVE",
"463 641 CURVE SMOOTH",
"463 0 LINE",
"172 0 LINE",
"172 1270 LINE",
"12 1270 LINE",
"12 1434 LINE",
"172 1434 LINE",
"172 1556 LINE",
"463 1556 LINE",
"463 1434 LINE",
"556 1434 OFFCURVE",
"648 1434 OFFCURVE",
"740 1434 CURVE",
"740 1270 LINE",
"463 1270 LINE",
"463 952 LINE",
"504 1076 OFFCURVE",
"609 1147 OFFCURVE",
"750 1147 CURVE SMOOTH",
"962 1147 OFFCURVE",
"1071 1006 OFFCURVE",
"1071 727 CURVE SMOOTH"
);
}
);
width = 1233;
}
);
note = hbar;
unicode = 0127;
},
{
glyphname = i;
layers = (
{
layerId = "40F0FF51-D1E9-4DBD-A50F-345F6327BC10";
name = Bold;
paths = (
{
closed = 1;
nodes = (
"441 1665 LINE SMOOTH",
"422 1665 OFFCURVE",
"411 1654 OFFCURVE",
"411 1635 CURVE SMOOTH",
"411 1353 LINE SMOOTH",
"411 1334 OFFCURVE",
"422 1323 OFFCURVE",
"441 1323 CURVE SMOOTH",
"674 1323 LINE SMOOTH",
"693 1323 OFFCURVE",
"704 1334 OFFCURVE",
"704 1353 CURVE SMOOTH",
"704 1635 LINE SMOOTH",
"704 1654 OFFCURVE",
"693 1665 OFFCURVE",
"674 1665 CURVE SMOOTH"
);
},
{
closed = 1;
nodes = (
"411 467 LINE SMOOTH",
"411 300 OFFCURVE",
"441 180 OFFCURVE",
"502 108 CURVE SMOOTH",
"563 36 OFFCURVE",
"663 0 OFFCURVE",
"802 0 CURVE SMOOTH",
"1118 0 LINE",
"1118 225 LINE",
"884 225 LINE SMOOTH",
"819 225 OFFCURVE",
"772 243 OFFCURVE",
"745 280 CURVE SMOOTH",
"718 317 OFFCURVE",
"704 379 OFFCURVE",
"704 467 CURVE SMOOTH",
"704 1120 LINE",
"114 1120 LINE",
"114 895 LINE",
"411 895 LINE"
);
}
);
width = 1233;
}
);
note = "\012\011i\012  ";
unicode = 0069;
},
{
glyphname = dotlessi;
lastChange = "2015-07-18 20:43:44 +0000";
layers = (
{
layerId = "40F0FF51-D1E9-4DBD-A50F-345F6327BC10";
name = Bold;
paths = (
{
closed = 1;
nodes = (
"411 467 LINE SMOOTH",
"411 300 OFFCURVE",
"441 180 OFFCURVE",
"502 108 CURVE SMOOTH",
"563 36 OFFCURVE",
"663 0 OFFCURVE",
"802 0 CURVE SMOOTH",
"1118 0 LINE",
"1118 225 LINE",
"884 225 LINE SMOOTH",
"819 225 OFFCURVE",
"772 243 OFFCURVE",
"745 280 CURVE SMOOTH",
"718 317 OFFCURVE",
"704 379 OFFCURVE",
"704 467 CURVE SMOOTH",
"704 1120 LINE",
"114 1120 LINE",
"114 895 LINE",
"411 895 LINE"
);
}
);
width = 1233;
}
);
note = "\012\011dotlessi\012  ";
unicode = 0131;
},
{
glyphname = iacute;
lastChange = "2015-07-18 20:39:38 +0000";
layers = (
{
layerId = "40F0FF51-D1E9-4DBD-A50F-345F6327BC10";
name = Bold;
paths = (
{
closed = 1;
nodes = (
"694 1638 LINE",
"411 1262 LINE",
"608 1262 LINE",
"976 1638 LINE"
);
},
{
closed = 1;
nodes = (
"411 467 LINE SMOOTH",
"411 300 OFFCURVE",
"441 180 OFFCURVE",
"502 108 CURVE SMOOTH",
"563 36 OFFCURVE",
"663 0 OFFCURVE",
"802 0 CURVE SMOOTH",
"1118 0 LINE",
"1118 225 LINE",
"884 225 LINE SMOOTH",
"819 225 OFFCURVE",
"772 243 OFFCURVE",
"745 280 CURVE SMOOTH",
"718 317 OFFCURVE",
"704 379 OFFCURVE",
"704 467 CURVE SMOOTH",
"704 1120 LINE",
"114 1120 LINE",
"114 895 LINE",
"411 895 LINE"
);
}
);
width = 1233;
}
);
note = "\012\011iacute\012  ";
unicode = 00ED;
},
{
glyphname = icircumflex;
lastChange = "2015-07-18 20:40:25 +0000";
layers = (
{
layerId = "40F0FF51-D1E9-4DBD-A50F-345F6327BC10";
name = Bold;
paths = (
{
closed = 1;
nodes = (
"385 1638 LINE",
"129 1262 LINE",
"307 1262 LINE",
"505 1487 LINE",
"704 1262 LINE",
"882 1262 LINE",
"626 1638 LINE"
);
},
{
closed = 1;
nodes = (
"411 467 LINE SMOOTH",
"411 300 OFFCURVE",
"441 180 OFFCURVE",
"502 108 CURVE SMOOTH",
"563 36 OFFCURVE",
"663 0 OFFCURVE",
"802 0 CURVE SMOOTH",
"1118 0 LINE",
"1118 225 LINE",
"884 225 LINE SMOOTH",
"819 225 OFFCURVE",
"772 243 OFFCURVE",
"745 280 CURVE SMOOTH",
"718 317 OFFCURVE",
"704 379 OFFCURVE",
"704 467 CURVE SMOOTH",
"704 1120 LINE",
"114 1120 LINE",
"114 895 LINE",
"411 895 LINE"
);
}
);
width = 1233;
}
);
note = "\012\011icircumflex\012  ";
unicode = 00EE;
},
{
glyphname = idieresis;
lastChange = "2015-07-18 20:41:08 +0000";
layers = (
{
layerId = "40F0FF51-D1E9-4DBD-A50F-345F6327BC10";
name = Bold;
paths = (
{
closed = 1;
nodes = (
"636 1585 LINE SMOOTH",
"617 1585 OFFCURVE",
"606 1574 OFFCURVE",
"606 1555 CURVE SMOOTH",
"606 1369 LINE SMOOTH",
"606 1350 OFFCURVE",
"617 1339 OFFCURVE",
"636 1339 CURVE SMOOTH",
"812 1339 LINE SMOOTH",
"831 1339 OFFCURVE",
"842 1350 OFFCURVE",
"842 1369 CURVE SMOOTH",
"842 1555 LINE SMOOTH",
"842 1574 OFFCURVE",
"831 1585 OFFCURVE",
"812 1585 CURVE SMOOTH"
);
},
{
closed = 1;
nodes = (
"241 1585 LINE SMOOTH",
"222 1585 OFFCURVE",
"211 1574 OFFCURVE",
"211 1555 CURVE SMOOTH",
"211 1369 LINE SMOOTH",
"211 1350 OFFCURVE",
"222 1339 OFFCURVE",
"241 1339 CURVE SMOOTH",
"417 1339 LINE SMOOTH",
"436 1339 OFFCURVE",
"447 1350 OFFCURVE",
"447 1369 CURVE SMOOTH",
"447 1555 LINE SMOOTH",
"447 1574 OFFCURVE",
"436 1585 OFFCURVE",
"417 1585 CURVE SMOOTH"
);
},
{
closed = 1;
nodes = (
"411 467 LINE SMOOTH",
"411 300 OFFCURVE",
"441 180 OFFCURVE",
"502 108 CURVE SMOOTH",
"563 36 OFFCURVE",
"663 0 OFFCURVE",
"802 0 CURVE SMOOTH",
"1118 0 LINE",
"1118 225 LINE",
"884 225 LINE SMOOTH",
"819 225 OFFCURVE",
"772 243 OFFCURVE",
"745 280 CURVE SMOOTH",
"718 317 OFFCURVE",
"704 379 OFFCURVE",
"704 467 CURVE SMOOTH",
"704 1120 LINE",
"114 1120 LINE",
"114 895 LINE",
"411 895 LINE"
);
}
);
width = 1233;
}
);
note = "\012\011idieresis\012  ";
unicode = 00EF;
},
{
glyphname = igrave;
lastChange = "2015-07-18 20:38:46 +0000";
layers = (
{
layerId = "40F0FF51-D1E9-4DBD-A50F-345F6327BC10";
name = Bold;
paths = (
{
closed = 1;
nodes = (
"421 1638 LINE",
"139 1638 LINE",
"507 1262 LINE",
"704 1262 LINE"
);
},
{
closed = 1;
nodes = (
"411 467 LINE SMOOTH",
"411 300 OFFCURVE",
"441 180 OFFCURVE",
"502 108 CURVE SMOOTH",
"563 36 OFFCURVE",
"663 0 OFFCURVE",
"802 0 CURVE SMOOTH",
"1118 0 LINE",
"1118 225 LINE",
"884 225 LINE SMOOTH",
"819 225 OFFCURVE",
"772 243 OFFCURVE",
"745 280 CURVE SMOOTH",
"718 317 OFFCURVE",
"704 379 OFFCURVE",
"704 467 CURVE SMOOTH",
"704 1120 LINE",
"114 1120 LINE",
"114 895 LINE",
"411 895 LINE"
);
}
);
width = 1233;
}
);
note = "\012\011igrave\012  ";
unicode = 00EC;
},
{
glyphname = imacron;
lastChange = "2015-07-18 21:12:03 +0000";
layers = (
{
layerId = "40F0FF51-D1E9-4DBD-A50F-345F6327BC10";
name = Bold;
paths = (
{
closed = 1;
nodes = (
"231 1556 LINE",
"862 1556 LINE",
"862 1368 LINE",
"231 1368 LINE"
);
},
{
closed = 1;
nodes = (
"411 467 LINE SMOOTH",
"411 300 OFFCURVE",
"441 180 OFFCURVE",
"502 108 CURVE SMOOTH",
"563 36 OFFCURVE",
"663 0 OFFCURVE",
"802 0 CURVE SMOOTH",
"1118 0 LINE",
"1118 225 LINE",
"884 225 LINE SMOOTH",
"819 225 OFFCURVE",
"772 243 OFFCURVE",
"745 280 CURVE SMOOTH",
"718 317 OFFCURVE",
"704 379 OFFCURVE",
"704 467 CURVE SMOOTH",
"704 1120 LINE",
"114 1120 LINE",
"114 895 LINE",
"411 895 LINE"
);
}
);
width = 1233;
}
);
note = imacron;
unicode = 012B;
},
{
glyphname = iogonek;
lastChange = "2015-07-18 21:16:30 +0000";
layers = (
{
layerId = "40F0FF51-D1E9-4DBD-A50F-345F6327BC10";
name = Bold;
paths = (
{
closed = 1;
nodes = (
"411 1635 LINE SMOOTH",
"411 1654 OFFCURVE",
"422 1665 OFFCURVE",
"441 1665 CURVE SMOOTH",
"674 1665 LINE SMOOTH",
"693 1665 OFFCURVE",
"704 1654 OFFCURVE",
"704 1635 CURVE SMOOTH",
"704 1353 LINE SMOOTH",
"704 1334 OFFCURVE",
"693 1323 OFFCURVE",
"674 1323 CURVE SMOOTH",
"441 1323 LINE SMOOTH",
"422 1323 OFFCURVE",
"411 1334 OFFCURVE",
"411 1353 CURVE SMOOTH"
);
},
{
closed = 1;
nodes = (
"842 10 LINE",
"807 -37 OFFCURVE",
"783 -73 OFFCURVE",
"771 -96 CURVE SMOOTH",
"758 -119 OFFCURVE",
"752 -139 OFFCURVE",
"752 -156 CURVE SMOOTH",
"752 -208 OFFCURVE",
"796 -244 OFFCURVE",
"863 -244 CURVE SMOOTH",
"914 -244 OFFCURVE",
"965 -234 OFFCURVE",
"1018 -213 CURVE",
"1018 -369 LINE",
"946 -384 OFFCURVE",
"883 -391 OFFCURVE",
"828 -391 CURVE SMOOTH",
"676 -391 OFFCURVE",
"590 -328 OFFCURVE",
"590 -213 CURVE SMOOTH",
"590 -142 OFFCURVE",
"626 -71 OFFCURVE",
"701 10 CURVE"
);
},
{
closed = 1;
nodes = (
"411 467 LINE SMOOTH",
"411 300 OFFCURVE",
"441 180 OFFCURVE",
"502 108 CURVE SMOOTH",
"563 36 OFFCURVE",
"663 0 OFFCURVE",
"802 0 CURVE SMOOTH",
"1118 0 LINE",
"1118 225 LINE",
"884 225 LINE SMOOTH",
"819 225 OFFCURVE",
"772 243 OFFCURVE",
"745 280 CURVE SMOOTH",
"718 317 OFFCURVE",
"704 379 OFFCURVE",
"704 467 CURVE SMOOTH",
"704 1120 LINE",
"114 1120 LINE",
"114 895 LINE",
"411 895 LINE"
);
}
);
width = 1233;
}
);
note = iogonek;
unicode = 012F;
},
{
glyphname = itilde;
lastChange = "2015-07-18 21:20:53 +0000";
layers = (
{
layerId = "40F0FF51-D1E9-4DBD-A50F-345F6327BC10";
name = Bold;
paths = (
{
closed = 1;
nodes = (
"503 1401 LINE",
"501 1402 OFFCURVE",
"497 1405 OFFCURVE",
"491 1409 CURVE SMOOTH",
"462 1428 OFFCURVE",
"439 1438 OFFCURVE",
"421 1438 CURVE SMOOTH",
"373 1438 OFFCURVE",
"348 1396 OFFCURVE",
"348 1317 CURVE SMOOTH",
"348 1309 LINE",
"208 1309 LINE",
"208 1490 OFFCURVE",
"280 1593 OFFCURVE",
"405 1593 CURVE SMOOTH",
"453 1593 OFFCURVE",
"499 1576 OFFCURVE",
"554 1536 CURVE SMOOTH",
"616 1493 LINE SMOOTH",
"644 1473 OFFCURVE",
"669 1462 OFFCURVE",
"690 1462 CURVE SMOOTH",
"738 1462 OFFCURVE",
"765 1506 OFFCURVE",
"765 1583 CURVE SMOOTH",
"765 1591 LINE",
"905 1591 LINE",
"905 1410 OFFCURVE",
"833 1307 OFFCURVE",
"708 1307 CURVE SMOOTH",
"660 1307 OFFCURVE",
"622 1320 OFFCURVE",
"558 1364 CURVE SMOOTH"
);
},
{
closed = 1;
nodes = (
"411 467 LINE SMOOTH",
"411 300 OFFCURVE",
"441 180 OFFCURVE",
"502 108 CURVE SMOOTH",
"563 36 OFFCURVE",
"663 0 OFFCURVE",
"802 0 CURVE SMOOTH",
"1118 0 LINE",
"1118 225 LINE",
"884 225 LINE SMOOTH",
"819 225 OFFCURVE",
"772 243 OFFCURVE",
"745 280 CURVE SMOOTH",
"718 317 OFFCURVE",
"704 379 OFFCURVE",
"704 467 CURVE SMOOTH",
"704 1120 LINE",
"114 1120 LINE",
"114 895 LINE",
"411 895 LINE"
);
}
);
width = 1233;
}
);
note = itilde;
unicode = 0129;
},
{
glyphname = j;
layers = (
{
layerId = "40F0FF51-D1E9-4DBD-A50F-345F6327BC10";
name = Bold;
paths = (
{
closed = 1;
nodes = (
"850 1120 LINE",
"260 1120 LINE",
"260 895 LINE",
"557 895 LINE",
"557 43 LINE SMOOTH",
"557 -45 OFFCURVE",
"543 -107 OFFCURVE",
"516 -144 CURVE SMOOTH",
"489 -181 OFFCURVE",
"442 -199 OFFCURVE",
"377 -199 CURVE SMOOTH",
"143 -199 LINE",
"143 -424 LINE",
"459 -424 LINE SMOOTH",
"601 -424 OFFCURVE",
"702 -386 OFFCURVE",
"760 -317 CURVE SMOOTH",
"820 -245 OFFCURVE",
"850 -125 OFFCURVE",
"850 43 CURVE SMOOTH"
);
},
{
closed = 1;
nodes = (
"820 1323 LINE SMOOTH",
"839 1323 OFFCURVE",
"850 1334 OFFCURVE",
"850 1353 CURVE SMOOTH",
"850 1635 LINE SMOOTH",
"850 1654 OFFCURVE",
"839 1665 OFFCURVE",
"820 1665 CURVE SMOOTH",
"587 1665 LINE SMOOTH",
"568 1665 OFFCURVE",
"557 1654 OFFCURVE",
"557 1635 CURVE SMOOTH",
"557 1353 LINE SMOOTH",
"557 1334 OFFCURVE",
"568 1323 OFFCURVE",
"587 1323 CURVE SMOOTH"
);
}
);
width = 1233;
}
);
note = "\012\011j\012  ";
unicode = 006A;
},
{
glyphname = k;
layers = (
{
layerId = "40F0FF51-D1E9-4DBD-A50F-345F6327BC10";
name = Bold;
paths = (
{
closed = 1;
nodes = (
"174 1556 LINE",
"174 0 LINE",
"467 0 LINE",
"467 428 LINE",
"567 524 LINE",
"874 0 LINE",
"1198 0 LINE",
"750 702 LINE",
"1174 1120 LINE",
"819 1120 LINE",
"467 739 LINE",
"467 1556 LINE"
);
}
);
width = 1233;
}
);
note = "\012\011k\012  ";
unicode = 006B;
},
{
glyphname = kcommaaccent;
lastChange = "2015-07-18 21:10:33 +0000";
layers = (
{
layerId = "40F0FF51-D1E9-4DBD-A50F-345F6327BC10";
name = Bold;
paths = (
{
closed = 1;
nodes = (
"589 -158 LINE",
"871 -158 LINE",
"694 -464 LINE",
"500 -464 LINE"
);
},
{
closed = 1;
nodes = (
"174 1556 LINE",
"467 1556 LINE",
"467 739 LINE",
"819 1120 LINE",
"1174 1120 LINE",
"750 702 LINE",
"1198 0 LINE",
"874 0 LINE",
"567 524 LINE",
"467 428 LINE",
"467 0 LINE",
"174 0 LINE"
);
}
);
width = 1233;
}
);
note = kcommaaccent;
unicode = 0137;
},
{
glyphname = l;
layers = (
{
layerId = "40F0FF51-D1E9-4DBD-A50F-345F6327BC10";
name = Bold;
paths = (
{
closed = 1;
nodes = (
"387 467 LINE SMOOTH",
"387 300 OFFCURVE",
"417 180 OFFCURVE",
"478 108 CURVE SMOOTH",
"539 36 OFFCURVE",
"639 0 OFFCURVE",
"778 0 CURVE SMOOTH",
"1094 0 LINE",
"1094 225 LINE",
"860 225 LINE SMOOTH",
"795 225 OFFCURVE",
"748 243 OFFCURVE",
"721 280 CURVE SMOOTH",
"694 317 OFFCURVE",
"680 379 OFFCURVE",
"680 467 CURVE SMOOTH",
"680 1556 LINE",
"90 1556 LINE",
"90 1331 LINE",
"387 1331 LINE"
);
}
);
width = 1233;
}
);
note = "\012\011l\012  ";
unicode = 006C;
},
{
glyphname = lacute;
lastChange = "2015-07-18 21:10:33 +0000";
layers = (
{
layerId = "40F0FF51-D1E9-4DBD-A50F-345F6327BC10";
name = Bold;
paths = (
{
closed = 1;
nodes = (
"669 1900 LINE",
"953 1900 LINE",
"667 1636 LINE",
"470 1636 LINE"
);
},
{
closed = 1;
nodes = (
"387 1331 LINE",
"90 1331 LINE",
"90 1556 LINE",
"680 1556 LINE",
"680 467 LINE SMOOTH",
"680 291 OFFCURVE",
"729 225 OFFCURVE",
"860 225 CURVE SMOOTH",
"1094 225 LINE",
"1094 0 LINE",
"778 0 LINE SMOOTH",
"499 0 OFFCURVE",
"387 132 OFFCURVE",
"387 467 CURVE SMOOTH"
);
}
);
width = 1233;
}
);
note = lacute;
unicode = 013A;
},
{
glyphname = lcaron;
lastChange = "2015-07-18 21:10:33 +0000";
layers = (
{
layerId = "40F0FF51-D1E9-4DBD-A50F-345F6327BC10";
name = Bold;
paths = (
{
closed = 1;
nodes = (
"908 1556 LINE",
"1190 1556 LINE",
"1029 1180 LINE",
"832 1180 LINE"
);
},
{
closed = 1;
nodes = (
"387 1331 LINE",
"90 1331 LINE",
"90 1556 LINE",
"680 1556 LINE",
"680 467 LINE SMOOTH",
"680 291 OFFCURVE",
"729 225 OFFCURVE",
"860 225 CURVE SMOOTH",
"1094 225 LINE",
"1094 0 LINE",
"778 0 LINE SMOOTH",
"499 0 OFFCURVE",
"387 132 OFFCURVE",
"387 467 CURVE SMOOTH"
);
}
);
width = 1233;
}
);
note = lcaron;
unicode = 013E;
},
{
glyphname = lcommaaccent;
lastChange = "2015-07-18 21:10:33 +0000";
layers = (
{
layerId = "40F0FF51-D1E9-4DBD-A50F-345F6327BC10";
name = Bold;
paths = (
{
closed = 1;
nodes = (
"465 -158 LINE",
"747 -158 LINE",
"570 -464 LINE",
"376 -464 LINE"
);
},
{
closed = 1;
nodes = (
"387 1331 LINE",
"90 1331 LINE",
"90 1556 LINE",
"680 1556 LINE",
"680 467 LINE SMOOTH",
"680 291 OFFCURVE",
"729 225 OFFCURVE",
"860 225 CURVE SMOOTH",
"1094 225 LINE",
"1094 0 LINE",
"778 0 LINE SMOOTH",
"499 0 OFFCURVE",
"387 132 OFFCURVE",
"387 467 CURVE SMOOTH"
);
}
);
width = 1233;
}
);
note = lcommaaccent;
unicode = 013C;
},
{
glyphname = lslash;
layers = (
{
layerId = "40F0FF51-D1E9-4DBD-A50F-345F6327BC10";
name = Bold;
paths = (
{
closed = 1;
nodes = (
"410 467 LINE SMOOTH",
"410 300 OFFCURVE",
"440 180 OFFCURVE",
"501 108 CURVE SMOOTH",
"562 36 OFFCURVE",
"662 0 OFFCURVE",
"801 0 CURVE SMOOTH",
"1116 0 LINE",
"1116 225 LINE",
"883 225 LINE SMOOTH",
"815 225 OFFCURVE",
"771 244 OFFCURVE",
"744 280 CURVE SMOOTH",
"716 317 OFFCURVE",
"702 379 OFFCURVE",
"702 467 CURVE SMOOTH",
"702 840 LINE",
"1100 1120 LINE",
"997 1280 LINE",
"702 1071 LINE",
"702 1556 LINE",
"115 1556 LINE",
"115 1331 LINE",
"410 1331 LINE",
"410 864 LINE",
"37 600 LINE",
"137 438 LINE",
"410 633 LINE"
);
}
);
width = 1233;
}
);
note = "\012\011lslash\012  ";
unicode = 0142;
},
{
glyphname = m;
layers = (
{
layerId = "40F0FF51-D1E9-4DBD-A50F-345F6327BC10";
name = Bold;
paths = (
{
closed = 1;
nodes = (
"682 1047 OFFCURVE",
"659 1080 OFFCURVE",
"622 1107 CURVE SMOOTH",
"585 1134 OFFCURVE",
"543 1147 OFFCURVE",
"499 1147 CURVE SMOOTH",
"451 1147 OFFCURVE",
"408 1132 OFFCURVE",
"375 1109 CURVE SMOOTH",
"338 1083 OFFCURVE",
"312 1048 OFFCURVE",
"295 1004 CURVE",
"266 1120 LINE",
"82 1120 LINE",
"82 0 LINE",
"322 0 LINE",
"322 719 LINE SMOOTH",
"322 802 OFFCURVE",
"328 858 OFFCURVE",
"341 886 CURVE SMOOTH",
"354 914 OFFCURVE",
"377 928 OFFCURVE",
"410 928 CURVE SMOOTH",
"443 928 OFFCURVE",
"467 914 OFFCURVE",
"480 885 CURVE SMOOTH",
"493 856 OFFCURVE",
"500 801 OFFCURVE",
"500 719 CURVE SMOOTH",
"500 0 LINE",
"737 0 LINE",
"737 719 LINE SMOOTH",
"737 803 OFFCURVE",
"744 856 OFFCURVE",
"757 884 CURVE SMOOTH",
"769 911 OFFCURVE",
"789 928 OFFCURVE",
"827 928 CURVE SMOOTH",
"861 928 OFFCURVE",
"883 914 OFFCURVE",
"896 885 CURVE SMOOTH",
"909 856 OFFCURVE",
"915 807 OFFCURVE",
"915 719 CURVE SMOOTH",
"915 0 LINE",
"1155 0 LINE",
"1155 631 LINE SMOOTH",
"1155 838 OFFCURVE",
"1138 977 OFFCURVE",
"1100 1047 CURVE SMOOTH",
"1066 1110 OFFCURVE",
"999 1147 OFFCURVE",
"902 1147 CURVE SMOOTH",
"849 1147 OFFCURVE",
"808 1136 OFFCURVE",
"774 1113 CURVE SMOOTH",
"740 1090 OFFCURVE",
"712 1055 OFFCURVE",
"690 1008 CURVE"
);
}
);
width = 1233;
}
);
note = "\012\011m\012  ";
unicode = 006D;
},
{
glyphname = n;
layers = (
{
layerId = "40F0FF51-D1E9-4DBD-A50F-345F6327BC10";
name = Bold;
paths = (
{
closed = 1;
nodes = (
"1071 727 LINE SMOOTH",
"1071 866 OFFCURVE",
"1044 971 OFFCURVE",
"990 1042 CURVE SMOOTH",
"936 1112 OFFCURVE",
"855 1147 OFFCURVE",
"751 1147 CURVE SMOOTH",
"678 1147 OFFCURVE",
"619 1130 OFFCURVE",
"569 1096 CURVE SMOOTH",
"519 1062 OFFCURVE",
"484 1014 OFFCURVE",
"463 952 CURVE",
"434 1120 LINE",
"172 1120 LINE",
"172 0 LINE",
"463 0 LINE",
"463 641 LINE SMOOTH",
"463 732 OFFCURVE",
"480 793 OFFCURVE",
"509 838 CURVE SMOOTH",
"539 885 OFFCURVE",
"579 909 OFFCURVE",
"636 909 CURVE SMOOTH",
"684 909 OFFCURVE",
"723 892 OFFCURVE",
"746 857 CURVE SMOOTH",
"769 822 OFFCURVE",
"780 763 OFFCURVE",
"780 682 CURVE SMOOTH",
"780 0 LINE",
"1071 0 LINE"
);
}
);
width = 1233;
}
);
note = "\012\011n\012  ";
unicode = 006E;
},
{
glyphname = nacute;
lastChange = "2015-07-18 21:10:33 +0000";
layers = (
{
layerId = "40F0FF51-D1E9-4DBD-A50F-345F6327BC10";
name = Bold;
paths = (
{
closed = 1;
nodes = (
"750 1645 LINE",
"1032 1645 LINE",
"664 1269 LINE",
"467 1269 LINE"
);
},
{
closed = 1;
nodes = (
"1071 0 LINE",
"780 0 LINE",
"780 682 LINE SMOOTH",
"780 845 OFFCURVE",
"737 909 OFFCURVE",
"633 909 CURVE SMOOTH",
"528 909 OFFCURVE",
"463 809 OFFCURVE",
"463 641 CURVE SMOOTH",
"463 0 LINE",
"172 0 LINE",
"172 1120 LINE",
"463 1120 LINE",
"463 952 LINE",
"504 1076 OFFCURVE",
"609 1147 OFFCURVE",
"750 1147 CURVE SMOOTH",
"962 1147 OFFCURVE",
"1071 1006 OFFCURVE",
"1071 727 CURVE SMOOTH"
);
}
);
width = 1233;
}
);
note = nacute;
unicode = 0144;
},
{
glyphname = ncaron;
lastChange = "2015-07-18 21:10:33 +0000";
layers = (
{
layerId = "40F0FF51-D1E9-4DBD-A50F-345F6327BC10";
name = Bold;
paths = (
{
closed = 1;
nodes = (
"1071 0 LINE",
"780 0 LINE",
"780 682 LINE SMOOTH",
"780 845 OFFCURVE",
"737 909 OFFCURVE",
"633 909 CURVE SMOOTH",
"528 909 OFFCURVE",
"463 809 OFFCURVE",
"463 641 CURVE SMOOTH",
"463 0 LINE",
"172 0 LINE",
"172 1120 LINE",
"463 1120 LINE",
"463 952 LINE",
"504 1076 OFFCURVE",
"609 1147 OFFCURVE",
"750 1147 CURVE SMOOTH",
"962 1147 OFFCURVE",
"1071 1006 OFFCURVE",
"1071 727 CURVE SMOOTH"
);
},
{
closed = 1;
nodes = (
"532 1262 LINE",
"276 1638 LINE",
"454 1638 LINE",
"652 1411 LINE",
"851 1638 LINE",
"1029 1638 LINE",
"773 1262 LINE"
);
}
);
width = 1233;
}
);
note = ncaron;
unicode = 0148;
},
{
glyphname = ncommaaccent;
lastChange = "2015-07-18 21:10:33 +0000";
layers = (
{
layerId = "40F0FF51-D1E9-4DBD-A50F-345F6327BC10";
name = Bold;
paths = (
{
closed = 1;
nodes = (
"525 -158 LINE",
"807 -158 LINE",
"630 -464 LINE",
"436 -464 LINE"
);
},
{
closed = 1;
nodes = (
"1071 0 LINE",
"780 0 LINE",
"780 682 LINE SMOOTH",
"780 845 OFFCURVE",
"737 909 OFFCURVE",
"633 909 CURVE SMOOTH",
"528 909 OFFCURVE",
"463 809 OFFCURVE",
"463 641 CURVE SMOOTH",
"463 0 LINE",
"172 0 LINE",
"172 1120 LINE",
"463 1120 LINE",
"463 952 LINE",
"504 1076 OFFCURVE",
"609 1147 OFFCURVE",
"750 1147 CURVE SMOOTH",
"962 1147 OFFCURVE",
"1071 1006 OFFCURVE",
"1071 727 CURVE SMOOTH"
);
}
);
width = 1233;
}
);
note = ncommaaccent;
unicode = 0146;
},
{
glyphname = eng;
lastChange = "2015-07-18 21:10:33 +0000";
layers = (
{
layerId = "40F0FF51-D1E9-4DBD-A50F-345F6327BC10";
name = Bold;
paths = (
{
closed = 1;
nodes = (
"1071 43 LINE SMOOTH",
"1071 -293 OFFCURVE",
"960 -424 OFFCURVE",
"680 -424 CURVE SMOOTH",
"559 -424 LINE",
"559 -199 LINE",
"598 -199 LINE SMOOTH",
"731 -199 OFFCURVE",
"780 -133 OFFCURVE",
"780 43 CURVE SMOOTH",
"780 682 LINE SMOOTH",
"780 845 OFFCURVE",
"737 909 OFFCURVE",
"633 909 CURVE SMOOTH",
"528 909 OFFCURVE",
"463 809 OFFCURVE",
"463 641 CURVE SMOOTH",
"463 0 LINE",
"172 0 LINE",
"172 1120 LINE",
"463 1120 LINE",
"463 952 LINE",
"504 1076 OFFCURVE",
"609 1147 OFFCURVE",
"750 1147 CURVE SMOOTH",
"962 1147 OFFCURVE",
"1071 1006 OFFCURVE",
"1071 727 CURVE SMOOTH"
);
}
);
width = 1233;
}
);
note = eng;
unicode = 014B;
},
{
glyphname = ntilde;
layers = (
{
layerId = "40F0FF51-D1E9-4DBD-A50F-345F6327BC10";
name = Bold;
paths = (
{
closed = 1;
nodes = (
"1071 727 LINE SMOOTH",
"1071 866 OFFCURVE",
"1044 971 OFFCURVE",
"990 1042 CURVE SMOOTH",
"936 1112 OFFCURVE",
"855 1147 OFFCURVE",
"751 1147 CURVE SMOOTH",
"678 1147 OFFCURVE",
"619 1130 OFFCURVE",
"569 1096 CURVE SMOOTH",
"519 1062 OFFCURVE",
"484 1014 OFFCURVE",
"463 952 CURVE",
"434 1120 LINE",
"172 1120 LINE",
"172 0 LINE",
"463 0 LINE",
"463 641 LINE SMOOTH",
"463 732 OFFCURVE",
"480 793 OFFCURVE",
"509 838 CURVE SMOOTH",
"539 885 OFFCURVE",
"579 909 OFFCURVE",
"636 909 CURVE SMOOTH",
"684 909 OFFCURVE",
"723 892 OFFCURVE",
"746 857 CURVE SMOOTH",
"769 822 OFFCURVE",
"780 763 OFFCURVE",
"780 682 CURVE SMOOTH",
"780 0 LINE",
"1071 0 LINE"
);
},
{
closed = 1;
nodes = (
"618 1364 LINE SMOOTH",
"650 1342 OFFCURVE",
"677 1327 OFFCURVE",
"699 1319 CURVE SMOOTH",
"721 1311 OFFCURVE",
"744 1307 OFFCURVE",
"768 1307 CURVE SMOOTH",
"833 1307 OFFCURVE",
"882 1335 OFFCURVE",
"914 1381 CURVE SMOOTH",
"948 1430 OFFCURVE",
"965 1500 OFFCURVE",
"965 1591 CURVE",
"825 1591 LINE",
"825 1583 LINE SMOOTH",
"825 1544 OFFCURVE",
"819 1515 OFFCURVE",
"806 1494 CURVE SMOOTH",
"793 1473 OFFCURVE",
"774 1462 OFFCURVE",
"751 1462 CURVE SMOOTH",
"739 1462 OFFCURVE",
"728 1465 OFFCURVE",
"716 1470 CURVE SMOOTH",
"701 1476 OFFCURVE",
"693 1481 OFFCURVE",
"676 1493 CURVE SMOOTH",
"614 1536 LINE SMOOTH",
"586 1556 OFFCURVE",
"564 1570 OFFCURVE",
"537 1580 CURVE SMOOTH",
"513 1589 OFFCURVE",
"489 1593 OFFCURVE",
"465 1593 CURVE SMOOTH",
"399 1593 OFFCURVE",
"351 1564 OFFCURVE",
"320 1520 CURVE SMOOTH",
"287 1473 OFFCURVE",
"268 1403 OFFCURVE",
"268 1309 CURVE",
"408 1309 LINE",
"408 1317 LINE SMOOTH",
"408 1356 OFFCURVE",
"414 1386 OFFCURVE",
"427 1407 CURVE SMOOTH",
"438 1425 OFFCURVE",
"454 1438 OFFCURVE",
"479 1438 CURVE SMOOTH",
"500 1438 OFFCURVE",
"522 1428 OFFCURVE",
"551 1409 CURVE SMOOTH",
"563 1401 LINE"
);
}
);
width = 1233;
}
);
note = "\012\011ntilde\012  ";
unicode = 00F1;
},
{
glyphname = o;
layers = (
{
layerId = "40F0FF51-D1E9-4DBD-A50F-345F6327BC10";
name = Bold;
paths = (
{
closed = 1;
nodes = (
"684 909 OFFCURVE",
"741 880 OFFCURVE",
"782 817 CURVE SMOOTH",
"822 755 OFFCURVE",
"842 669 OFFCURVE",
"842 560 CURVE SMOOTH",
"842 451 OFFCURVE",
"822 363 OFFCURVE",
"782 301 CURVE SMOOTH",
"742 240 OFFCURVE",
"685 209 OFFCURVE",
"616 209 CURVE SMOOTH",
"547 209 OFFCURVE",
"490 241 OFFCURVE",
"451 301 CURVE SMOOTH",
"411 363 OFFCURVE",
"391 451 OFFCURVE",
"391 560 CURVE SMOOTH",
"391 669 OFFCURVE",
"411 755 OFFCURVE",
"451 817 CURVE SMOOTH",
"488 874 OFFCURVE",
"542 909 OFFCURVE",
"616 909 CURVE SMOOTH"
);
},
{
closed = 1;
nodes = (
"98 385 OFFCURVE",
"145 234 OFFCURVE",
"238 129 CURVE SMOOTH",
"321 35 OFFCURVE",
"448 -29 OFFCURVE",
"617 -29 CURVE SMOOTH",
"779 -29 OFFCURVE",
"908 30 OFFCURVE",
"996 130 CURVE SMOOTH",
"1088 235 OFFCURVE",
"1135 381 OFFCURVE",
"1135 559 CURVE SMOOTH",
"1135 747 OFFCURVE",
"1082 892 OFFCURVE",
"995 990 CURVE SMOOTH",
"908 1088 OFFCURVE",
"779 1147 OFFCURVE",
"616 1147 CURVE SMOOTH",
"460 1147 OFFCURVE",
"330 1093 OFFCURVE",
"238 989 CURVE SMOOTH",
"146 885 OFFCURVE",
"98 737 OFFCURVE",
"98 560 CURVE SMOOTH"
);
}
);
width = 1233;
}
);
note = "\012\011o\012  ";
unicode = 006F;
},
{
glyphname = oacute;
layers = (
{
layerId = "40F0FF51-D1E9-4DBD-A50F-345F6327BC10";
name = Bold;
paths = (
{
closed = 1;
nodes = (
"752 1561 LINE",
"469 1262 LINE",
"666 1262 LINE",
"1034 1561 LINE"
);
},
{
closed = 1;
nodes = (
"684 909 OFFCURVE",
"741 880 OFFCURVE",
"782 817 CURVE SMOOTH",
"822 755 OFFCURVE",
"842 669 OFFCURVE",
"842 560 CURVE SMOOTH",
"842 451 OFFCURVE",
"822 363 OFFCURVE",
"782 301 CURVE SMOOTH",
"742 240 OFFCURVE",
"685 209 OFFCURVE",
"616 209 CURVE SMOOTH",
"547 209 OFFCURVE",
"490 241 OFFCURVE",
"451 301 CURVE SMOOTH",
"411 363 OFFCURVE",
"391 451 OFFCURVE",
"391 560 CURVE SMOOTH",
"391 669 OFFCURVE",
"411 755 OFFCURVE",
"451 817 CURVE SMOOTH",
"488 874 OFFCURVE",
"542 909 OFFCURVE",
"616 909 CURVE SMOOTH"
);
},
{
closed = 1;
nodes = (
"98 385 OFFCURVE",
"145 234 OFFCURVE",
"238 129 CURVE SMOOTH",
"321 35 OFFCURVE",
"448 -29 OFFCURVE",
"617 -29 CURVE SMOOTH",
"779 -29 OFFCURVE",
"908 30 OFFCURVE",
"996 130 CURVE SMOOTH",
"1088 235 OFFCURVE",
"1135 381 OFFCURVE",
"1135 559 CURVE SMOOTH",
"1135 747 OFFCURVE",
"1082 892 OFFCURVE",
"995 990 CURVE SMOOTH",
"908 1088 OFFCURVE",
"779 1147 OFFCURVE",
"616 1147 CURVE SMOOTH",
"460 1147 OFFCURVE",
"330 1093 OFFCURVE",
"238 989 CURVE SMOOTH",
"146 885 OFFCURVE",
"98 737 OFFCURVE",
"98 560 CURVE SMOOTH"
);
}
);
width = 1233;
}
);
note = "\012\011oacute\012  ";
unicode = 00F3;
},
{
glyphname = ocircumflex;
layers = (
{
layerId = "40F0FF51-D1E9-4DBD-A50F-345F6327BC10";
name = Bold;
paths = (
{
closed = 1;
nodes = (
"496 1561 LINE",
"240 1262 LINE",
"418 1262 LINE",
"616 1409 LINE",
"815 1262 LINE",
"993 1262 LINE",
"737 1561 LINE"
);
},
{
closed = 1;
nodes = (
"684 909 OFFCURVE",
"741 880 OFFCURVE",
"782 817 CURVE SMOOTH",
"822 755 OFFCURVE",
"842 669 OFFCURVE",
"842 560 CURVE SMOOTH",
"842 451 OFFCURVE",
"822 363 OFFCURVE",
"782 301 CURVE SMOOTH",
"742 240 OFFCURVE",
"685 209 OFFCURVE",
"616 209 CURVE SMOOTH",
"547 209 OFFCURVE",
"490 241 OFFCURVE",
"451 301 CURVE SMOOTH",
"411 363 OFFCURVE",
"391 451 OFFCURVE",
"391 560 CURVE SMOOTH",
"391 669 OFFCURVE",
"411 755 OFFCURVE",
"451 817 CURVE SMOOTH",
"488 874 OFFCURVE",
"542 909 OFFCURVE",
"616 909 CURVE SMOOTH"
);
},
{
closed = 1;
nodes = (
"98 385 OFFCURVE",
"145 234 OFFCURVE",
"238 129 CURVE SMOOTH",
"321 35 OFFCURVE",
"448 -29 OFFCURVE",
"617 -29 CURVE SMOOTH",
"779 -29 OFFCURVE",
"908 30 OFFCURVE",
"996 130 CURVE SMOOTH",
"1088 235 OFFCURVE",
"1135 381 OFFCURVE",
"1135 559 CURVE SMOOTH",
"1135 747 OFFCURVE",
"1082 892 OFFCURVE",
"995 990 CURVE SMOOTH",
"908 1088 OFFCURVE",
"779 1147 OFFCURVE",
"616 1147 CURVE SMOOTH",
"460 1147 OFFCURVE",
"330 1093 OFFCURVE",
"238 989 CURVE SMOOTH",
"146 885 OFFCURVE",
"98 737 OFFCURVE",
"98 560 CURVE SMOOTH"
);
}
);
width = 1233;
}
);
note = "\012\011ocircumflex\012  ";
unicode = 00F4;
},
{
glyphname = odieresis;
layers = (
{
layerId = "40F0FF51-D1E9-4DBD-A50F-345F6327BC10";
name = Bold;
paths = (
{
closed = 1;
nodes = (
"331 1561 LINE SMOOTH",
"312 1561 OFFCURVE",
"301 1550 OFFCURVE",
"301 1531 CURVE SMOOTH",
"301 1345 LINE SMOOTH",
"301 1326 OFFCURVE",
"312 1315 OFFCURVE",
"331 1315 CURVE SMOOTH",
"507 1315 LINE SMOOTH",
"526 1315 OFFCURVE",
"537 1326 OFFCURVE",
"537 1345 CURVE SMOOTH",
"537 1531 LINE SMOOTH",
"537 1550 OFFCURVE",
"526 1561 OFFCURVE",
"507 1561 CURVE SMOOTH"
);
},
{
closed = 1;
nodes = (
"726 1561 LINE SMOOTH",
"707 1561 OFFCURVE",
"696 1550 OFFCURVE",
"696 1531 CURVE SMOOTH",
"696 1345 LINE SMOOTH",
"696 1326 OFFCURVE",
"707 1315 OFFCURVE",
"726 1315 CURVE SMOOTH",
"902 1315 LINE SMOOTH",
"921 1315 OFFCURVE",
"932 1326 OFFCURVE",
"932 1345 CURVE SMOOTH",
"932 1531 LINE SMOOTH",
"932 1550 OFFCURVE",
"921 1561 OFFCURVE",
"902 1561 CURVE SMOOTH"
);
},
{
closed = 1;
nodes = (
"684 909 OFFCURVE",
"741 880 OFFCURVE",
"782 817 CURVE SMOOTH",
"822 755 OFFCURVE",
"842 669 OFFCURVE",
"842 560 CURVE SMOOTH",
"842 451 OFFCURVE",
"822 363 OFFCURVE",
"782 301 CURVE SMOOTH",
"742 240 OFFCURVE",
"685 209 OFFCURVE",
"616 209 CURVE SMOOTH",
"547 209 OFFCURVE",
"490 241 OFFCURVE",
"451 301 CURVE SMOOTH",
"411 363 OFFCURVE",
"391 451 OFFCURVE",
"391 560 CURVE SMOOTH",
"391 669 OFFCURVE",
"411 755 OFFCURVE",
"451 817 CURVE SMOOTH",
"488 874 OFFCURVE",
"542 909 OFFCURVE",
"616 909 CURVE SMOOTH"
);
},
{
closed = 1;
nodes = (
"98 385 OFFCURVE",
"145 234 OFFCURVE",
"238 129 CURVE SMOOTH",
"321 35 OFFCURVE",
"448 -29 OFFCURVE",
"617 -29 CURVE SMOOTH",
"779 -29 OFFCURVE",
"908 30 OFFCURVE",
"996 130 CURVE SMOOTH",
"1088 235 OFFCURVE",
"1135 381 OFFCURVE",
"1135 559 CURVE SMOOTH",
"1135 747 OFFCURVE",
"1082 892 OFFCURVE",
"995 990 CURVE SMOOTH",
"908 1088 OFFCURVE",
"779 1147 OFFCURVE",
"616 1147 CURVE SMOOTH",
"460 1147 OFFCURVE",
"330 1093 OFFCURVE",
"238 989 CURVE SMOOTH",
"146 885 OFFCURVE",
"98 737 OFFCURVE",
"98 560 CURVE SMOOTH"
);
}
);
width = 1233;
}
);
note = "\012\011odieresis\012  ";
unicode = 00F6;
},
{
glyphname = ograve;
layers = (
{
layerId = "40F0FF51-D1E9-4DBD-A50F-345F6327BC10";
name = Bold;
paths = (
{
closed = 1;
nodes = (
"481 1561 LINE",
"199 1561 LINE",
"567 1262 LINE",
"764 1262 LINE"
);
},
{
closed = 1;
nodes = (
"684 909 OFFCURVE",
"741 880 OFFCURVE",
"782 817 CURVE SMOOTH",
"822 755 OFFCURVE",
"842 669 OFFCURVE",
"842 560 CURVE SMOOTH",
"842 451 OFFCURVE",
"822 363 OFFCURVE",
"782 301 CURVE SMOOTH",
"742 240 OFFCURVE",
"685 209 OFFCURVE",
"616 209 CURVE SMOOTH",
"547 209 OFFCURVE",
"490 241 OFFCURVE",
"451 301 CURVE SMOOTH",
"411 363 OFFCURVE",
"391 451 OFFCURVE",
"391 560 CURVE SMOOTH",
"391 669 OFFCURVE",
"411 755 OFFCURVE",
"451 817 CURVE SMOOTH",
"488 874 OFFCURVE",
"542 909 OFFCURVE",
"616 909 CURVE SMOOTH"
);
},
{
closed = 1;
nodes = (
"98 385 OFFCURVE",
"145 234 OFFCURVE",
"238 129 CURVE SMOOTH",
"321 35 OFFCURVE",
"448 -29 OFFCURVE",
"617 -29 CURVE SMOOTH",
"779 -29 OFFCURVE",
"908 30 OFFCURVE",
"996 130 CURVE SMOOTH",
"1088 235 OFFCURVE",
"1135 381 OFFCURVE",
"1135 559 CURVE SMOOTH",
"1135 747 OFFCURVE",
"1082 892 OFFCURVE",
"995 990 CURVE SMOOTH",
"908 1088 OFFCURVE",
"779 1147 OFFCURVE",
"616 1147 CURVE SMOOTH",
"460 1147 OFFCURVE",
"330 1093 OFFCURVE",
"238 989 CURVE SMOOTH",
"146 885 OFFCURVE",
"98 737 OFFCURVE",
"98 560 CURVE SMOOTH"
);
}
);
width = 1233;
}
);
note = "\012\011ograve\012  ";
unicode = 00F2;
},
{
glyphname = ohorn;
lastChange = "2015-07-18 21:20:30 +0000";
layers = (
{
layerId = "40F0FF51-D1E9-4DBD-A50F-345F6327BC10";
name = Bold;
paths = (
{
closed = 1;
nodes = (
"823 991 LINE",
"868 958 OFFCURVE",
"902 935 OFFCURVE",
"927 922 CURVE SMOOTH",
"951 909 OFFCURVE",
"972 903 OFFCURVE",
"989 903 CURVE SMOOTH",
"1041 903 OFFCURVE",
"1077 946 OFFCURVE",
"1077 1011 CURVE SMOOTH",
"1077 1063 OFFCURVE",
"1067 1114 OFFCURVE",
"1046 1167 CURVE",
"1202 1167 LINE",
"1217 1094 OFFCURVE",
"1224 1032 OFFCURVE",
"1224 977 CURVE SMOOTH",
"1224 824 OFFCURVE",
"1161 739 OFFCURVE",
"1046 739 CURVE SMOOTH",
"975 739 OFFCURVE",
"904 774 OFFCURVE",
"823 850 CURVE"
);
},
{
closed = 1;
nodes = (
"387 909 OFFCURVE",
"302 779 OFFCURVE",
"302 559 CURVE SMOOTH",
"302 339 OFFCURVE",
"387 209 OFFCURVE",
"527 209 CURVE SMOOTH",
"668 209 OFFCURVE",
"753 339 OFFCURVE",
"753 559 CURVE SMOOTH",
"753 779 OFFCURVE",
"668 909 OFFCURVE",
"527 909 CURVE SMOOTH"
);
},
{
closed = 1;
nodes = (
"9 920 OFFCURVE",
"211 1147 OFFCURVE",
"527 1147 CURVE SMOOTH",
"844 1147 OFFCURVE",
"1046 920 OFFCURVE",
"1046 559 CURVE SMOOTH",
"1046 198 OFFCURVE",
"844 -29 OFFCURVE",
"527 -29 CURVE SMOOTH",
"211 -29 OFFCURVE",
"9 198 OFFCURVE",
"9 559 CURVE SMOOTH"
);
}
);
width = 1233;
}
);
note = ohorn;
unicode = 01A1;
},
